UbuntuSansMono-Italic.ufo
<glyph name="quotedbl" format="2">
  <advance width="560"/>
  <unicode hex="0022"/>
  <outline>
    <contour>
      <point x="216" y="493" type="curve"/>
      <point x="253" y="493" type="line"/>
      <point x="281" y="560"/>
      <point x="308" y="652"/>
      <point x="324" y="716" type="curve" smooth="yes"/>
      <point x="334" y="760" type="line"/>
      <point x="266" y="760" type="line"/>
      <point x="254" y="712" type="line" smooth="yes"/>
      <point x="239" y="648"/>
      <point x="222" y="560"/>
    </contour>
    <contour>
      <point x="390" y="493" type="curve"/>
      <point x="428" y="493" type="line"/>
      <point x="453" y="560"/>
      <point x="480" y="652"/>
      <point x="496" y="716" type="curve" smooth="yes"/>
      <point x="507" y="760" type="line"/>
      <point x="439" y="760" type="line"/>
      <point x="427" y="712" type="line" smooth="yes"/>
      <point x="412" y="648"/>
      <point x="397" y="560"/>
    </contour>
  </outline>
</glyph>
<glyph name="asterisk" format="2">
  <advance width="560"/>
  <unicode hex="002A"/>
  <outline>
    <contour>
      <point x="416" y="288" type="line"/>
      <point x="486" y="339" type="line"/>
      <point x="487" y="338" type="line" smooth="yes"/>
      <point x="455" y="389"/>
      <point x="410" y="429"/>
      <point x="366" y="471" type="curve"/>
      <point x="426" y="479"/>
      <point x="483" y="490"/>
      <point x="541" y="506" type="curve" smooth="yes"/>
      <point x="540" y="507" type="line"/>
      <point x="514" y="588" type="line"/>
      <point x="514" y="587" type="line" smooth="yes"/>
      <point x="458" y="566"/>
      <point x="406" y="544"/>
      <point x="353" y="515" type="curve"/>
      <point x="363" y="574"/>
      <point x="373" y="631"/>
      <point x="373" y="693" type="curve" smooth="yes"/>
      <point x="373" y="693" type="line"/>
      <point x="287" y="693" type="line"/>
      <point x="287" y="693" type="line" smooth="yes"/>
      <point x="287" y="631"/>
      <point x="297" y="574"/>
      <point x="307" y="515" type="curve"/>
      <point x="254" y="543"/>
      <point x="201" y="565"/>
      <point x="144" y="588" type="curve" smooth="yes"/>
      <point x="144" y="588" type="line"/>
      <point x="118" y="507" type="line"/>
      <point x="117" y="506" type="line" smooth="yes"/>
      <point x="175" y="487"/>
      <point x="233" y="480"/>
      <point x="292" y="470" type="curve"/>
      <point x="248" y="429"/>
      <point x="208" y="390"/>
      <point x="172" y="339" type="curve" smooth="yes"/>
      <point x="171" y="339" type="line"/>
      <point x="240" y="289" type="line"/>
      <point x="240" y="288" type="line" smooth="yes"/>
      <point x="278" y="337"/>
      <point x="303" y="390"/>
      <point x="330" y="442" type="curve"/>
      <point x="355" y="390"/>
      <point x="380" y="338"/>
      <point x="415" y="288" type="curve" smooth="yes"/>
    </contour>
  </outline>
</glyph>
<glyph name="comma" format="2">
  <advance width="560"/>
  <unicode hex="002C"/>
  <outline>
    <contour>
      <point x="88" y="-159" type="line"/>
      <point x="247" y="-136"/>
      <point x="315" y="-18"/>
      <point x="315" y="54" type="curve" smooth="yes"/>
      <point x="315" y="107"/>
      <point x="288" y="147"/>
      <point x="242" y="147" type="curve" smooth="yes"/>
      <point x="188" y="147"/>
      <point x="157" y="109"/>
      <point x="157" y="63" type="curve" smooth="yes"/>
      <point x="157" y="31"/>
      <point x="176" y="-3"/>
      <point x="217" y="-9" type="curve"/>
      <point x="197" y="-65"/>
      <point x="127" y="-86"/>
      <point x="79" y="-90" type="curve"/>
    </contour>
  </outline>
</glyph>
<glyph name="two" format="2">
  <advance width="560"/>
  <unicode hex="0032"/>
  <outline>
    <contour>
      <point x="44" y="0" type="curve"/>
      <point x="436" y="0" type="line"/>
      <point x="453" y="67" type="line"/>
      <point x="153" y="67" type="line"/>
      <point x="173" y="138"/>
      <point x="274" y="215"/>
      <point x="335" y="262" type="curve" smooth="yes"/>
      <point x="451" y="349"/>
      <point x="543" y="410"/>
      <point x="543" y="554" type="curve" smooth="yes"/>
      <point x="543" y="630"/>
      <point x="496" y="709"/>
      <point x="364" y="709" type="curve" smooth="yes"/>
      <point x="277" y="709"/>
      <point x="200" y="665"/>
      <point x="175" y="638" type="curve"/>
      <point x="203" y="574" type="line"/>
      <point x="217" y="593"/>
      <point x="276" y="640"/>
      <point x="357" y="640" type="curve" smooth="yes"/>
      <point x="429" y="640"/>
      <point x="459" y="604"/>
      <point x="459" y="544" type="curve" smooth="yes"/>
      <point x="459" y="434"/>
      <point x="347" y="363"/>
      <point x="250" y="290" type="curve" smooth="yes"/>
      <point x="162" y="221"/>
      <point x="67" y="137"/>
    </contour>
  </outline>
</glyph>
<glyph name="three" format="2">
  <advance width="560"/>
  <unicode hex="0033"/>
  <outline>
    <contour>
      <point x="205" y="-15" type="curve" smooth="yes"/>
      <point x="380" y="-15"/>
      <point x="485" y="73"/>
      <point x="485" y="223" type="curve" smooth="yes"/>
      <point x="485" y="309"/>
      <point x="430" y="356"/>
      <point x="390" y="372" type="curve"/>
      <point x="474" y="404"/>
      <point x="532" y="464"/>
      <point x="532" y="553" type="curve" smooth="yes"/>
      <point x="532" y="635"/>
      <point x="490" y="709"/>
      <point x="361" y="709" type="curve" smooth="yes"/>
      <point x="289" y="709"/>
      <point x="220" y="680"/>
      <point x="193" y="660" type="curve"/>
      <point x="211" y="596" type="line"/>
      <point x="240" y="615"/>
      <point x="286" y="639"/>
      <point x="349" y="639" type="curve" smooth="yes"/>
      <point x="415" y="639"/>
      <point x="450" y="609"/>
      <point x="450" y="549" type="curve" smooth="yes"/>
      <point x="450" y="457"/>
      <point x="357" y="404"/>
      <point x="262" y="404" type="curve" smooth="yes"/>
      <point x="239" y="404" type="line"/>
      <point x="224" y="339" type="line"/>
      <point x="238" y="339" type="line" smooth="yes"/>
      <point x="338" y="339"/>
      <point x="404" y="303"/>
      <point x="404" y="220" type="curve" smooth="yes"/>
      <point x="404" y="115"/>
      <point x="322" y="58"/>
      <point x="208" y="58" type="curve" smooth="yes"/>
      <point x="122" y="58"/>
      <point x="79" y="88"/>
      <point x="66" y="94" type="curve"/>
      <point x="35" y="24" type="line"/>
      <point x="38" y="20"/>
      <point x="106" y="-15"/>
    </contour>
  </outline>
</glyph>
<glyph name="four" format="2">
  <advance width="560"/>
  <unicode hex="0034"/>
  <outline>
    <contour>
      <point x="275" y="0" type="line"/>
      <point x="355" y="0" type="line"/>
      <point x="396" y="181" type="line"/>
      <point x="479" y="181" type="line"/>
      <point x="495" y="247" type="line"/>
      <point x="411" y="247" type="line"/>
      <point x="519" y="693" type="line"/>
      <point x="442" y="693" type="line"/>
      <point x="278" y="576"/>
      <point x="99" y="361"/>
      <point x="27" y="232" type="curve"/>
      <point x="15" y="181" type="line"/>
      <point x="318" y="181" type="line"/>
    </contour>
    <contour>
      <point x="117" y="247" type="line"/>
      <point x="193" y="376"/>
      <point x="318" y="507"/>
      <point x="416" y="588" type="curve"/>
      <point x="334" y="247" type="line"/>
    </contour>
  </outline>
</glyph>
<glyph name="five" format="2">
  <advance width="560"/>
  <unicode hex="0035"/>
  <outline>
    <contour>
      <point x="187" y="-15" type="curve" smooth="yes"/>
      <point x="394" y="-15"/>
      <point x="480" y="96"/>
      <point x="480" y="229" type="curve" smooth="yes"/>
      <point x="480" y="348"/>
      <point x="401" y="403"/>
      <point x="254" y="424" type="curve"/>
      <point x="267" y="470"/>
      <point x="305" y="572"/>
      <point x="321" y="626" type="curve"/>
      <point x="558" y="626" type="line"/>
      <point x="574" y="693" type="line"/>
      <point x="262" y="693" type="line"/>
      <point x="233" y="575"/>
      <point x="198" y="487"/>
      <point x="155" y="364" type="curve"/>
      <point x="226" y="359"/>
      <point x="399" y="362"/>
      <point x="399" y="221" type="curve" smooth="yes"/>
      <point x="399" y="119"/>
      <point x="305" y="57"/>
      <point x="194" y="57" type="curve" smooth="yes"/>
      <point x="115" y="57"/>
      <point x="71" y="84"/>
      <point x="61" y="90" type="curve"/>
      <point x="29" y="22" type="line"/>
      <point x="27" y="21"/>
      <point x="98" y="-15"/>
    </contour>
  </outline>
</glyph>
<glyph name="six" format="2">
  <advance width="560"/>
  <unicode hex="0036"/>
  <outline>
    <contour>
      <point x="242" y="-15" type="curve" smooth="yes"/>
      <point x="442" y="-15"/>
      <point x="509" y="141"/>
      <point x="509" y="262" type="curve" smooth="yes"/>
      <point x="509" y="340"/>
      <point x="468" y="423"/>
      <point x="340" y="423" type="curve" smooth="yes"/>
      <point x="292" y="423"/>
      <point x="241" y="409"/>
      <point x="200" y="390" type="curve"/>
      <point x="244" y="499"/>
      <point x="358" y="626"/>
      <point x="562" y="626" type="curve"/>
      <point x="572" y="697" type="line"/>
      <point x="569" y="697"/>
      <point x="568" y="697"/>
      <point x="565" y="697" type="curve" smooth="yes"/>
      <point x="281" y="697"/>
      <point x="73" y="465"/>
      <point x="73" y="172" type="curve" smooth="yes"/>
      <point x="73" y="59"/>
      <point x="127" y="-15"/>
    </contour>
    <contour>
      <point x="255" y="48" type="curve" smooth="yes"/>
      <point x="177" y="48"/>
      <point x="152" y="96"/>
      <point x="152" y="183" type="curve" smooth="yes"/>
      <point x="152" y="220"/>
      <point x="160" y="274"/>
      <point x="176" y="320" type="curve"/>
      <point x="227" y="347"/>
      <point x="276" y="352"/>
      <point x="327" y="352" type="curve" smooth="yes"/>
      <point x="404" y="352"/>
      <point x="430" y="314"/>
      <point x="430" y="252" type="curve" smooth="yes"/>
      <point x="430" y="160"/>
      <point x="369" y="48"/>
    </contour>
  </outline>
</glyph>
<glyph name="seven" format="2">
  <advance width="560"/>
  <unicode hex="0037"/>
  <outline>
    <contour>
      <point x="121" y="0" type="curve"/>
      <point x="206" y="0" type="line"/>
      <point x="279" y="247"/>
      <point x="483" y="517"/>
      <point x="600" y="619" type="curve"/>
      <point x="618" y="693" type="line"/>
      <point x="197" y="693" type="line"/>
      <point x="182" y="627" type="line"/>
      <point x="517" y="627" type="line"/>
      <point x="375" y="508"/>
      <point x="183" y="216"/>
    </contour>
  </outline>
</glyph>
<glyph name="less" format="2">
  <advance width="560"/>
  <unicode hex="003C"/>
  <outline>
    <contour>
      <point x="421" y="66" type="line"/>
      <point x="460" y="130" type="line"/>
      <point x="140" y="278" type="line"/>
      <point x="533" y="431" type="line"/>
      <point x="529" y="501" type="line"/>
      <point x="62" y="318" type="line"/>
      <point x="45" y="247" type="line"/>
    </contour>
  </outline>
</glyph>
<glyph name="question" format="2">
  <advance width="560"/>
  <unicode hex="003F"/>
  <outline>
    <contour>
      <point x="219" y="231" type="curve"/>
      <point x="288" y="231" type="line"/>
      <point x="295" y="287"/>
      <point x="345" y="331"/>
      <point x="385" y="366" type="curve" smooth="yes"/>
      <point x="452" y="420"/>
      <point x="534" y="475"/>
      <point x="534" y="575" type="curve" smooth="yes"/>
      <point x="534" y="685"/>
      <point x="442" y="709"/>
      <point x="371" y="709" type="curve" smooth="yes"/>
      <point x="317" y="709"/>
      <point x="260" y="694"/>
      <point x="232" y="679" type="curve"/>
      <point x="239" y="619" type="line"/>
      <point x="284" y="639"/>
      <point x="323" y="645"/>
      <point x="366" y="645" type="curve" smooth="yes"/>
      <point x="433" y="645"/>
      <point x="459" y="611"/>
      <point x="459" y="567" type="curve" smooth="yes"/>
      <point x="459" y="505"/>
      <point x="401" y="453"/>
      <point x="351" y="413" type="curve" smooth="yes"/>
      <point x="299" y="364"/>
      <point x="224" y="312"/>
    </contour>
    <contour>
      <point x="205" y="-13" type="curve" smooth="yes"/>
      <point x="241" y="-13"/>
      <point x="279" y="15"/>
      <point x="279" y="65" type="curve" smooth="yes"/>
      <point x="279" y="106"/>
      <point x="251" y="129"/>
      <point x="215" y="129" type="curve" smooth="yes"/>
      <point x="177" y="129"/>
      <point x="144" y="101"/>
      <point x="144" y="49" type="curve" smooth="yes"/>
      <point x="144" y="7"/>
      <point x="170" y="-13"/>
    </contour>
  </outline>
</glyph>
<glyph name="I" format="2">
  <advance width="560"/>
  <unicode hex="0049"/>
  <anchor x="218" y="0" name="bottom"/>
  <anchor x="444" y="10" name="ogonek"/>
  <anchor x="382" y="685" name="top"/>
  <anchor x="124" y="693" name="topleft"/>
  <outline>
    <contour>
      <point x="50" y="0" type="line"/>
      <point x="385" y="0" type="line"/>
      <point x="402" y="67" type="line"/>
      <point x="272" y="67" type="line"/>
      <point x="408" y="626" type="line"/>
      <point x="536" y="626" type="line"/>
      <point x="552" y="693" type="line"/>
      <point x="216" y="693" type="line"/>
      <point x="200" y="626" type="line"/>
      <point x="328" y="626" type="line"/>
      <point x="194" y="67" type="line"/>
      <point x="67" y="67" type="line"/>
    </contour>
  </outline>
</glyph>
<glyph name="K" format="2">
  <advance width="560"/>
  <unicode hex="004B"/>
  <anchor x="218" y="0" name="bottom"/>
  <anchor x="382" y="685" name="top"/>
  <outline>
    <contour>
      <point x="13" y="0" type="line"/>
      <point x="91" y="0" type="line"/>
      <point x="172" y="338" type="line"/>
      <point x="254" y="268"/>
      <point x="323" y="174"/>
      <point x="390" y="0" type="curve"/>
      <point x="476" y="0" type="line"/>
      <point x="411" y="165"/>
      <point x="320" y="294"/>
      <point x="258" y="361" type="curve"/>
      <point x="395" y="487"/>
      <point x="491" y="572"/>
      <point x="612" y="693" type="curve"/>
      <point x="510" y="693" type="line"/>
      <point x="417" y="595"/>
      <point x="317" y="505"/>
      <point x="183" y="386" type="curve"/>
      <point x="257" y="693" type="line"/>
      <point x="179" y="693" type="line"/>
    </contour>
  </outline>
</glyph>
<glyph name="L" format="2">
  <advance width="560"/>
  <unicode hex="004C"/>
  <anchor x="218" y="0" name="bottom"/>
  <anchor x="301" y="347" name="center"/>
  <anchor x="382" y="685" name="top"/>
  <anchor x="644" y="693" name="topright"/>
  <outline>
    <contour>
      <point x="21" y="0" type="line"/>
      <point x="404" y="0" type="line"/>
      <point x="420" y="67" type="line"/>
      <point x="116" y="67" type="line"/>
      <point x="267" y="693" type="line"/>
      <point x="188" y="693" type="line"/>
    </contour>
  </outline>
</glyph>
<glyph name="N" format="2">
  <advance width="560"/>
  <unicode hex="004E"/>
  <anchor x="218" y="0" name="bottom"/>
  <anchor x="382" y="685" name="top"/>
  <outline>
    <contour>
      <point x="8" y="0" type="line"/>
      <point x="80" y="0" type="line"/>
      <point x="218" y="583" type="line"/>
      <point x="267" y="424"/>
      <point x="309" y="277"/>
      <point x="353" y="0" type="curve"/>
      <point x="438" y="0" type="line"/>
      <point x="604" y="693" type="line"/>
      <point x="531" y="693" type="line"/>
      <point x="397" y="122" type="line"/>
      <point x="353" y="374"/>
      <point x="334" y="442"/>
      <point x="257" y="693" type="curve"/>
      <point x="175" y="693" type="line"/>
    </contour>
  </outline>
</glyph>
<glyph name="S" format="2">
  <advance width="560"/>
  <unicode hex="0053"/>
  <anchor x="218" y="0" name="bottom"/>
  <anchor x="382" y="685" name="top"/>
  <outline>
    <contour>
      <point x="215" y="-15" type="curve" smooth="yes"/>
      <point x="370" y="-15"/>
      <point x="480" y="56"/>
      <point x="480" y="202" type="curve" smooth="yes"/>
      <point x="480" y="305"/>
      <point x="421" y="340"/>
      <point x="345" y="381" type="curve" smooth="yes"/>
      <point x="279" y="418"/>
      <point x="235" y="440"/>
      <point x="235" y="513" type="curve" smooth="yes"/>
      <point x="235" y="601"/>
      <point x="303" y="638"/>
      <point x="394" y="638" type="curve" smooth="yes"/>
      <point x="459" y="638"/>
      <point x="510" y="623"/>
      <point x="530" y="604" type="curve"/>
      <point x="568" y="669" type="line"/>
      <point x="547" y="684"/>
      <point x="477" y="709"/>
      <point x="409" y="709" type="curve" smooth="yes"/>
      <point x="236" y="709"/>
      <point x="155" y="625"/>
      <point x="155" y="507" type="curve" smooth="yes"/>
      <point x="155" y="404"/>
      <point x="217" y="366"/>
      <point x="275" y="333" type="curve" smooth="yes"/>
      <point x="347" y="294"/>
      <point x="400" y="266"/>
      <point x="400" y="197" type="curve" smooth="yes"/>
      <point x="400" y="91"/>
      <point x="310" y="56"/>
      <point x="226" y="56" type="curve" smooth="yes"/>
      <point x="140" y="56"/>
      <point x="88" y="83"/>
      <point x="64" y="99" type="curve"/>
      <point x="26" y="32" type="line"/>
      <point x="49" y="15"/>
      <point x="118" y="-15"/>
    </contour>
  </outline>
</glyph>
<glyph name="X" format="2">
  <advance width="560"/>
  <unicode hex="0058"/>
  <anchor x="218" y="0" name="bottom"/>
  <anchor x="382" y="685" name="top"/>
  <outline>
    <contour>
      <point x="-30" y="0" type="line"/>
      <point x="66" y="0" type="line"/>
      <point x="315" y="298" type="line"/>
      <point x="353" y="199"/>
      <point x="383" y="101"/>
      <point x="405" y="0" type="curve"/>
      <point x="489" y="0" type="line"/>
      <point x="462" y="120"/>
      <point x="412" y="261"/>
      <point x="374" y="362" type="curve"/>
      <point x="461" y="464"/>
      <point x="563" y="586"/>
      <point x="638" y="693" type="curve"/>
      <point x="545" y="693" type="line"/>
      <point x="487" y="607"/>
      <point x="418" y="518"/>
      <point x="343" y="429" type="curve"/>
      <point x="253" y="693" type="line"/>
      <point x="164" y="693" type="line"/>
      <point x="280" y="367" type="line"/>
    </contour>
  </outline>
</glyph>
<glyph name="Y" format="2">
  <advance width="560"/>
  <unicode hex="0059"/>
  <anchor x="218" y="0" name="bottom"/>
  <anchor x="382" y="685" name="top"/>
  <anchor x="124" y="693" name="topleft"/>
  <outline>
    <contour>
      <point x="186" y="0" type="line"/>
      <point x="264" y="0" type="line"/>
      <point x="326" y="259" type="line"/>
      <point x="447" y="400"/>
      <point x="567" y="550"/>
      <point x="657" y="693" type="curve"/>
      <point x="571" y="693" type="line"/>
      <point x="500" y="581"/>
      <point x="400" y="444"/>
      <point x="298" y="312" type="curve"/>
      <point x="259" y="424"/>
      <point x="218" y="569"/>
      <point x="202" y="693" type="curve"/>
      <point x="125" y="693" type="line"/>
      <point x="145" y="550"/>
      <point x="189" y="406"/>
      <point x="247" y="257" type="curve"/>
    </contour>
  </outline>
</glyph>
<glyph name="backslash" format="2">
  <advance width="560"/>
  <unicode hex="005C"/>
  <outline>
    <contour>
      <point x="280" y="-185" type="line"/>
      <point x="363" y="-185" type="line"/>
      <point x="289" y="783" type="line"/>
      <point x="207" y="783" type="line"/>
    </contour>
  </outline>
</glyph>
<glyph name="grave" format="2">
  <advance width="560"/>
  <unicode hex="0060"/>
  <outline>
    <contour>
      <point x="389" y="571" type="line"/>
      <point x="438" y="606" type="line"/>
      <point x="326" y="774" type="line"/>
      <point x="258" y="731" type="line"/>
    </contour>
  </outline>
</glyph>
<glyph name="a" format="2">
  <advance width="560"/>
  <unicode hex="0061"/>
  <anchor x="218" y="0" name="bottom"/>
  <anchor x="444" y="10" name="ogonek"/>
  <anchor x="342" y="518" name="top"/>
  <outline>
    <contour>
      <point x="212" y="-12" type="curve" smooth="yes"/>
      <point x="281" y="-12"/>
      <point x="337" y="21"/>
      <point x="366" y="49" type="curve"/>
      <point x="371" y="26"/>
      <point x="375" y="11"/>
      <point x="382" y="-5" type="curve"/>
      <point x="452" y="5" type="line"/>
      <point x="441" y="40"/>
      <point x="436" y="66"/>
      <point x="436" y="93" type="curve" smooth="yes"/>
      <point x="436" y="126"/>
      <point x="442" y="152"/>
      <point x="450" y="185" type="curve" smooth="yes"/>
      <point x="529" y="506" type="line"/>
      <point x="502" y="523"/>
      <point x="441" y="529"/>
      <point x="413" y="529" type="curve" smooth="yes"/>
      <point x="151" y="529"/>
      <point x="40" y="339"/>
      <point x="40" y="168" type="curve" smooth="yes"/>
      <point x="40" y="68"/>
      <point x="90" y="-12"/>
    </contour>
    <contour>
      <point x="222" y="52" type="curve" smooth="yes"/>
      <point x="139" y="52"/>
      <point x="119" y="113"/>
      <point x="119" y="178" type="curve" smooth="yes"/>
      <point x="119" y="328"/>
      <point x="231" y="464"/>
      <point x="398" y="464" type="curve" smooth="yes"/>
      <point x="408" y="464"/>
      <point x="437" y="459"/>
      <point x="443" y="458" type="curve"/>
      <point x="376" y="199" type="line" smooth="yes"/>
      <point x="370" y="174"/>
      <point x="366" y="139"/>
      <point x="365" y="116" type="curve"/>
      <point x="334" y="82"/>
      <point x="282" y="52"/>
    </contour>
  </outline>
</glyph>
<glyph name="q" format="2">
  <advance width="560"/>
  <unicode hex="0071"/>
  <anchor x="218" y="0" name="bottom"/>
  <anchor x="342" y="518" name="top"/>
  <outline>
    <contour>
      <point x="293" y="-185" type="line"/>
      <point x="372" y="-185" type="line"/>
      <point x="545" y="506" type="line"/>
      <point x="522" y="521"/>
      <point x="453" y="529"/>
      <point x="423" y="529" type="curve" smooth="yes"/>
      <point x="161" y="529"/>
      <point x="51" y="338"/>
      <point x="51" y="168" type="curve" smooth="yes"/>
      <point x="51" y="65"/>
      <point x="101" y="-13"/>
      <point x="224" y="-13" type="curve" smooth="yes"/>
      <point x="270" y="-13"/>
      <point x="311" y="2"/>
      <point x="342" y="18" type="curve"/>
    </contour>
    <contour>
      <point x="240" y="52" type="curve" smooth="yes"/>
      <point x="142" y="52"/>
      <point x="131" y="124"/>
      <point x="131" y="178" type="curve" smooth="yes"/>
      <point x="131" y="328"/>
      <point x="238" y="464"/>
      <point x="405" y="464" type="curve" smooth="yes"/>
      <point x="417" y="464"/>
      <point x="433" y="460"/>
      <point x="450" y="458" type="curve"/>
      <point x="364" y="101" type="line"/>
      <point x="328" y="73"/>
      <point x="284" y="52"/>
    </contour>
  </outline>
</glyph>
<glyph name="s" format="2">
  <advance width="560"/>
  <unicode hex="0073"/>
  <anchor x="218" y="0" name="bottom"/>
  <anchor x="342" y="518" name="top"/>
  <outline>
    <contour>
      <point x="225" y="-12" type="curve" smooth="yes"/>
      <point x="349" y="-12"/>
      <point x="450" y="33"/>
      <point x="450" y="154" type="curve" smooth="yes"/>
      <point x="450" y="229"/>
      <point x="395" y="264"/>
      <point x="331" y="290" type="curve" smooth="yes"/>
      <point x="282" y="311"/>
      <point x="232" y="337"/>
      <point x="232" y="376" type="curve" smooth="yes"/>
      <point x="232" y="441"/>
      <point x="293" y="462"/>
      <point x="364" y="462" type="curve" smooth="yes"/>
      <point x="416" y="462"/>
      <point x="467" y="447"/>
      <point x="486" y="434" type="curve"/>
      <point x="516" y="503" type="line"/>
      <point x="494" y="515"/>
      <point x="444" y="530"/>
      <point x="377" y="530" type="curve" smooth="yes"/>
      <point x="239" y="530"/>
      <point x="156" y="467"/>
      <point x="156" y="369" type="curve" smooth="yes"/>
      <point x="156" y="291"/>
      <point x="219" y="267"/>
      <point x="272" y="238" type="curve" smooth="yes"/>
      <point x="331" y="209"/>
      <point x="375" y="187"/>
      <point x="375" y="141" type="curve" smooth="yes"/>
      <point x="375" y="71"/>
      <point x="294" y="54"/>
      <point x="232" y="54" type="curve" smooth="yes"/>
      <point x="165" y="54"/>
      <point x="111" y="80"/>
      <point x="89" y="95" type="curve"/>
      <point x="56" y="26" type="line"/>
      <point x="84" y="10"/>
      <point x="150" y="-12"/>
    </contour>
  </outline>
</glyph>
<glyph name="braceright" format="2">
  <advance width="560"/>
  <unicode hex="007D"/>
  <outline>
    <contour>
      <point x="-43" y="-185" type="line"/>
      <point x="43" y="-185" type="line" smooth="yes"/>
      <point x="191" y="-185"/>
      <point x="249" y="-141"/>
      <point x="280" y="-15" type="curve" smooth="yes"/>
      <point x="323" y="171" type="line" smooth="yes"/>
      <point x="333" y="215"/>
      <point x="375" y="268"/>
      <point x="440" y="268" type="curve" smooth="yes"/>
      <point x="482" y="268" type="line"/>
      <point x="498" y="330" type="line"/>
      <point x="455" y="330" type="line" smooth="yes"/>
      <point x="402" y="330"/>
      <point x="379" y="362"/>
      <point x="379" y="402" type="curve" smooth="yes"/>
      <point x="379" y="408"/>
      <point x="381" y="414"/>
      <point x="382" y="423" type="curve" smooth="yes"/>
      <point x="431" y="621" type="line" smooth="yes"/>
      <point x="434" y="643"/>
      <point x="437" y="662"/>
      <point x="437" y="678" type="curve" smooth="yes"/>
      <point x="437" y="754"/>
      <point x="387" y="783"/>
      <point x="287" y="783" type="curve" smooth="yes"/>
      <point x="191" y="783" type="line"/>
      <point x="174" y="721" type="line"/>
      <point x="266" y="721" type="line" smooth="yes"/>
      <point x="332" y="721"/>
      <point x="364" y="712"/>
      <point x="364" y="663" type="curve" smooth="yes"/>
      <point x="364" y="652"/>
      <point x="361" y="641"/>
      <point x="357" y="621" type="curve" smooth="yes"/>
      <point x="316" y="453" type="line" smooth="yes"/>
      <point x="311" y="430"/>
      <point x="306" y="407"/>
      <point x="306" y="383" type="curve" smooth="yes"/>
      <point x="306" y="351"/>
      <point x="317" y="324"/>
      <point x="338" y="299" type="curve"/>
      <point x="290" y="274"/>
      <point x="263" y="225"/>
      <point x="242" y="137" type="curve" smooth="yes"/>
      <point x="204" y="-20" type="line" smooth="yes"/>
      <point x="184" y="-110"/>
      <point x="140" y="-122"/>
      <point x="64" y="-122" type="curve" smooth="yes"/>
      <point x="-28" y="-122" type="line"/>
    </contour>
  </outline>
</glyph>
<glyph name="registered" format="2">
  <advance width="560"/>
  <unicode hex="00AE"/>
  <outline>
    <contour>
      <point x="345" y="286" type="curve" smooth="yes"/>
      <point x="470" y="286"/>
      <point x="582" y="376"/>
      <point x="582" y="530" type="curve"/>
      <point x="582" y="683"/>
      <point x="470" y="773"/>
      <point x="345" y="773" type="curve"/>
      <point x="221" y="773"/>
      <point x="109" y="683"/>
      <point x="109" y="530" type="curve" smooth="yes"/>
      <point x="109" y="377"/>
      <point x="221" y="286"/>
    </contour>
    <contour>
      <point x="345" y="339" type="curve" smooth="yes"/>
      <point x="241" y="339"/>
      <point x="167" y="416"/>
      <point x="167" y="530" type="curve"/>
      <point x="167" y="643"/>
      <point x="241" y="719"/>
      <point x="345" y="719" type="curve" smooth="yes"/>
      <point x="449" y="719"/>
      <point x="524" y="644"/>
      <point x="524" y="530" type="curve"/>
      <point x="524" y="415"/>
      <point x="449" y="339"/>
    </contour>
    <contour>
      <point x="254" y="408" type="line"/>
      <point x="309" y="408" type="line"/>
      <point x="309" y="497" type="line"/>
      <point x="335" y="497" type="line"/>
      <point x="339" y="497"/>
      <point x="344" y="497"/>
      <point x="348" y="497" type="curve"/>
      <point x="365" y="475"/>
      <point x="380" y="448"/>
      <point x="401" y="408" type="curve"/>
      <point x="459" y="408" type="line"/>
      <point x="440" y="449"/>
      <point x="417" y="488"/>
      <point x="400" y="511" type="curve"/>
      <point x="426" y="523"/>
      <point x="444" y="545"/>
      <point x="444" y="576" type="curve" smooth="yes"/>
      <point x="444" y="631"/>
      <point x="404" y="659"/>
      <point x="330" y="659" type="curve" smooth="yes"/>
      <point x="311" y="659"/>
      <point x="284" y="657"/>
      <point x="254" y="650" type="curve"/>
    </contour>
    <contour>
      <point x="309" y="541" type="line"/>
      <point x="309" y="610" type="line"/>
      <point x="317" y="611"/>
      <point x="322" y="612"/>
      <point x="335" y="612" type="curve" smooth="yes"/>
      <point x="363" y="612"/>
      <point x="387" y="604"/>
      <point x="387" y="577" type="curve" smooth="yes"/>
      <point x="387" y="549"/>
      <point x="366" y="541"/>
      <point x="329" y="541" type="curve" smooth="yes"/>
    </contour>
  </outline>
</glyph>
<glyph name="paragraph" format="2">
  <advance width="560"/>
  <unicode hex="00B6"/>
  <outline>
    <contour>
      <point x="147" y="-185" type="line"/>
      <point x="214" y="-185" type="line"/>
      <point x="411" y="633" type="line"/>
      <point x="417" y="634"/>
      <point x="426" y="634"/>
      <point x="432" y="634" type="curve" smooth="yes"/>
      <point x="463" y="634"/>
      <point x="487" y="633"/>
      <point x="503" y="628" type="curve"/>
      <point x="306" y="-185" type="line"/>
      <point x="373" y="-185" type="line"/>
      <point x="583" y="685" type="line"/>
      <point x="535" y="699"/>
      <point x="476" y="700"/>
      <point x="429" y="700" type="curve" smooth="yes"/>
      <point x="255" y="700"/>
      <point x="63" y="625"/>
      <point x="63" y="426" type="curve" smooth="yes"/>
      <point x="63" y="339"/>
      <point x="105" y="269"/>
      <point x="254" y="263" type="curve"/>
    </contour>
  </outline>
</glyph>
<glyph name="cedilla" format="2">
  <advance width="560"/>
  <unicode hex="00B8"/>
  <outline>
    <contour>
      <point x="166" y="-189" type="curve" smooth="yes"/>
      <point x="235" y="-189"/>
      <point x="277" y="-158"/>
      <point x="277" y="-100" type="curve" smooth="yes"/>
      <point x="277" y="-67"/>
      <point x="263" y="-55"/>
      <point x="237" y="-41" type="curve"/>
      <point x="253" y="-21"/>
      <point x="267" y="0"/>
      <point x="283" y="20" type="curve"/>
      <point x="227" y="20" type="line"/>
      <point x="218" y="10"/>
      <point x="177" y="-50"/>
      <point x="161" y="-75" type="curve"/>
      <point x="173" y="-78"/>
      <point x="200" y="-86"/>
      <point x="200" y="-109" type="curve" smooth="yes"/>
      <point x="200" y="-131"/>
      <point x="182" y="-134"/>
      <point x="163" y="-134" type="curve" smooth="yes"/>
      <point x="135" y="-134"/>
      <point x="120" y="-128"/>
      <point x="111" y="-124" type="curve"/>
      <point x="90" y="-176" type="line"/>
      <point x="104" y="-183"/>
      <point x="126" y="-189"/>
    </contour>
  </outline>
</glyph>
<glyph name="ordmasculine" format="2">
  <advance width="560"/>
  <unicode hex="00BA"/>
  <outline>
    <contour>
      <point x="293" y="335" type="curve" smooth="yes"/>
      <point x="461" y="335"/>
      <point x="514" y="486"/>
      <point x="514" y="585" type="curve" smooth="yes"/>
      <point x="514" y="664"/>
      <point x="465" y="709"/>
      <point x="392" y="709" type="curve" smooth="yes"/>
      <point x="225" y="709"/>
      <point x="170" y="558"/>
      <point x="170" y="458" type="curve" smooth="yes"/>
      <point x="170" y="379"/>
      <point x="221" y="335"/>
    </contour>
    <contour>
      <point x="308" y="388" type="curve" smooth="yes"/>
      <point x="255" y="388"/>
      <point x="237" y="423"/>
      <point x="237" y="465" type="curve" smooth="yes"/>
      <point x="237" y="542"/>
      <point x="285" y="655"/>
      <point x="378" y="655" type="curve" smooth="yes"/>
      <point x="431" y="655"/>
      <point x="448" y="621"/>
      <point x="448" y="580" type="curve" smooth="yes"/>
      <point x="448" y="502"/>
      <point x="399" y="388"/>
    </contour>
  </outline>
</glyph>
<glyph name="guillemetright" format="2">
  <advance width="560"/>
  <unicode hex="00BB"/>
  <outline>
    <contour>
      <point x="316" y="88" type="line"/>
      <point x="491" y="288" type="line"/>
      <point x="405" y="467" type="line"/>
      <point x="352" y="438" type="line"/>
      <point x="405" y="292" type="line"/>
      <point x="268" y="124" type="line"/>
    </contour>
    <contour>
      <point x="121" y="88" type="line"/>
      <point x="297" y="288" type="line"/>
      <point x="212" y="467" type="line"/>
      <point x="158" y="438" type="line"/>
      <point x="211" y="292" type="line"/>
      <point x="74" y="124" type="line"/>
    </contour>
  </outline>
</glyph>
<glyph name="onehalf" format="2">
  <advance width="560"/>
  <unicode hex="00BD"/>
  <outline>
    <contour>
      <point x="-19" y="0" type="line"/>
      <point x="60" y="0" type="line"/>
      <point x="608" y="693" type="line"/>
      <point x="527" y="693" type="line"/>
    </contour>
    <contour>
      <point x="267" y="0" type="curve"/>
      <point x="475" y="0" type="line"/>
      <point x="486" y="52" type="line"/>
      <point x="338" y="52" type="line"/>
      <point x="338" y="58"/>
      <point x="358" y="68"/>
      <point x="387" y="83" type="curve" smooth="yes"/>
      <point x="435" y="109"/>
      <point x="506" y="150"/>
      <point x="506" y="211" type="curve" smooth="yes"/>
      <point x="506" y="270"/>
      <point x="465" y="286"/>
      <point x="426" y="286" type="curve" smooth="yes"/>
      <point x="387" y="286"/>
      <point x="341" y="269"/>
      <point x="315" y="246" type="curve"/>
      <point x="340" y="206" type="line"/>
      <point x="357" y="223"/>
      <point x="389" y="233"/>
      <point x="414" y="233" type="curve" smooth="yes"/>
      <point x="435" y="233"/>
      <point x="452" y="226"/>
      <point x="452" y="202" type="curve" smooth="yes"/>
      <point x="452" y="178"/>
      <point x="434" y="162"/>
      <point x="357" y="118" type="curve" smooth="yes"/>
      <point x="291" y="82"/>
      <point x="282" y="63"/>
    </contour>
    <contour>
      <point x="170" y="421" type="line"/>
      <point x="227" y="421" type="line"/>
      <point x="295" y="701" type="line"/>
      <point x="258" y="701" type="line"/>
      <point x="214" y="668"/>
      <point x="177" y="651"/>
      <point x="121" y="629" type="curve"/>
      <point x="129" y="584" type="line"/>
      <point x="159" y="593"/>
      <point x="185" y="603"/>
      <point x="219" y="620" type="curve"/>
    </contour>
  </outline>
</glyph>
<glyph name="threequarters" format="2">
  <advance width="560"/>
  <unicode hex="00BE"/>
  <outline>
    <contour>
      <point x="-12" y="0" type="line"/>
      <point x="66" y="0" type="line"/>
      <point x="616" y="693" type="line"/>
      <point x="534" y="693" type="line"/>
    </contour>
    <contour>
      <point x="383" y="0" type="line"/>
      <point x="445" y="0" type="line"/>
      <point x="458" y="57" type="line"/>
      <point x="498" y="57" type="line"/>
      <point x="511" y="110" type="line"/>
      <point x="471" y="110" type="line"/>
      <point x="513" y="280" type="line"/>
      <point x="462" y="280" type="line"/>
      <point x="386" y="230"/>
      <point x="320" y="168"/>
      <point x="262" y="100" type="curve"/>
      <point x="251" y="57" type="line"/>
      <point x="397" y="57" type="line"/>
    </contour>
    <contour>
      <point x="332" y="110" type="line"/>
      <point x="367" y="152"/>
      <point x="383" y="167"/>
      <point x="433" y="206" type="curve"/>
      <point x="409" y="110" type="line"/>
    </contour>
    <contour>
      <point x="127" y="411" type="curve" smooth="yes"/>
      <point x="232" y="411"/>
      <point x="269" y="473"/>
      <point x="269" y="512" type="curve" smooth="yes"/>
      <point x="269" y="535"/>
      <point x="257" y="557"/>
      <point x="239" y="571" type="curve"/>
      <point x="273" y="588"/>
      <point x="290" y="619"/>
      <point x="290" y="643" type="curve" smooth="yes"/>
      <point x="290" y="697"/>
      <point x="247" y="709"/>
      <point x="211" y="709" type="curve" smooth="yes"/>
      <point x="175" y="709"/>
      <point x="134" y="697"/>
      <point x="112" y="685" type="curve"/>
      <point x="119" y="641" type="line"/>
      <point x="142" y="649"/>
      <point x="172" y="657"/>
      <point x="191" y="657" type="curve" smooth="yes"/>
      <point x="220" y="657"/>
      <point x="232" y="648"/>
      <point x="232" y="631" type="curve" smooth="yes"/>
      <point x="232" y="611"/>
      <point x="215" y="594"/>
      <point x="180" y="594" type="curve" smooth="yes"/>
      <point x="135" y="594" type="line"/>
      <point x="123" y="539" type="line"/>
      <point x="133" y="539" type="line" smooth="yes"/>
      <point x="186" y="539"/>
      <point x="216" y="534"/>
      <point x="216" y="510" type="curve" smooth="yes"/>
      <point x="216" y="477"/>
      <point x="185" y="463"/>
      <point x="141" y="463" type="curve" smooth="yes"/>
      <point x="111" y="463"/>
      <point x="88" y="470"/>
      <point x="74" y="477" type="curve"/>
      <point x="47" y="429" type="line"/>
      <point x="71" y="417"/>
      <point x="103" y="411"/>
    </contour>
  </outline>
</glyph>
<glyph name="Ccedilla" format="2">
  <advance width="560"/>
  <unicode hex="00C7"/>
  <outline>
    <contour>
      <point x="193" y="-189" type="curve" smooth="yes"/>
      <point x="262" y="-189"/>
      <point x="304" y="-158"/>
      <point x="304" y="-100" type="curve" smooth="yes"/>
      <point x="304" y="-67"/>
      <point x="290" y="-55"/>
      <point x="265" y="-41" type="curve"/>
      <point x="271" y="-32"/>
      <point x="278" y="-23"/>
      <point x="284" y="-16" type="curve"/>
      <point x="373" y="-11"/>
      <point x="440" y="17"/>
      <point x="453" y="28" type="curve"/>
      <point x="443" y="97" type="line"/>
      <point x="419" y="82"/>
      <point x="355" y="55"/>
      <point x="284" y="55" type="curve" smooth="yes"/>
      <point x="193" y="55"/>
      <point x="138" y="124"/>
      <point x="138" y="240" type="curve" smooth="yes"/>
      <point x="138" y="441"/>
      <point x="250" y="638"/>
      <point x="430" y="638" type="curve" smooth="yes"/>
      <point x="480" y="638"/>
      <point x="536" y="617"/>
      <point x="561" y="595" type="curve"/>
      <point x="603" y="658" type="line"/>
      <point x="575" y="681"/>
      <point x="521" y="709"/>
      <point x="435" y="709" type="curve" smooth="yes"/>
      <point x="207" y="709"/>
      <point x="58" y="465"/>
      <point x="58" y="225" type="curve" smooth="yes"/>
      <point x="58" y="93"/>
      <point x="128" y="5"/>
      <point x="231" y="-11" type="curve"/>
      <point x="215" y="-33"/>
      <point x="198" y="-60"/>
      <point x="189" y="-75" type="curve"/>
      <point x="201" y="-78"/>
      <point x="227" y="-86"/>
      <point x="227" y="-109" type="curve" smooth="yes"/>
      <point x="227" y="-131"/>
      <point x="209" y="-134"/>
      <point x="190" y="-134" type="curve" smooth="yes"/>
      <point x="162" y="-134"/>
      <point x="147" y="-128"/>
      <point x="138" y="-124" type="curve"/>
      <point x="118" y="-176" type="line"/>
      <point x="132" y="-183"/>
      <point x="153" y="-189"/>
    </contour>
  </outline>
</glyph>
<glyph name="Eth" format="2">
  <advance width="560"/>
  <unicode hex="00D0"/>
  <outline>
    <contour>
      <point x="166" y="-5" type="curve" smooth="yes"/>
      <point x="424" y="-5"/>
      <point x="541" y="217"/>
      <point x="541" y="453" type="curve" smooth="yes"/>
      <point x="541" y="608"/>
      <point x="462" y="700"/>
      <point x="330" y="700" type="curve" smooth="yes"/>
      <point x="288" y="700"/>
      <point x="245" y="693"/>
      <point x="203" y="683" type="curve"/>
      <point x="134" y="394" type="line"/>
      <point x="51" y="394" type="line"/>
      <point x="34" y="331" type="line"/>
      <point x="118" y="331" type="line"/>
      <point x="43" y="11" type="line"/>
      <point x="79" y="0"/>
      <point x="126" y="-5"/>
    </contour>
    <contour>
      <point x="183" y="63" type="curve" smooth="yes"/>
      <point x="167" y="63"/>
      <point x="146" y="66"/>
      <point x="136" y="70" type="curve"/>
      <point x="198" y="331" type="line"/>
      <point x="293" y="331" type="line"/>
      <point x="310" y="394" type="line"/>
      <point x="213" y="394" type="line"/>
      <point x="269" y="628" type="line"/>
      <point x="282" y="630"/>
      <point x="298" y="632"/>
      <point x="314" y="632" type="curve" smooth="yes"/>
      <point x="411" y="632"/>
      <point x="461" y="566"/>
      <point x="461" y="441" type="curve" smooth="yes"/>
      <point x="461" y="200"/>
      <point x="331" y="63"/>
    </contour>
  </outline>
</glyph>
<glyph name="multiply" format="2">
  <advance width="560"/>
  <unicode hex="00D7"/>
  <outline>
    <contour>
      <point x="100" y="97" type="line"/>
      <point x="284" y="247" type="line"/>
      <point x="395" y="101" type="line"/>
      <point x="446" y="145" type="line"/>
      <point x="337" y="290" type="line"/>
      <point x="521" y="438" type="line"/>
      <point x="479" y="490" type="line"/>
      <point x="298" y="343" type="line"/>
      <point x="190" y="486" type="line"/>
      <point x="137" y="444" type="line"/>
      <point x="246" y="299" type="line"/>
      <point x="62" y="149" type="line"/>
    </contour>
  </outline>
</glyph>
<glyph name="ccedilla" format="2">
  <advance width="560"/>
  <unicode hex="00E7"/>
  <outline>
    <contour>
      <point x="161" y="-189" type="curve" smooth="yes"/>
      <point x="229" y="-189"/>
      <point x="272" y="-158"/>
      <point x="272" y="-100" type="curve" smooth="yes"/>
      <point x="272" y="-67"/>
      <point x="257" y="-55"/>
      <point x="232" y="-41" type="curve"/>
      <point x="252" y="-14" type="line"/>
      <point x="343" y="-14"/>
      <point x="414" y="7"/>
      <point x="439" y="24" type="curve"/>
      <point x="433" y="93" type="line"/>
      <point x="413" y="78"/>
      <point x="347" y="55"/>
      <point x="279" y="55" type="curve" smooth="yes"/>
      <point x="148" y="55"/>
      <point x="114" y="120"/>
      <point x="114" y="191" type="curve" smooth="yes"/>
      <point x="114" y="323"/>
      <point x="208" y="466"/>
      <point x="372" y="466" type="curve" smooth="yes"/>
      <point x="439" y="466"/>
      <point x="468" y="452"/>
      <point x="494" y="439" type="curve"/>
      <point x="523" y="507" type="line"/>
      <point x="483" y="525"/>
      <point x="437" y="531"/>
      <point x="382" y="531" type="curve" smooth="yes"/>
      <point x="154" y="531"/>
      <point x="36" y="359"/>
      <point x="36" y="181" type="curve" smooth="yes"/>
      <point x="36" y="82"/>
      <point x="95" y="13"/>
      <point x="201" y="-8" type="curve"/>
      <point x="186" y="-30"/>
      <point x="165" y="-59"/>
      <point x="156" y="-75" type="curve"/>
      <point x="167" y="-78"/>
      <point x="194" y="-86"/>
      <point x="194" y="-109" type="curve" smooth="yes"/>
      <point x="194" y="-131"/>
      <point x="176" y="-134"/>
      <point x="158" y="-134" type="curve" smooth="yes"/>
      <point x="130" y="-134"/>
      <point x="115" y="-128"/>
      <point x="106" y="-124" type="curve"/>
      <point x="85" y="-176" type="line"/>
      <point x="98" y="-183"/>
      <point x="121" y="-189"/>
    </contour>
  </outline>
</glyph>
<glyph name="eth" format="2">
  <advance width="560"/>
  <unicode hex="00F0"/>
  <anchor x="218" y="0" name="bottom"/>
  <anchor x="404" y="776" name="top"/>
  <outline>
    <contour>
      <point x="222" y="-12" type="curve" smooth="yes"/>
      <point x="491" y="-12"/>
      <point x="515" y="334"/>
      <point x="515" y="424" type="curve" smooth="yes"/>
      <point x="515" y="507"/>
      <point x="498" y="574"/>
      <point x="474" y="627" type="curve"/>
      <point x="584" y="662" type="line"/>
      <point x="578" y="719" type="line"/>
      <point x="445" y="676" type="line"/>
      <point x="415" y="728"/>
      <point x="383" y="759"/>
      <point x="362" y="776" type="curve"/>
      <point x="299" y="734" type="line"/>
      <point x="327" y="707"/>
      <point x="349" y="691"/>
      <point x="371" y="654" type="curve"/>
      <point x="254" y="616" type="line"/>
      <point x="262" y="559" type="line"/>
      <point x="397" y="601" type="line"/>
      <point x="418" y="555"/>
      <point x="428" y="511"/>
      <point x="432" y="465" type="curve"/>
      <point x="410" y="480"/>
      <point x="375" y="497"/>
      <point x="331" y="497" type="curve" smooth="yes"/>
      <point x="149" y="497"/>
      <point x="54" y="361"/>
      <point x="54" y="176" type="curve" smooth="yes"/>
      <point x="54" y="70"/>
      <point x="133" y="-12"/>
    </contour>
    <contour>
      <point x="235" y="53" type="curve" smooth="yes"/>
      <point x="172" y="53"/>
      <point x="134" y="103"/>
      <point x="134" y="174" type="curve" smooth="yes"/>
      <point x="134" y="338"/>
      <point x="202" y="427"/>
      <point x="323" y="427" type="curve" smooth="yes"/>
      <point x="361" y="427"/>
      <point x="401" y="413"/>
      <point x="436" y="382" type="curve"/>
      <point x="425" y="214"/>
      <point x="356" y="53"/>
    </contour>
  </outline>
</glyph>
<glyph name="aogonek" format="2">
  <advance width="560"/>
  <unicode hex="0105"/>
  <outline>
    <contour>
      <point x="369" y="-186" type="curve" smooth="yes"/>
      <point x="387" y="-186"/>
      <point x="402" y="-183"/>
      <point x="415" y="-176" type="curve"/>
      <point x="422" y="-120" type="line"/>
      <point x="409" y="-124"/>
      <point x="397" y="-126"/>
      <point x="386" y="-126" type="curve" smooth="yes"/>
      <point x="356" y="-126"/>
      <point x="346" y="-116"/>
      <point x="346" y="-102" type="curve" smooth="yes"/>
      <point x="346" y="-72"/>
      <point x="387" y="-37"/>
      <point x="452" y="5" type="curve"/>
      <point x="441" y="40"/>
      <point x="436" y="66"/>
      <point x="436" y="93" type="curve" smooth="yes"/>
      <point x="436" y="126"/>
      <point x="442" y="152"/>
      <point x="450" y="185" type="curve" smooth="yes"/>
      <point x="529" y="506" type="line"/>
      <point x="502" y="523"/>
      <point x="441" y="529"/>
      <point x="413" y="529" type="curve" smooth="yes"/>
      <point x="151" y="529"/>
      <point x="40" y="339"/>
      <point x="40" y="168" type="curve" smooth="yes"/>
      <point x="40" y="68"/>
      <point x="90" y="-12"/>
      <point x="212" y="-12" type="curve" smooth="yes"/>
      <point x="281" y="-12"/>
      <point x="337" y="21"/>
      <point x="366" y="49" type="curve"/>
      <point x="370" y="31"/>
      <point x="373" y="19"/>
      <point x="378" y="7" type="curve"/>
      <point x="351" y="-10"/>
      <point x="272" y="-61"/>
      <point x="272" y="-122" type="curve" smooth="yes"/>
      <point x="272" y="-161"/>
      <point x="297" y="-186"/>
    </contour>
    <contour>
      <point x="222" y="52" type="curve" smooth="yes"/>
      <point x="139" y="52"/>
      <point x="119" y="113"/>
      <point x="119" y="178" type="curve" smooth="yes"/>
      <point x="119" y="328"/>
      <point x="231" y="464"/>
      <point x="398" y="464" type="curve" smooth="yes"/>
      <point x="408" y="464"/>
      <point x="437" y="459"/>
      <point x="443" y="458" type="curve"/>
      <point x="376" y="199" type="line" smooth="yes"/>
      <point x="370" y="174"/>
      <point x="366" y="139"/>
      <point x="365" y="116" type="curve"/>
      <point x="334" y="82"/>
      <point x="282" y="52"/>
    </contour>
  </outline>
</glyph>
<glyph name="dcaron" format="2">
  <advance width="560"/>
  <unicode hex="010F"/>
  <outline>
    <contour>
      <point x="159" y="-12" type="curve" smooth="yes"/>
      <point x="233" y="-12"/>
      <point x="272" y="21"/>
      <point x="299" y="49" type="curve"/>
      <point x="303" y="24"/>
      <point x="307" y="10"/>
      <point x="314" y="-5" type="curve"/>
      <point x="385" y="5" type="line"/>
      <point x="372" y="40"/>
      <point x="370" y="66"/>
      <point x="370" y="93" type="curve" smooth="yes"/>
      <point x="370" y="126"/>
      <point x="375" y="152"/>
      <point x="382" y="185" type="curve" smooth="yes"/>
      <point x="525" y="776" type="line"/>
      <point x="445" y="762" type="line"/>
      <point x="388" y="529" type="line"/>
      <point x="378" y="529"/>
      <point x="361" y="530"/>
      <point x="351" y="530" type="curve" smooth="yes"/>
      <point x="116" y="530"/>
      <point x="17" y="327"/>
      <point x="17" y="152" type="curve" smooth="yes"/>
      <point x="17" y="80"/>
      <point x="60" y="-12"/>
    </contour>
    <contour>
      <point x="171" y="52" type="curve" smooth="yes"/>
      <point x="111" y="52"/>
      <point x="95" y="122"/>
      <point x="95" y="161" type="curve" smooth="yes"/>
      <point x="95" y="317"/>
      <point x="191" y="464"/>
      <point x="341" y="464" type="curve" smooth="yes"/>
      <point x="349" y="464"/>
      <point x="371" y="459"/>
      <point x="374" y="458" type="curve"/>
      <point x="309" y="199" type="line" smooth="yes"/>
      <point x="303" y="174"/>
      <point x="299" y="139"/>
      <point x="298" y="116" type="curve"/>
      <point x="271" y="82"/>
      <point x="227" y="52"/>
    </contour>
    <contour>
      <point x="544" y="561" type="line"/>
      <point x="597" y="561" type="line"/>
      <point x="676" y="776" type="line"/>
      <point x="597" y="776" type="line"/>
    </contour>
  </outline>
</glyph>
<glyph name="Hbar" format="2">
  <advance width="560"/>
  <unicode hex="0126"/>
  <outline>
    <contour>
      <point x="33" y="0" type="line"/>
      <point x="108" y="0" type="line"/>
      <point x="187" y="328" type="line"/>
      <point x="405" y="328" type="line"/>
      <point x="326" y="0" type="line"/>
      <point x="404" y="0" type="line"/>
      <point x="532" y="529" type="line"/>
      <point x="607" y="529" type="line"/>
      <point x="621" y="588" type="line"/>
      <point x="546" y="588" type="line"/>
      <point x="571" y="693" type="line"/>
      <point x="493" y="693" type="line"/>
      <point x="469" y="588" type="line"/>
      <point x="250" y="588" type="line"/>
      <point x="275" y="693" type="line"/>
      <point x="197" y="693" type="line"/>
      <point x="172" y="588" type="line"/>
      <point x="96" y="588" type="line"/>
      <point x="81" y="529" type="line"/>
      <point x="158" y="529" type="line"/>
    </contour>
    <contour>
      <point x="204" y="395" type="line"/>
      <point x="236" y="529" type="line"/>
      <point x="453" y="529" type="line"/>
      <point x="422" y="395" type="line"/>
    </contour>
  </outline>
</glyph>
<glyph name="Iogonek" format="2">
  <advance width="560"/>
  <unicode hex="012E"/>
  <outline>
    <contour>
      <point x="176" y="-186" type="curve" smooth="yes"/>
      <point x="196" y="-186"/>
      <point x="211" y="-183"/>
      <point x="221" y="-176" type="curve"/>
      <point x="229" y="-120" type="line"/>
      <point x="218" y="-124"/>
      <point x="205" y="-126"/>
      <point x="195" y="-126" type="curve" smooth="yes"/>
      <point x="165" y="-126"/>
      <point x="154" y="-116"/>
      <point x="154" y="-102" type="curve" smooth="yes"/>
      <point x="154" y="-70"/>
      <point x="191" y="-43"/>
      <point x="254" y="0" type="curve"/>
      <point x="385" y="0" type="line"/>
      <point x="402" y="67" type="line"/>
      <point x="272" y="67" type="line"/>
      <point x="408" y="626" type="line"/>
      <point x="536" y="626" type="line"/>
      <point x="552" y="693" type="line"/>
      <point x="216" y="693" type="line"/>
      <point x="200" y="626" type="line"/>
      <point x="328" y="626" type="line"/>
      <point x="194" y="67" type="line"/>
      <point x="67" y="67" type="line"/>
      <point x="50" y="0" type="line"/>
      <point x="171" y="0" type="line"/>
      <point x="152" y="-14"/>
      <point x="79" y="-68"/>
      <point x="79" y="-122" type="curve" smooth="yes"/>
      <point x="79" y="-161"/>
      <point x="104" y="-186"/>
    </contour>
  </outline>
</glyph>
<glyph name="IJ" format="2">
  <advance width="560"/>
  <unicode hex="0132"/>
  <outline>
    <contour>
      <point x="269" y="-15" type="curve" smooth="yes"/>
      <point x="394" y="-15"/>
      <point x="464" y="33"/>
      <point x="501" y="180" type="curve" smooth="yes"/>
      <point x="626" y="693" type="line"/>
      <point x="543" y="693" type="line"/>
      <point x="420" y="182" type="line" smooth="yes"/>
      <point x="400" y="96"/>
      <point x="353" y="56"/>
      <point x="295" y="56" type="curve" smooth="yes"/>
      <point x="238" y="56"/>
      <point x="213" y="80"/>
      <point x="194" y="109" type="curve"/>
      <point x="140" y="38" type="line"/>
      <point x="174" y="0"/>
      <point x="222" y="-15"/>
    </contour>
    <contour>
      <point x="-15" y="0" type="line"/>
      <point x="63" y="0" type="line"/>
      <point x="229" y="693" type="line"/>
      <point x="148" y="693" type="line"/>
    </contour>
  </outline>
</glyph>
<glyph name="Lslash" format="2">
  <advance width="560"/>
  <unicode hex="0141"/>
  <outline>
    <contour>
      <point x="26" y="0" type="line"/>
      <point x="402" y="0" type="line"/>
      <point x="420" y="67" type="line"/>
      <point x="121" y="67" type="line"/>
      <point x="181" y="317" type="line"/>
      <point x="351" y="398" type="line"/>
      <point x="338" y="458" type="line"/>
      <point x="198" y="391" type="line"/>
      <point x="271" y="693" type="line"/>
      <point x="193" y="693" type="line"/>
      <point x="112" y="360" type="line"/>
      <point x="7" y="310" type="line"/>
      <point x="21" y="250" type="line"/>
      <point x="94" y="285" type="line"/>
    </contour>
  </outline>
</glyph>
<glyph name="tcedilla" format="2">
  <advance width="560"/>
  <unicode hex="0163"/>
  <outline>
    <contour>
      <point x="196" y="-189" type="curve" smooth="yes"/>
      <point x="265" y="-189"/>
      <point x="307" y="-158"/>
      <point x="307" y="-100" type="curve" smooth="yes"/>
      <point x="307" y="-67"/>
      <point x="293" y="-55"/>
      <point x="267" y="-41" type="curve"/>
      <point x="288" y="-13" type="line"/>
      <point x="342" y="-12"/>
      <point x="387" y="-1"/>
      <point x="430" y="14" type="curve"/>
      <point x="432" y="82" type="line"/>
      <point x="393" y="69"/>
      <point x="348" y="56"/>
      <point x="300" y="56" type="curve" smooth="yes"/>
      <point x="249" y="56"/>
      <point x="225" y="72"/>
      <point x="225" y="132" type="curve" smooth="yes"/>
      <point x="225" y="160"/>
      <point x="235" y="193"/>
      <point x="243" y="224" type="curve" smooth="yes"/>
      <point x="297" y="451" type="line"/>
      <point x="497" y="451" type="line"/>
      <point x="512" y="518" type="line"/>
      <point x="314" y="518" type="line"/>
      <point x="353" y="681" type="line"/>
      <point x="272" y="667" type="line"/>
      <point x="235" y="518" type="line"/>
      <point x="122" y="518" type="line"/>
      <point x="107" y="451" type="line"/>
      <point x="219" y="451" type="line"/>
      <point x="164" y="232" type="line" smooth="yes"/>
      <point x="155" y="194"/>
      <point x="149" y="153"/>
      <point x="149" y="117" type="curve" smooth="yes"/>
      <point x="149" y="39"/>
      <point x="187" y="6"/>
      <point x="238" y="-7" type="curve"/>
      <point x="221" y="-29"/>
      <point x="201" y="-59"/>
      <point x="193" y="-75" type="curve"/>
      <point x="204" y="-78"/>
      <point x="230" y="-86"/>
      <point x="230" y="-109" type="curve" smooth="yes"/>
      <point x="230" y="-131"/>
      <point x="211" y="-134"/>
      <point x="193" y="-134" type="curve" smooth="yes"/>
      <point x="165" y="-134"/>
      <point x="150" y="-128"/>
      <point x="141" y="-124" type="curve"/>
      <point x="121" y="-176" type="line"/>
      <point x="134" y="-183"/>
      <point x="156" y="-189"/>
    </contour>
  </outline>
</glyph>
<glyph name="Tbar" format="2">
  <advance width="560"/>
  <unicode hex="0166"/>
  <outline>
    <contour>
      <point x="176" y="0" type="line"/>
      <point x="255" y="0" type="line"/>
      <point x="334" y="333" type="line"/>
      <point x="438" y="333" type="line"/>
      <point x="453" y="398" type="line"/>
      <point x="351" y="398" type="line"/>
      <point x="405" y="626" type="line"/>
      <point x="597" y="626" type="line"/>
      <point x="614" y="693" type="line"/>
      <point x="152" y="693" type="line"/>
      <point x="136" y="626" type="line"/>
      <point x="328" y="626" type="line"/>
      <point x="271" y="398" type="line"/>
      <point x="173" y="398" type="line"/>
      <point x="157" y="333" type="line"/>
      <point x="256" y="333" type="line"/>
    </contour>
  </outline>
</glyph>
<glyph name="tbar" format="2">
  <advance width="560"/>
  <unicode hex="0167"/>
  <outline>
    <contour>
      <point x="306" y="-12" type="curve" smooth="yes"/>
      <point x="358" y="-12"/>
      <point x="401" y="0"/>
      <point x="443" y="14" type="curve"/>
      <point x="446" y="82" type="line"/>
      <point x="407" y="69"/>
      <point x="362" y="56"/>
      <point x="314" y="56" type="curve" smooth="yes"/>
      <point x="263" y="56"/>
      <point x="239" y="72"/>
      <point x="239" y="132" type="curve" smooth="yes"/>
      <point x="239" y="160"/>
      <point x="247" y="193"/>
      <point x="256" y="224" type="curve" smooth="yes"/>
      <point x="259" y="238" type="line"/>
      <point x="454" y="238" type="line"/>
      <point x="470" y="302" type="line"/>
      <point x="275" y="302" type="line"/>
      <point x="310" y="451" type="line"/>
      <point x="511" y="451" type="line"/>
      <point x="527" y="518" type="line"/>
      <point x="326" y="518" type="line"/>
      <point x="366" y="681" type="line"/>
      <point x="284" y="667" type="line"/>
      <point x="248" y="518" type="line"/>
      <point x="136" y="518" type="line"/>
      <point x="120" y="451" type="line"/>
      <point x="232" y="451" type="line"/>
      <point x="195" y="302" type="line"/>
      <point x="85" y="302" type="line"/>
      <point x="69" y="238" type="line"/>
      <point x="180" y="238" type="line"/>
      <point x="178" y="232" type="line" smooth="yes"/>
      <point x="168" y="194"/>
      <point x="162" y="153"/>
      <point x="162" y="117" type="curve" smooth="yes"/>
      <point x="162" y="12"/>
      <point x="231" y="-12"/>
    </contour>
  </outline>
</glyph>
<glyph name="uogonek" format="2">
  <advance width="560"/>
  <unicode hex="0173"/>
  <outline>
    <contour>
      <point x="372" y="-186" type="curve" smooth="yes"/>
      <point x="390" y="-186"/>
      <point x="405" y="-183"/>
      <point x="417" y="-176" type="curve"/>
      <point x="425" y="-120" type="line"/>
      <point x="412" y="-124"/>
      <point x="400" y="-126"/>
      <point x="389" y="-126" type="curve" smooth="yes"/>
      <point x="361" y="-126"/>
      <point x="349" y="-116"/>
      <point x="349" y="-102" type="curve" smooth="yes"/>
      <point x="349" y="-71"/>
      <point x="381" y="-48"/>
      <point x="455" y="5" type="curve"/>
      <point x="442" y="40"/>
      <point x="439" y="65"/>
      <point x="439" y="92" type="curve" smooth="yes"/>
      <point x="439" y="124"/>
      <point x="444" y="152"/>
      <point x="452" y="185" type="curve" smooth="yes"/>
      <point x="532" y="518" type="line"/>
      <point x="454" y="518" type="line"/>
      <point x="376" y="194" type="line" smooth="yes"/>
      <point x="368" y="167"/>
      <point x="367" y="143"/>
      <point x="366" y="122" type="curve"/>
      <point x="336" y="87"/>
      <point x="283" y="55"/>
      <point x="221" y="55" type="curve" smooth="yes"/>
      <point x="148" y="55"/>
      <point x="133" y="105"/>
      <point x="133" y="156" type="curve" smooth="yes"/>
      <point x="133" y="201"/>
      <point x="146" y="247"/>
      <point x="153" y="273" type="curve" smooth="yes"/>
      <point x="212" y="518" type="line"/>
      <point x="132" y="518" type="line"/>
      <point x="69" y="250" type="line" smooth="yes"/>
      <point x="62" y="219"/>
      <point x="55" y="187"/>
      <point x="55" y="152" type="curve" smooth="yes"/>
      <point x="55" y="63"/>
      <point x="93" y="-11"/>
      <point x="207" y="-11" type="curve" smooth="yes"/>
      <point x="288" y="-11"/>
      <point x="339" y="23"/>
      <point x="368" y="52" type="curve"/>
      <point x="372" y="34"/>
      <point x="375" y="21"/>
      <point x="379" y="9" type="curve"/>
      <point x="364" y="0"/>
      <point x="275" y="-61"/>
      <point x="275" y="-122" type="curve" smooth="yes"/>
      <point x="275" y="-161"/>
      <point x="300" y="-186"/>
    </contour>
  </outline>
</glyph>
<glyph name="bstroke" format="2">
  <advance width="560"/>
  <unicode hex="0180"/>
  <outline>
    <contour>
      <point x="162" y="-10" type="curve" smooth="yes"/>
      <point x="422" y="-10"/>
      <point x="536" y="175"/>
      <point x="536" y="352" type="curve" smooth="yes"/>
      <point x="536" y="446"/>
      <point x="481" y="532"/>
      <point x="358" y="532" type="curve" smooth="yes"/>
      <point x="311" y="532"/>
      <point x="269" y="518"/>
      <point x="238" y="498" type="curve"/>
      <point x="267" y="619" type="line"/>
      <point x="446" y="619" type="line"/>
      <point x="462" y="681" type="line"/>
      <point x="282" y="681" type="line"/>
      <point x="304" y="776" type="line"/>
      <point x="222" y="762" type="line"/>
      <point x="202" y="681" type="line"/>
      <point x="124" y="681" type="line"/>
      <point x="110" y="619" type="line"/>
      <point x="187" y="619" type="line"/>
      <point x="43" y="20" type="line"/>
      <point x="73" y="-2"/>
      <point x="128" y="-10"/>
    </contour>
    <contour>
      <point x="183" y="59" type="curve" smooth="yes"/>
      <point x="165" y="59"/>
      <point x="143" y="62"/>
      <point x="131" y="65" type="curve"/>
      <point x="216" y="421" type="line"/>
      <point x="255" y="449"/>
      <point x="300" y="465"/>
      <point x="343" y="465" type="curve" smooth="yes"/>
      <point x="435" y="465"/>
      <point x="456" y="399"/>
      <point x="456" y="342" type="curve" smooth="yes"/>
      <point x="456" y="198"/>
      <point x="350" y="59"/>
    </contour>
  </outline>
</glyph>
<glyph name="dtopbar" format="2">
  <advance width="560"/>
  <unicode hex="018C"/>
  <anchor x="218" y="0" name="bottom"/>
  <anchor x="342" y="518" name="top"/>
  <outline>
    <contour>
      <point x="228" y="-12" type="curve" smooth="yes"/>
      <point x="296" y="-12"/>
      <point x="352" y="19"/>
      <point x="382" y="48" type="curve"/>
      <point x="386" y="23"/>
      <point x="390" y="9"/>
      <point x="396" y="-5" type="curve"/>
      <point x="467" y="5" type="line"/>
      <point x="454" y="40"/>
      <point x="450" y="66"/>
      <point x="450" y="93" type="curve" smooth="yes"/>
      <point x="450" y="126"/>
      <point x="457" y="152"/>
      <point x="465" y="185" type="curve" smooth="yes"/>
      <point x="607" y="773" type="line"/>
      <point x="259" y="773" type="line"/>
      <point x="243" y="704" type="line"/>
      <point x="512" y="704" type="line"/>
      <point x="471" y="529" type="line"/>
      <point x="455" y="529"/>
      <point x="440" y="530"/>
      <point x="426" y="530" type="curve" smooth="yes"/>
      <point x="167" y="530"/>
      <point x="55" y="340"/>
      <point x="55" y="168" type="curve" smooth="yes"/>
      <point x="55" y="65"/>
      <point x="105" y="-12"/>
    </contour>
    <contour>
      <point x="238" y="52" type="curve" smooth="yes"/>
      <point x="157" y="52"/>
      <point x="134" y="108"/>
      <point x="134" y="178" type="curve" smooth="yes"/>
      <point x="134" y="328"/>
      <point x="242" y="464"/>
      <point x="412" y="464" type="curve" smooth="yes"/>
      <point x="425" y="464"/>
      <point x="445" y="460"/>
      <point x="456" y="458" type="curve"/>
      <point x="389" y="194" type="line" smooth="yes"/>
      <point x="382" y="164"/>
      <point x="380" y="135"/>
      <point x="380" y="116" type="curve"/>
      <point x="349" y="83"/>
      <point x="297" y="52"/>
    </contour>
  </outline>
</glyph>
<glyph name="Schwa" format="2">
  <advance width="560"/>
  <unicode hex="018F"/>
  <anchor x="218" y="0" name="bottom"/>
  <anchor x="382" y="685" name="top"/>
  <outline>
    <contour>
      <point x="224" y="-15" type="curve" smooth="yes"/>
      <point x="441" y="-15"/>
      <point x="557" y="232"/>
      <point x="557" y="442" type="curve" smooth="yes"/>
      <point x="557" y="580"/>
      <point x="502" y="709"/>
      <point x="351" y="709" type="curve" smooth="yes"/>
      <point x="252" y="709"/>
      <point x="178" y="672"/>
      <point x="170" y="662" type="curve"/>
      <point x="175" y="596" type="line"/>
      <point x="196" y="610"/>
      <point x="256" y="644"/>
      <point x="341" y="644" type="curve" smooth="yes"/>
      <point x="444" y="644"/>
      <point x="479" y="544"/>
      <point x="479" y="438" type="curve" smooth="yes"/>
      <point x="479" y="413"/>
      <point x="476" y="390"/>
      <point x="472" y="365" type="curve"/>
      <point x="78" y="365" type="line"/>
      <point x="55" y="303"/>
      <point x="44" y="231"/>
      <point x="44" y="200" type="curve" smooth="yes"/>
      <point x="44" y="46"/>
      <point x="128" y="-15"/>
    </contour>
    <contour>
      <point x="233" y="53" type="curve" smooth="yes"/>
      <point x="170" y="53"/>
      <point x="123" y="106"/>
      <point x="123" y="199" type="curve" smooth="yes"/>
      <point x="123" y="233"/>
      <point x="132" y="266"/>
      <point x="140" y="296" type="curve"/>
      <point x="458" y="296" type="line"/>
      <point x="420" y="167"/>
      <point x="357" y="53"/>
    </contour>
  </outline>
</glyph>
<glyph name="Gamma-latin" format="2">
  <advance width="560"/>
  <unicode hex="0194"/>
  <anchor x="218" y="0" name="bottom"/>
  <anchor x="382" y="685" name="top"/>
  <outline>
    <contour>
      <point x="196" y="-184" type="curve" smooth="yes"/>
      <point x="306" y="-184"/>
      <point x="357" y="-105"/>
      <point x="357" y="-35" type="curve" smooth="yes"/>
      <point x="357" y="-7"/>
      <point x="346" y="81"/>
      <point x="308" y="168" type="curve"/>
      <point x="396" y="291"/>
      <point x="555" y="543"/>
      <point x="643" y="693" type="curve"/>
      <point x="556" y="693" type="line"/>
      <point x="470" y="540"/>
      <point x="363" y="369"/>
      <point x="279" y="248" type="curve"/>
      <point x="246" y="395"/>
      <point x="219" y="564"/>
      <point x="203" y="693" type="curve"/>
      <point x="118" y="693" type="line"/>
      <point x="127" y="588"/>
      <point x="178" y="358"/>
      <point x="226" y="170" type="curve"/>
      <point x="132" y="69"/>
      <point x="81" y="-17"/>
      <point x="81" y="-76" type="curve" smooth="yes"/>
      <point x="81" y="-107"/>
      <point x="87" y="-184"/>
    </contour>
    <contour>
      <point x="207" y="-118" type="curve" smooth="yes"/>
      <point x="163" y="-118"/>
      <point x="160" y="-89"/>
      <point x="160" y="-67" type="curve" smooth="yes"/>
      <point x="160" y="-42"/>
      <point x="182" y="21"/>
      <point x="250" y="89" type="curve"/>
      <point x="272" y="17"/>
      <point x="277" y="-8"/>
      <point x="277" y="-44" type="curve" smooth="yes"/>
      <point x="277" y="-63"/>
      <point x="270" y="-118"/>
    </contour>
  </outline>
</glyph>
<glyph name="hv" format="2">
  <advance width="560"/>
  <unicode hex="0195"/>
  <outline>
    <contour>
      <point x="315" y="-10" type="curve" smooth="yes"/>
      <point x="443" y="-10"/>
      <point x="473" y="81"/>
      <point x="503" y="215" type="curve" smooth="yes"/>
      <point x="572" y="518" type="line"/>
      <point x="490" y="518" type="line"/>
      <point x="420" y="228" type="line" smooth="yes"/>
      <point x="388" y="94"/>
      <point x="378" y="64"/>
      <point x="328" y="64" type="curve" smooth="yes"/>
      <point x="302" y="64"/>
      <point x="288" y="81"/>
      <point x="288" y="127" type="curve" smooth="yes"/>
      <point x="288" y="207"/>
      <point x="355" y="348"/>
      <point x="355" y="423" type="curve" smooth="yes"/>
      <point x="355" y="488"/>
      <point x="338" y="530"/>
      <point x="266" y="530" type="curve" smooth="yes"/>
      <point x="249" y="530"/>
      <point x="211" y="523"/>
      <point x="196" y="511" type="curve"/>
      <point x="261" y="776" type="line"/>
      <point x="174" y="762" type="line"/>
      <point x="-7" y="0" type="line"/>
      <point x="75" y="0" type="line"/>
      <point x="180" y="438" type="line"/>
      <point x="205" y="451"/>
      <point x="231" y="456"/>
      <point x="241" y="456" type="curve" smooth="yes"/>
      <point x="266" y="456"/>
      <point x="275" y="435"/>
      <point x="275" y="409" type="curve" smooth="yes"/>
      <point x="275" y="334"/>
      <point x="213" y="201"/>
      <point x="213" y="100" type="curve" smooth="yes"/>
      <point x="213" y="36"/>
      <point x="240" y="-10"/>
    </contour>
  </outline>
</glyph>
<glyph name="lbar" format="2">
  <advance width="560"/>
  <unicode hex="019A"/>
  <outline>
    <contour>
      <point x="323" y="-12" type="curve" smooth="yes"/>
      <point x="374" y="-12"/>
      <point x="424" y="0"/>
      <point x="447" y="16" type="curve"/>
      <point x="440" y="84" type="line"/>
      <point x="418" y="71"/>
      <point x="380" y="53"/>
      <point x="342" y="53" type="curve" smooth="yes"/>
      <point x="284" y="53"/>
      <point x="264" y="72"/>
      <point x="264" y="120" type="curve" smooth="yes"/>
      <point x="264" y="146"/>
      <point x="269" y="177"/>
      <point x="278" y="212" type="curve" smooth="yes"/>
      <point x="315" y="371" type="line"/>
      <point x="463" y="371" type="line"/>
      <point x="478" y="434" type="line"/>
      <point x="331" y="434" type="line"/>
      <point x="411" y="770" type="line"/>
      <point x="183" y="770" type="line"/>
      <point x="165" y="701" type="line"/>
      <point x="317" y="701" type="line"/>
      <point x="252" y="434" type="line"/>
      <point x="101" y="434" type="line"/>
      <point x="85" y="371" type="line"/>
      <point x="237" y="371" type="line"/>
      <point x="201" y="220" type="line" smooth="yes"/>
      <point x="190" y="176"/>
      <point x="186" y="139"/>
      <point x="186" y="108" type="curve" smooth="yes"/>
      <point x="186" y="27"/>
      <point x="224" y="-12"/>
    </contour>
  </outline>
</glyph>
<glyph name="Oi" format="2">
  <advance width="560"/>
  <unicode hex="01A2"/>
  <outline>
    <contour>
      <point x="133" y="-12" type="curve" smooth="yes"/>
      <point x="331" y="-12"/>
      <point x="406" y="345"/>
      <point x="406" y="533" type="curve" smooth="yes"/>
      <point x="406" y="566"/>
      <point x="403" y="594"/>
      <point x="399" y="617" type="curve"/>
      <point x="417" y="632"/>
      <point x="438" y="640"/>
      <point x="454" y="640" type="curve" smooth="yes"/>
      <point x="476" y="640"/>
      <point x="498" y="626"/>
      <point x="498" y="584" type="curve" smooth="yes"/>
      <point x="498" y="548"/>
      <point x="484" y="506"/>
      <point x="483" y="504" type="curve" smooth="yes"/>
      <point x="362" y="0" type="line"/>
      <point x="445" y="0" type="line"/>
      <point x="576" y="545" type="line" smooth="yes"/>
      <point x="581" y="569"/>
      <point x="581" y="587"/>
      <point x="581" y="610" type="curve" smooth="yes"/>
      <point x="581" y="664"/>
      <point x="560" y="708"/>
      <point x="482" y="708" type="curve" smooth="yes"/>
      <point x="439" y="708"/>
      <point x="404" y="695"/>
      <point x="374" y="674" type="curve"/>
      <point x="351" y="701"/>
      <point x="324" y="710"/>
      <point x="295" y="710" type="curve" smooth="yes"/>
      <point x="97" y="710"/>
      <point x="22" y="353"/>
      <point x="22" y="164" type="curve" smooth="yes"/>
      <point x="22" y="22"/>
      <point x="74" y="-12"/>
    </contour>
    <contour>
      <point x="147" y="58" type="curve" smooth="yes"/>
      <point x="120" y="58"/>
      <point x="103" y="86"/>
      <point x="103" y="146" type="curve" smooth="yes"/>
      <point x="103" y="354"/>
      <point x="187" y="640"/>
      <point x="280" y="640" type="curve" smooth="yes"/>
      <point x="308" y="640"/>
      <point x="325" y="611"/>
      <point x="325" y="552" type="curve" smooth="yes"/>
      <point x="325" y="344"/>
      <point x="242" y="58"/>
    </contour>
  </outline>
</glyph>
<glyph name="Phook" format="2">
  <advance width="560"/>
  <unicode hex="01A4"/>
  <outline>
    <contour>
      <point x="100" y="0" type="line"/>
      <point x="183" y="0" type="line"/>
      <point x="248" y="266" type="line"/>
      <point x="311" y="266" type="line" smooth="yes"/>
      <point x="448" y="266"/>
      <point x="570" y="361"/>
      <point x="570" y="518" type="curve" smooth="yes"/>
      <point x="570" y="639"/>
      <point x="498" y="700"/>
      <point x="350" y="700" type="curve" smooth="yes"/>
      <point x="248" y="700"/>
      <point x="73" y="696"/>
      <point x="73" y="513" type="curve" smooth="yes"/>
      <point x="73" y="512"/>
      <point x="72" y="504"/>
      <point x="73" y="499" type="curve"/>
      <point x="140" y="507" type="line"/>
      <point x="144" y="601"/>
      <point x="186" y="623"/>
      <point x="253" y="628" type="curve"/>
    </contour>
    <contour>
      <point x="263" y="335" type="line"/>
      <point x="338" y="625" type="line"/>
      <point x="354" y="630"/>
      <point x="370" y="630"/>
      <point x="386" y="630" type="curve" smooth="yes"/>
      <point x="440" y="630"/>
      <point x="489" y="608"/>
      <point x="489" y="522" type="curve" smooth="yes"/>
      <point x="489" y="395"/>
      <point x="425" y="335"/>
      <point x="320" y="335" type="curve" smooth="yes"/>
    </contour>
  </outline>
</glyph>
<glyph name="Tonetwo" format="2">
  <advance width="560"/>
  <unicode hex="01A7"/>
  <outline>
    <contour>
      <point x="252" y="-15" type="curve" smooth="yes"/>
      <point x="354" y="-15"/>
      <point x="444" y="17"/>
      <point x="450" y="26" type="curve"/>
      <point x="445" y="99" type="line"/>
      <point x="419" y="85"/>
      <point x="358" y="54"/>
      <point x="255" y="54" type="curve" smooth="yes"/>
      <point x="174" y="54"/>
      <point x="127" y="80"/>
      <point x="127" y="150" type="curve" smooth="yes"/>
      <point x="127" y="258"/>
      <point x="234" y="293"/>
      <point x="337" y="330" type="curve" smooth="yes"/>
      <point x="467" y="372"/>
      <point x="552" y="429"/>
      <point x="552" y="561" type="curve" smooth="yes"/>
      <point x="552" y="645"/>
      <point x="502" y="709"/>
      <point x="368" y="709" type="curve" smooth="yes"/>
      <point x="298" y="709"/>
      <point x="213" y="682"/>
      <point x="185" y="665" type="curve"/>
      <point x="198" y="593" type="line"/>
      <point x="227" y="610"/>
      <point x="278" y="640"/>
      <point x="368" y="640" type="curve" smooth="yes"/>
      <point x="444" y="640"/>
      <point x="474" y="601"/>
      <point x="474" y="550" type="curve" smooth="yes"/>
      <point x="474" y="462"/>
      <point x="411" y="423"/>
      <point x="300" y="388" type="curve" smooth="yes"/>
      <point x="175" y="349"/>
      <point x="49" y="292"/>
      <point x="49" y="142" type="curve" smooth="yes"/>
      <point x="49" y="51"/>
      <point x="105" y="-15"/>
    </contour>
  </outline>
</glyph>
<glyph name="eshreversedloop" format="2">
  <advance width="560"/>
  <unicode hex="01AA"/>
  <outline>
    <contour>
      <point x="375" y="-184" type="curve" smooth="yes"/>
      <point x="382" y="-184"/>
      <point x="393" y="-185"/>
      <point x="402" y="-184" type="curve"/>
      <point x="421" y="-115" type="line"/>
      <point x="379" y="-115" type="line" smooth="yes"/>
      <point x="312" y="-115"/>
      <point x="291" y="-79"/>
      <point x="291" y="-38" type="curve" smooth="yes"/>
      <point x="291" y="-11"/>
      <point x="300" y="21"/>
      <point x="309" y="55" type="curve" smooth="yes"/>
      <point x="434" y="582" type="line" smooth="yes"/>
      <point x="440" y="605"/>
      <point x="444" y="632"/>
      <point x="444" y="655" type="curve" smooth="yes"/>
      <point x="444" y="726"/>
      <point x="414" y="775"/>
      <point x="319" y="775" type="curve" smooth="yes"/>
      <point x="210" y="775"/>
      <point x="151" y="705"/>
      <point x="151" y="615" type="curve" smooth="yes"/>
      <point x="151" y="555"/>
      <point x="178" y="505"/>
      <point x="253" y="505" type="curve" smooth="yes"/>
      <point x="279" y="505"/>
      <point x="313" y="514"/>
      <point x="345" y="536" type="curve"/>
      <point x="229" y="61" type="line" smooth="yes"/>
      <point x="220" y="23"/>
      <point x="213" y="-11"/>
      <point x="213" y="-44" type="curve" smooth="yes"/>
      <point x="213" y="-165"/>
      <point x="281" y="-184"/>
    </contour>
    <contour>
      <point x="272" y="562" type="curve" smooth="yes"/>
      <point x="230" y="562"/>
      <point x="212" y="583"/>
      <point x="212" y="617" type="curve" smooth="yes"/>
      <point x="212" y="673"/>
      <point x="256" y="714"/>
      <point x="309" y="714" type="curve" smooth="yes"/>
      <point x="347" y="714"/>
      <point x="371" y="695"/>
      <point x="371" y="658" type="curve" smooth="yes"/>
      <point x="371" y="652"/>
      <point x="370" y="633"/>
      <point x="361" y="607" type="curve"/>
      <point x="330" y="581"/>
      <point x="306" y="562"/>
    </contour>
  </outline>
</glyph>
<glyph name="tpalatalhook" format="2">
  <advance width="560"/>
  <unicode hex="01AB"/>
  <outline>
    <contour>
      <point x="277" y="-187" type="curve" smooth="yes"/>
      <point x="435" y="-187"/>
      <point x="439" y="-53"/>
      <point x="454" y="68" type="curve"/>
      <point x="396" y="55"/>
      <point x="370" y="56"/>
      <point x="310" y="56" type="curve" smooth="yes"/>
      <point x="260" y="56"/>
      <point x="224" y="72"/>
      <point x="224" y="132" type="curve" smooth="yes"/>
      <point x="224" y="160"/>
      <point x="230" y="193"/>
      <point x="239" y="224" type="curve" smooth="yes"/>
      <point x="293" y="451" type="line"/>
      <point x="529" y="451" type="line"/>
      <point x="545" y="518" type="line"/>
      <point x="309" y="518" type="line"/>
      <point x="349" y="681" type="line"/>
      <point x="267" y="667" type="line"/>
      <point x="231" y="518" type="line"/>
      <point x="98" y="518" type="line"/>
      <point x="82" y="451" type="line"/>
      <point x="215" y="451" type="line"/>
      <point x="161" y="232" type="line" smooth="yes"/>
      <point x="152" y="194"/>
      <point x="145" y="153"/>
      <point x="145" y="117" type="curve" smooth="yes"/>
      <point x="145" y="12"/>
      <point x="226" y="-2"/>
      <point x="305" y="-2" type="curve" smooth="yes"/>
      <point x="330" y="-2"/>
      <point x="349" y="-6"/>
      <point x="375" y="-2" type="curve"/>
      <point x="371" y="-57"/>
      <point x="345" y="-124"/>
      <point x="277" y="-124" type="curve" smooth="yes"/>
      <point x="258" y="-124"/>
      <point x="244" y="-120"/>
      <point x="239" y="-118" type="curve"/>
      <point x="217" y="-175" type="line"/>
      <point x="222" y="-180"/>
      <point x="253" y="-187"/>
    </contour>
  </outline>
</glyph>
<glyph name="Thook" format="2">
  <advance width="560"/>
  <unicode hex="01AC"/>
  <anchor x="218" y="0" name="bottom"/>
  <anchor x="382" y="685" name="top"/>
  <outline>
    <contour>
      <point x="197" y="0" type="line"/>
      <point x="275" y="0" type="line"/>
      <point x="427" y="626" type="line"/>
      <point x="608" y="626" type="line"/>
      <point x="624" y="693" type="line"/>
      <point x="301" y="693" type="line" smooth="yes"/>
      <point x="209" y="693"/>
      <point x="103" y="649"/>
      <point x="103" y="512" type="curve" smooth="yes"/>
      <point x="103" y="510"/>
      <point x="103" y="503"/>
      <point x="104" y="499" type="curve"/>
      <point x="170" y="507" type="line"/>
      <point x="173" y="576"/>
      <point x="194" y="626"/>
      <point x="280" y="626" type="curve" smooth="yes"/>
      <point x="348" y="626" type="line"/>
    </contour>
  </outline>
</glyph>
<glyph name="thook" format="2">
  <advance width="560"/>
  <unicode hex="01AD"/>
  <anchor x="218" y="0" name="bottom"/>
  <anchor x="342" y="518" name="top"/>
  <outline>
    <contour>
      <point x="290" y="-12" type="curve" smooth="yes"/>
      <point x="343" y="-12"/>
      <point x="382" y="0"/>
      <point x="424" y="13" type="curve"/>
      <point x="429" y="82" type="line"/>
      <point x="390" y="69"/>
      <point x="350" y="56"/>
      <point x="302" y="56" type="curve" smooth="yes"/>
      <point x="252" y="56"/>
      <point x="224" y="72"/>
      <point x="224" y="132" type="curve" smooth="yes"/>
      <point x="224" y="160"/>
      <point x="230" y="193"/>
      <point x="239" y="224" type="curve" smooth="yes"/>
      <point x="293" y="451" type="line"/>
      <point x="490" y="451" type="line"/>
      <point x="506" y="518" type="line"/>
      <point x="309" y="518" type="line"/>
      <point x="322" y="569" type="line" smooth="yes"/>
      <point x="341" y="643"/>
      <point x="374" y="710"/>
      <point x="482" y="710" type="curve" smooth="yes"/>
      <point x="543" y="710"/>
      <point x="569" y="699"/>
      <point x="575" y="696" type="curve"/>
      <point x="606" y="756" type="line"/>
      <point x="588" y="765"/>
      <point x="539" y="776"/>
      <point x="492" y="776" type="curve" smooth="yes"/>
      <point x="333" y="776"/>
      <point x="273" y="694"/>
      <point x="243" y="570" type="curve" smooth="yes"/>
      <point x="231" y="518" type="line"/>
      <point x="124" y="518" type="line"/>
      <point x="108" y="451" type="line"/>
      <point x="215" y="451" type="line"/>
      <point x="161" y="232" type="line" smooth="yes"/>
      <point x="152" y="194"/>
      <point x="145" y="153"/>
      <point x="145" y="117" type="curve" smooth="yes"/>
      <point x="145" y="12"/>
      <point x="215" y="-12"/>
    </contour>
  </outline>
</glyph>
<glyph name="Yhook" format="2">
  <advance width="560"/>
  <unicode hex="01B3"/>
  <anchor x="218" y="0" name="bottom"/>
  <anchor x="382" y="685" name="top"/>
  <outline>
    <contour>
      <point x="153" y="0" type="line"/>
      <point x="231" y="0" type="line"/>
      <point x="293" y="253" type="line"/>
      <point x="377" y="385"/>
      <point x="460" y="498"/>
      <point x="502" y="564" type="curve" smooth="yes"/>
      <point x="541" y="623"/>
      <point x="551" y="641"/>
      <point x="573" y="641" type="curve" smooth="yes"/>
      <point x="589" y="641"/>
      <point x="609" y="631"/>
      <point x="623" y="609" type="curve"/>
      <point x="668" y="657" type="line"/>
      <point x="653" y="678"/>
      <point x="624" y="702"/>
      <point x="584" y="702" type="curve" smooth="yes"/>
      <point x="534" y="702"/>
      <point x="495" y="678"/>
      <point x="442" y="595" type="curve" smooth="yes"/>
      <point x="396" y="528"/>
      <point x="336" y="440"/>
      <point x="258" y="325" type="curve"/>
      <point x="225" y="441"/>
      <point x="178" y="584"/>
      <point x="170" y="693" type="curve"/>
      <point x="90" y="693" type="line"/>
      <point x="109" y="544"/>
      <point x="160" y="404"/>
      <point x="215" y="257" type="curve"/>
    </contour>
  </outline>
</glyph>
<glyph name="Zstroke" format="2">
  <advance width="560"/>
  <unicode hex="01B5"/>
  <outline>
    <contour>
      <point x="1" y="0" type="line"/>
      <point x="444" y="0" type="line"/>
      <point x="459" y="68" type="line"/>
      <point x="108" y="68" type="line"/>
      <point x="159" y="142"/>
      <point x="237" y="237"/>
      <point x="317" y="332" type="curve"/>
      <point x="484" y="332" type="line"/>
      <point x="500" y="395" type="line"/>
      <point x="372" y="395" type="line"/>
      <point x="453" y="488"/>
      <point x="531" y="571"/>
      <point x="584" y="626" type="curve"/>
      <point x="599" y="693" type="line"/>
      <point x="182" y="693" type="line"/>
      <point x="164" y="626" type="line"/>
      <point x="489" y="626" type="line"/>
      <point x="427" y="560"/>
      <point x="356" y="481"/>
      <point x="281" y="395" type="curve"/>
      <point x="140" y="395" type="line"/>
      <point x="126" y="332" type="line"/>
      <point x="228" y="332" type="line"/>
      <point x="157" y="247"/>
      <point x="84" y="158"/>
      <point x="18" y="72" type="curve"/>
    </contour>
  </outline>
</glyph>
<glyph name="clickalveolar" format="2">
  <advance width="560"/>
  <unicode hex="01C2"/>
  <outline>
    <contour>
      <point x="136" y="-185" type="line"/>
      <point x="205" y="-185" type="line"/>
      <point x="291" y="176" type="line"/>
      <point x="493" y="176" type="line"/>
      <point x="510" y="240" type="line"/>
      <point x="307" y="240" type="line"/>
      <point x="339" y="366" type="line"/>
      <point x="540" y="366" type="line"/>
      <point x="556" y="430" type="line"/>
      <point x="353" y="430" type="line"/>
      <point x="438" y="783" type="line"/>
      <point x="369" y="783" type="line"/>
      <point x="283" y="430" type="line"/>
      <point x="82" y="430" type="line"/>
      <point x="66" y="366" type="line"/>
      <point x="269" y="366" type="line"/>
      <point x="238" y="240" type="line"/>
      <point x="36" y="240" type="line"/>
      <point x="20" y="176" type="line"/>
      <point x="222" y="176" type="line"/>
    </contour>
  </outline>
</glyph>
<glyph name="dzcaron" format="2">
  <advance width="560"/>
  <unicode hex="01C6"/>
  <outline>
    <contour>
      <point x="97" y="-12" type="curve" smooth="yes"/>
      <point x="122" y="-12"/>
      <point x="171" y="-12"/>
      <point x="231" y="7" type="curve"/>
      <point x="417" y="776" type="line"/>
      <point x="336" y="762" type="line"/>
      <point x="279" y="526" type="line"/>
      <point x="262" y="528"/>
      <point x="245" y="530"/>
      <point x="230" y="530" type="curve" smooth="yes"/>
      <point x="73" y="530"/>
      <point x="-20" y="338"/>
      <point x="-20" y="140" type="curve" smooth="yes"/>
      <point x="-20" y="69"/>
      <point x="10" y="-12"/>
    </contour>
    <contour>
      <point x="116" y="43" type="curve" smooth="yes"/>
      <point x="80" y="43"/>
      <point x="60" y="75"/>
      <point x="60" y="112" type="curve" smooth="yes"/>
      <point x="60" y="313"/>
      <point x="138" y="476"/>
      <point x="227" y="476" type="curve" smooth="yes"/>
      <point x="239" y="476"/>
      <point x="253" y="474"/>
      <point x="266" y="468" type="curve"/>
      <point x="166" y="56" type="line"/>
      <point x="146" y="47"/>
      <point x="127" y="43"/>
    </contour>
    <contour>
      <point x="296" y="0" type="line"/>
      <point x="500" y="0" type="line"/>
      <point x="518" y="70" type="line"/>
      <point x="389" y="70" type="line"/>
      <point x="462" y="226"/>
      <point x="498" y="279"/>
      <point x="599" y="452" type="curve"/>
      <point x="616" y="518" type="line"/>
      <point x="429" y="518" type="line"/>
      <point x="411" y="448" type="line"/>
      <point x="525" y="448" type="line"/>
      <point x="449" y="315"/>
      <point x="414" y="266"/>
      <point x="310" y="54" type="curve"/>
    </contour>
    <contour>
      <point x="552" y="587" type="line"/>
      <point x="680" y="687" type="line"/>
      <point x="652" y="720" type="line"/>
      <point x="567" y="656" type="line"/>
      <point x="507" y="717" type="line"/>
      <point x="467" y="684" type="line"/>
    </contour>
  </outline>
</glyph>
<glyph name="LJ" format="2">
  <advance width="560"/>
  <unicode hex="01C7"/>
  <outline>
    <contour>
      <point x="257" y="4" type="line"/>
      <point x="286" y="4" type="line" smooth="yes"/>
      <point x="414" y="3"/>
      <point x="471" y="62"/>
      <point x="496" y="164" type="curve" smooth="yes"/>
      <point x="623" y="693" type="line"/>
      <point x="533" y="693" type="line"/>
      <point x="422" y="225" type="line" smooth="yes"/>
      <point x="403" y="144"/>
      <point x="407" y="77"/>
      <point x="273" y="75" type="curve"/>
    </contour>
    <contour>
      <point x="-22" y="0" type="line"/>
      <point x="212" y="0" type="line"/>
      <point x="228" y="73" type="line"/>
      <point x="84" y="73" type="line"/>
      <point x="232" y="693" type="line"/>
      <point x="142" y="693" type="line"/>
    </contour>
  </outline>
</glyph>
<glyph name="Lj" format="2">
  <advance width="560"/>
  <unicode hex="01C8"/>
  <outline>
    <contour>
      <point x="216" y="-189" type="curve" smooth="yes"/>
      <point x="352" y="-189"/>
      <point x="396" y="-134"/>
      <point x="433" y="18" type="curve" smooth="yes"/>
      <point x="553" y="518" type="line"/>
      <point x="463" y="518" type="line"/>
      <point x="343" y="20" type="line" smooth="yes"/>
      <point x="325" y="-56"/>
      <point x="297" y="-114"/>
      <point x="232" y="-114" type="curve" smooth="yes"/>
      <point x="203" y="-114"/>
      <point x="180" y="-108"/>
      <point x="170" y="-100" type="curve"/>
      <point x="152" y="-171" type="line"/>
      <point x="162" y="-181"/>
      <point x="195" y="-189"/>
    </contour>
    <contour>
      <point x="-15" y="0" type="line"/>
      <point x="250" y="0" type="line"/>
      <point x="268" y="73" type="line"/>
      <point x="91" y="73" type="line"/>
      <point x="240" y="693" type="line"/>
      <point x="149" y="693" type="line"/>
    </contour>
    <contour>
      <point x="541" y="612" type="curve" smooth="yes"/>
      <point x="571" y="612"/>
      <point x="608" y="636"/>
      <point x="608" y="681" type="curve" smooth="yes"/>
      <point x="608" y="721"/>
      <point x="582" y="743"/>
      <point x="548" y="743" type="curve" smooth="yes"/>
      <point x="513" y="743"/>
      <point x="481" y="719"/>
      <point x="481" y="672" type="curve" smooth="yes"/>
      <point x="481" y="634"/>
      <point x="505" y="612"/>
    </contour>
  </outline>
</glyph>
<glyph name="NJ" format="2">
  <advance width="560"/>
  <unicode hex="01CA"/>
  <outline>
    <contour>
      <point x="-22" y="0" type="line"/>
      <point x="38" y="0" type="line"/>
      <point x="106" y="280" type="line"/>
      <point x="145" y="502" type="line"/>
      <point x="154" y="346"/>
      <point x="159" y="159"/>
      <point x="166" y="0" type="curve"/>
      <point x="237" y="0" type="line"/>
      <point x="404" y="693" type="line"/>
      <point x="343" y="693" type="line"/>
      <point x="272" y="400" type="line"/>
      <point x="233" y="180" type="line"/>
      <point x="214" y="693" type="line"/>
      <point x="143" y="693" type="line"/>
    </contour>
    <contour>
      <point x="288" y="5" type="line"/>
      <point x="398" y="5"/>
      <point x="471" y="57"/>
      <point x="496" y="164" type="curve" smooth="yes"/>
      <point x="623" y="693" type="line"/>
      <point x="549" y="693" type="line"/>
      <point x="436" y="225" type="line" smooth="yes"/>
      <point x="414" y="130"/>
      <point x="410" y="76"/>
      <point x="305" y="76" type="curve"/>
    </contour>
  </outline>
</glyph>
<glyph name="nj" format="2">
  <advance width="560"/>
  <unicode hex="01CC"/>
  <outline>
    <contour>
      <point x="238" y="-189" type="curve" smooth="yes"/>
      <point x="373" y="-189"/>
      <point x="418" y="-134"/>
      <point x="455" y="18" type="curve" smooth="yes"/>
      <point x="574" y="518" type="line"/>
      <point x="497" y="518" type="line"/>
      <point x="378" y="20" type="line" smooth="yes"/>
      <point x="360" y="-56"/>
      <point x="331" y="-114"/>
      <point x="267" y="-114" type="curve" smooth="yes"/>
      <point x="238" y="-114"/>
      <point x="216" y="-108"/>
      <point x="205" y="-100" type="curve"/>
      <point x="187" y="-171" type="line"/>
      <point x="196" y="-181"/>
      <point x="222" y="-189"/>
    </contour>
    <contour>
      <point x="-7" y="0" type="line"/>
      <point x="70" y="0" type="line"/>
      <point x="177" y="441" type="line"/>
      <point x="185" y="447"/>
      <point x="208" y="452"/>
      <point x="217" y="452" type="curve" smooth="yes"/>
      <point x="259" y="452"/>
      <point x="280" y="447"/>
      <point x="280" y="406" type="curve" smooth="yes"/>
      <point x="280" y="385"/>
      <point x="272" y="354"/>
      <point x="262" y="310" type="curve" smooth="yes"/>
      <point x="188" y="0" type="line"/>
      <point x="265" y="0" type="line"/>
      <point x="341" y="313" type="line" smooth="yes"/>
      <point x="351" y="351"/>
      <point x="356" y="387"/>
      <point x="356" y="421" type="curve" smooth="yes"/>
      <point x="356" y="482"/>
      <point x="331" y="529"/>
      <point x="238" y="529" type="curve" smooth="yes"/>
      <point x="203" y="529"/>
      <point x="151" y="518"/>
      <point x="112" y="498" type="curve"/>
    </contour>
    <contour>
      <point x="563" y="612" type="curve" smooth="yes"/>
      <point x="592" y="612"/>
      <point x="630" y="636"/>
      <point x="630" y="681" type="curve" smooth="yes"/>
      <point x="630" y="721"/>
      <point x="603" y="743"/>
      <point x="568" y="743" type="curve" smooth="yes"/>
      <point x="533" y="743"/>
      <point x="502" y="719"/>
      <point x="502" y="672" type="curve" smooth="yes"/>
      <point x="502" y="634"/>
      <point x="527" y="612"/>
    </contour>
  </outline>
</glyph>
<glyph name="eturned" format="2">
  <advance width="560"/>
  <unicode hex="01DD"/>
  <outline>
    <contour>
      <point x="220" y="-13" type="curve" smooth="yes"/>
      <point x="412" y="-13"/>
      <point x="536" y="151"/>
      <point x="536" y="343" type="curve" smooth="yes"/>
      <point x="536" y="437"/>
      <point x="467" y="530"/>
      <point x="331" y="530" type="curve" smooth="yes"/>
      <point x="221" y="530"/>
      <point x="157" y="507"/>
      <point x="131" y="493" type="curve"/>
      <point x="137" y="422" type="line"/>
      <point x="155" y="434"/>
      <point x="236" y="459"/>
      <point x="300" y="459" type="curve" smooth="yes"/>
      <point x="395" y="459"/>
      <point x="472" y="419"/>
      <point x="459" y="311" type="curve"/>
      <point x="287" y="304"/>
      <point x="58" y="309"/>
      <point x="58" y="111" type="curve" smooth="yes"/>
      <point x="58" y="50"/>
      <point x="100" y="-13"/>
    </contour>
    <contour>
      <point x="227" y="54" type="curve" smooth="yes"/>
      <point x="153" y="54"/>
      <point x="137" y="94"/>
      <point x="137" y="114" type="curve" smooth="yes"/>
      <point x="137" y="231"/>
      <point x="270" y="243"/>
      <point x="445" y="247" type="curve"/>
      <point x="415" y="150"/>
      <point x="337" y="54"/>
    </contour>
  </outline>
</glyph>
<glyph name="Adieresismacron" format="2">
  <advance width="560"/>
  <unicode hex="01DE"/>
  <outline>
    <contour>
      <point x="-59" y="0" type="curve"/>
      <point x="20" y="0" type="line"/>
      <point x="49" y="63"/>
      <point x="81" y="129"/>
      <point x="111" y="194" type="curve"/>
      <point x="398" y="194" type="line"/>
      <point x="398" y="0" type="line"/>
      <point x="481" y="0" type="line"/>
      <point x="474" y="180"/>
      <point x="460" y="446"/>
      <point x="426" y="678" type="curve"/>
      <point x="327" y="678" type="line"/>
      <point x="176" y="440"/>
      <point x="34" y="179"/>
    </contour>
    <contour>
      <point x="146" y="260" type="line"/>
      <point x="215" y="388"/>
      <point x="295" y="511"/>
      <point x="357" y="612" type="curve"/>
      <point x="371" y="518"/>
      <point x="388" y="391"/>
      <point x="393" y="260" type="curve"/>
    </contour>
    <contour>
      <point x="281" y="734" type="curve" smooth="yes"/>
      <point x="308" y="734"/>
      <point x="339" y="757"/>
      <point x="339" y="792" type="curve" smooth="yes"/>
      <point x="339" y="820"/>
      <point x="318" y="838"/>
      <point x="292" y="838" type="curve" smooth="yes"/>
      <point x="264" y="838"/>
      <point x="235" y="816"/>
      <point x="235" y="779" type="curve" smooth="yes"/>
      <point x="235" y="752"/>
      <point x="255" y="734"/>
    </contour>
    <contour>
      <point x="490" y="734" type="curve" smooth="yes"/>
      <point x="516" y="734"/>
      <point x="547" y="757"/>
      <point x="547" y="792" type="curve" smooth="yes"/>
      <point x="547" y="820"/>
      <point x="526" y="838"/>
      <point x="500" y="838" type="curve" smooth="yes"/>
      <point x="473" y="838"/>
      <point x="444" y="816"/>
      <point x="444" y="779" type="curve" smooth="yes"/>
      <point x="444" y="752"/>
      <point x="464" y="734"/>
    </contour>
    <contour>
      <point x="287" y="870" type="line"/>
      <point x="540" y="870" type="line"/>
      <point x="553" y="927" type="line"/>
      <point x="301" y="927" type="line"/>
    </contour>
  </outline>
</glyph>
<glyph name="Gstroke" format="2">
  <advance width="560"/>
  <unicode hex="01E4"/>
  <outline>
    <contour>
      <point x="267" y="-12" type="curve" smooth="yes"/>
      <point x="309" y="-12"/>
      <point x="356" y="-3"/>
      <point x="414" y="16" type="curve"/>
      <point x="454" y="190" type="line"/>
      <point x="504" y="190" type="line"/>
      <point x="520" y="255" type="line"/>
      <point x="470" y="255" type="line"/>
      <point x="495" y="357" type="line"/>
      <point x="415" y="357" type="line"/>
      <point x="391" y="255" type="line"/>
      <point x="311" y="255" type="line"/>
      <point x="295" y="190" type="line"/>
      <point x="376" y="190" type="line"/>
      <point x="346" y="68" type="line"/>
      <point x="316" y="60"/>
      <point x="293" y="54"/>
      <point x="268" y="54" type="curve" smooth="yes"/>
      <point x="179" y="54"/>
      <point x="128" y="119"/>
      <point x="128" y="240" type="curve" smooth="yes"/>
      <point x="128" y="441"/>
      <point x="234" y="640"/>
      <point x="401" y="640" type="curve" smooth="yes"/>
      <point x="451" y="640"/>
      <point x="493" y="617"/>
      <point x="517" y="595" type="curve"/>
      <point x="558" y="658" type="line"/>
      <point x="532" y="681"/>
      <point x="490" y="709"/>
      <point x="406" y="709" type="curve" smooth="yes"/>
      <point x="190" y="709"/>
      <point x="49" y="465"/>
      <point x="49" y="225" type="curve" smooth="yes"/>
      <point x="49" y="37"/>
      <point x="156" y="-12"/>
    </contour>
  </outline>
</glyph>
<glyph name="DZ" format="2">
  <advance width="560"/>
  <unicode hex="01F1"/>
  <anchor x="382" y="685" name="top"/>
  <outline>
    <contour>
      <point x="63" y="-6" type="curve" smooth="yes"/>
      <point x="297" y="-6"/>
      <point x="358" y="433"/>
      <point x="358" y="528" type="curve" smooth="yes"/>
      <point x="358" y="624"/>
      <point x="321" y="700"/>
      <point x="235" y="700" type="curve" smooth="yes"/>
      <point x="211" y="700"/>
      <point x="185" y="698"/>
      <point x="150" y="689" type="curve"/>
      <point x="-13" y="4" type="line"/>
      <point x="8" y="-2"/>
      <point x="34" y="-6"/>
    </contour>
    <contour>
      <point x="97" y="67" type="curve" smooth="yes"/>
      <point x="89" y="67"/>
      <point x="83" y="67"/>
      <point x="74" y="68" type="curve"/>
      <point x="209" y="627" type="line"/>
      <point x="278" y="639"/>
      <point x="284" y="577"/>
      <point x="284" y="533" type="curve" smooth="yes"/>
      <point x="284" y="399"/>
      <point x="190" y="67"/>
    </contour>
    <contour>
      <point x="268" y="0" type="line"/>
      <point x="483" y="0" type="line"/>
      <point x="501" y="70" type="line"/>
      <point x="362" y="70" type="line"/>
      <point x="437" y="237"/>
      <point x="562" y="492"/>
      <point x="632" y="627" type="curve"/>
      <point x="649" y="693" type="line"/>
      <point x="462" y="693" type="line"/>
      <point x="444" y="623" type="line"/>
      <point x="556" y="623" type="line"/>
      <point x="447" y="412"/>
      <point x="383" y="274"/>
      <point x="281" y="53" type="curve"/>
    </contour>
  </outline>
</glyph>
<glyph name="Wynn" format="2">
  <advance width="560"/>
  <unicode hex="01F7"/>
  <outline>
    <contour>
      <point x="-20" y="-185" type="line"/>
      <point x="57" y="-185" type="line"/>
      <point x="101" y="-3" type="line"/>
      <point x="344" y="75"/>
      <point x="567" y="231"/>
      <point x="567" y="528" type="curve" smooth="yes"/>
      <point x="567" y="645"/>
      <point x="489" y="700"/>
      <point x="362" y="700" type="curve" smooth="yes"/>
      <point x="299" y="700"/>
      <point x="215" y="673"/>
      <point x="181" y="652" type="curve"/>
    </contour>
    <contour>
      <point x="118" y="71" type="curve"/>
      <point x="251" y="614" type="line"/>
      <point x="267" y="619"/>
      <point x="299" y="634"/>
      <point x="356" y="634" type="curve" smooth="yes"/>
      <point x="439" y="634"/>
      <point x="488" y="600"/>
      <point x="488" y="522" type="curve" smooth="yes"/>
      <point x="488" y="274"/>
      <point x="278" y="130"/>
    </contour>
  </outline>
</glyph>
<glyph name="Yogh" format="2">
  <advance width="560"/>
  <unicode hex="021C"/>
  <outline>
    <contour>
      <point x="7" y="-185" type="curve" smooth="yes"/>
      <point x="244" y="-185"/>
      <point x="479" y="-115"/>
      <point x="479" y="141" type="curve" smooth="yes"/>
      <point x="479" y="198"/>
      <point x="451" y="271"/>
      <point x="369" y="301" type="curve"/>
      <point x="495" y="352"/>
      <point x="547" y="439"/>
      <point x="547" y="536" type="curve" smooth="yes"/>
      <point x="547" y="652"/>
      <point x="459" y="708"/>
      <point x="314" y="708" type="curve" smooth="yes"/>
      <point x="228" y="708"/>
      <point x="153" y="682"/>
      <point x="125" y="664" type="curve"/>
      <point x="134" y="600" type="line"/>
      <point x="166" y="619"/>
      <point x="230" y="644"/>
      <point x="314" y="644" type="curve" smooth="yes"/>
      <point x="406" y="644"/>
      <point x="469" y="609"/>
      <point x="469" y="532" type="curve" smooth="yes"/>
      <point x="469" y="405"/>
      <point x="324" y="331"/>
      <point x="191" y="331" type="curve" smooth="yes"/>
      <point x="150" y="331" type="line"/>
      <point x="135" y="264" type="line"/>
      <point x="178" y="264" type="line" smooth="yes"/>
      <point x="291" y="264"/>
      <point x="402" y="233"/>
      <point x="402" y="133" type="curve" smooth="yes"/>
      <point x="402" y="-48"/>
      <point x="227" y="-117"/>
      <point x="7" y="-117" type="curve" smooth="yes"/>
      <point x="-16" y="-117"/>
      <point x="-37" y="-116"/>
      <point x="-49" y="-115" type="curve"/>
      <point x="-68" y="-181" type="line"/>
      <point x="-58" y="-184"/>
      <point x="-17" y="-185"/>
    </contour>
  </outline>
</glyph>
<glyph name="yogh" format="2">
  <advance width="560"/>
  <unicode hex="021D"/>
  <outline>
    <contour>
      <point x="-11" y="-185" type="line"/>
      <point x="155" y="-184"/>
      <point x="447" y="-148"/>
      <point x="447" y="83" type="curve" smooth="yes"/>
      <point x="447" y="144"/>
      <point x="413" y="187"/>
      <point x="350" y="206" type="curve"/>
      <point x="428" y="231"/>
      <point x="495" y="297"/>
      <point x="495" y="384" type="curve" smooth="yes"/>
      <point x="495" y="488"/>
      <point x="420" y="531"/>
      <point x="306" y="531" type="curve" smooth="yes"/>
      <point x="221" y="531"/>
      <point x="132" y="508"/>
      <point x="126" y="501" type="curve"/>
      <point x="131" y="431" type="line"/>
      <point x="146" y="442"/>
      <point x="219" y="466"/>
      <point x="297" y="466" type="curve" smooth="yes"/>
      <point x="357" y="466"/>
      <point x="418" y="449"/>
      <point x="418" y="384" type="curve" smooth="yes"/>
      <point x="418" y="268"/>
      <point x="270" y="233"/>
      <point x="166" y="233" type="curve"/>
      <point x="150" y="167" type="line"/>
      <point x="177" y="167" type="line" smooth="yes"/>
      <point x="249" y="167"/>
      <point x="370" y="161"/>
      <point x="370" y="78" type="curve" smooth="yes"/>
      <point x="370" y="-93"/>
      <point x="132" y="-121"/>
      <point x="0" y="-121" type="curve"/>
    </contour>
  </outline>
</glyph>
<glyph name="dcurl" format="2">
  <advance width="560"/>
  <unicode hex="0221"/>
  <outline>
    <contour>
      <point x="337" y="-185" type="curve" smooth="yes"/>
      <point x="441" y="-185"/>
      <point x="505" y="-109"/>
      <point x="505" y="-24" type="curve" smooth="yes"/>
      <point x="505" y="34"/>
      <point x="480" y="87"/>
      <point x="398" y="87" type="curve" smooth="yes"/>
      <point x="369" y="87"/>
      <point x="329" y="78"/>
      <point x="295" y="53" type="curve"/>
      <point x="468" y="776" type="line"/>
      <point x="382" y="762" type="line"/>
      <point x="326" y="529" type="line"/>
      <point x="321" y="530"/>
      <point x="284" y="531"/>
      <point x="286" y="531" type="curve" smooth="yes"/>
      <point x="100" y="531"/>
      <point x="14" y="335"/>
      <point x="14" y="165" type="curve" smooth="yes"/>
      <point x="14" y="45"/>
      <point x="66" y="-10"/>
      <point x="137" y="-10" type="curve" smooth="yes"/>
      <point x="157" y="-10"/>
      <point x="179" y="-5"/>
      <point x="207" y="9" type="curve"/>
      <point x="199" y="-30" type="line"/>
      <point x="72" y="-150" type="line"/>
      <point x="111" y="-192" type="line"/>
      <point x="203" y="-105" type="line"/>
      <point x="221" y="-160"/>
      <point x="266" y="-185"/>
    </contour>
    <contour>
      <point x="342" y="-123" type="curve" smooth="yes"/>
      <point x="297" y="-123"/>
      <point x="275" y="-100"/>
      <point x="275" y="-62" type="curve" smooth="yes"/>
      <point x="275" y="-58"/>
      <point x="275" y="-51"/>
      <point x="277" y="-42" type="curve"/>
      <point x="281" y="-22" type="line"/>
      <point x="314" y="7"/>
      <point x="341" y="26"/>
      <point x="380" y="26" type="curve" smooth="yes"/>
      <point x="423" y="26"/>
      <point x="440" y="6"/>
      <point x="440" y="-27" type="curve" smooth="yes"/>
      <point x="440" y="-78"/>
      <point x="397" y="-123"/>
    </contour>
    <contour>
      <point x="160" y="63" type="curve" smooth="yes"/>
      <point x="116" y="63"/>
      <point x="98" y="99"/>
      <point x="98" y="180" type="curve" smooth="yes"/>
      <point x="98" y="276"/>
      <point x="138" y="463"/>
      <point x="268" y="463" type="curve" smooth="yes"/>
      <point x="268" y="463"/>
      <point x="311" y="458"/>
      <point x="312" y="458" type="curve"/>
      <point x="218" y="74" type="line"/>
      <point x="196" y="63"/>
      <point x="176" y="63"/>
    </contour>
  </outline>
</glyph>
<glyph name="OU" format="2">
  <advance width="560"/>
  <unicode hex="0222"/>
  <outline>
    <contour>
      <point x="220" y="-1" type="curve" smooth="yes"/>
      <point x="438" y="-1"/>
      <point x="512" y="130"/>
      <point x="512" y="251" type="curve" smooth="yes"/>
      <point x="512" y="318"/>
      <point x="476" y="357"/>
      <point x="432" y="380" type="curve"/>
      <point x="492" y="402"/>
      <point x="522" y="466"/>
      <point x="537" y="533" type="curve" smooth="yes"/>
      <point x="551" y="589"/>
      <point x="554" y="648"/>
      <point x="556" y="693" type="curve"/>
      <point x="481" y="693" type="line"/>
      <point x="479" y="637"/>
      <point x="473" y="599"/>
      <point x="466" y="565" type="curve" smooth="yes"/>
      <point x="446" y="467"/>
      <point x="402" y="411"/>
      <point x="321" y="411" type="curve" smooth="yes"/>
      <point x="264" y="411"/>
      <point x="233" y="436"/>
      <point x="233" y="491" type="curve" smooth="yes"/>
      <point x="233" y="546"/>
      <point x="260" y="615"/>
      <point x="293" y="693" type="curve"/>
      <point x="217" y="693" type="line"/>
      <point x="187" y="621"/>
      <point x="155" y="537"/>
      <point x="155" y="485" type="curve" smooth="yes"/>
      <point x="155" y="442"/>
      <point x="169" y="407"/>
      <point x="195" y="388" type="curve"/>
      <point x="94" y="352"/>
      <point x="31" y="264"/>
      <point x="31" y="156" type="curve" smooth="yes"/>
      <point x="31" y="76"/>
      <point x="83" y="-1"/>
    </contour>
    <contour>
      <point x="238" y="66" type="curve" smooth="yes"/>
      <point x="162" y="66"/>
      <point x="107" y="96"/>
      <point x="107" y="154" type="curve" smooth="yes"/>
      <point x="107" y="281"/>
      <point x="208" y="341"/>
      <point x="304" y="341" type="curve" smooth="yes"/>
      <point x="377" y="341"/>
      <point x="434" y="309"/>
      <point x="434" y="247" type="curve" smooth="yes"/>
      <point x="434" y="121"/>
      <point x="349" y="66"/>
    </contour>
  </outline>
</glyph>
<glyph name="ou" format="2">
  <advance width="560"/>
  <unicode hex="0223"/>
  <outline>
    <contour>
      <point x="226" y="-12" type="curve" smooth="yes"/>
      <point x="432" y="-12"/>
      <point x="506" y="144"/>
      <point x="506" y="298" type="curve" smooth="yes"/>
      <point x="506" y="372"/>
      <point x="470" y="418"/>
      <point x="428" y="439" type="curve"/>
      <point x="501" y="464"/>
      <point x="539" y="535"/>
      <point x="557" y="612" type="curve" smooth="yes"/>
      <point x="570" y="667"/>
      <point x="573" y="715"/>
      <point x="576" y="776" type="curve"/>
      <point x="506" y="776" type="line"/>
      <point x="503" y="724"/>
      <point x="499" y="678"/>
      <point x="488" y="632" type="curve" smooth="yes"/>
      <point x="458" y="516"/>
      <point x="409" y="480"/>
      <point x="330" y="480" type="curve" smooth="yes"/>
      <point x="266" y="480"/>
      <point x="244" y="519"/>
      <point x="244" y="570" type="curve" smooth="yes"/>
      <point x="244" y="636"/>
      <point x="274" y="710"/>
      <point x="303" y="776" type="curve"/>
      <point x="228" y="776" type="line"/>
      <point x="198" y="716"/>
      <point x="171" y="635"/>
      <point x="171" y="559" type="curve" smooth="yes"/>
      <point x="171" y="512"/>
      <point x="193" y="469"/>
      <point x="222" y="452" type="curve"/>
      <point x="115" y="413"/>
      <point x="49" y="322"/>
      <point x="49" y="168" type="curve" smooth="yes"/>
      <point x="49" y="64"/>
      <point x="120" y="-12"/>
    </contour>
    <contour>
      <point x="234" y="56" type="curve" smooth="yes"/>
      <point x="163" y="56"/>
      <point x="128" y="107"/>
      <point x="128" y="178" type="curve" smooth="yes"/>
      <point x="128" y="294"/>
      <point x="181" y="413"/>
      <point x="319" y="413" type="curve" smooth="yes"/>
      <point x="392" y="413"/>
      <point x="426" y="361"/>
      <point x="426" y="290" type="curve" smooth="yes"/>
      <point x="426" y="174"/>
      <point x="372" y="56"/>
    </contour>
  </outline>
</glyph>
<glyph name="Zhook" format="2">
  <advance width="560"/>
  <unicode hex="0224"/>
  <outline>
    <contour>
      <point x="261" y="-187" type="curve" smooth="yes"/>
      <point x="392" y="-187"/>
      <point x="415" y="-120"/>
      <point x="445" y="7" type="curve" smooth="yes"/>
      <point x="459" y="68" type="line"/>
      <point x="107" y="68" type="line"/>
      <point x="224" y="235"/>
      <point x="473" y="513"/>
      <point x="584" y="627" type="curve"/>
      <point x="599" y="693" type="line"/>
      <point x="182" y="693" type="line"/>
      <point x="164" y="626" type="line"/>
      <point x="490" y="626" type="line"/>
      <point x="362" y="495"/>
      <point x="172" y="270"/>
      <point x="17" y="72" type="curve"/>
      <point x="1" y="0" type="line"/>
      <point x="359" y="0" type="line"/>
      <point x="358" y="-11" type="line" smooth="yes"/>
      <point x="347" y="-79"/>
      <point x="327" y="-118"/>
      <point x="265" y="-118" type="curve" smooth="yes"/>
      <point x="246" y="-118"/>
      <point x="232" y="-114"/>
      <point x="228" y="-111" type="curve"/>
      <point x="206" y="-175" type="line"/>
      <point x="213" y="-180"/>
      <point x="246" y="-187"/>
    </contour>
  </outline>
</glyph>
<glyph name="zhook" format="2">
  <advance width="560"/>
  <unicode hex="0225"/>
  <outline>
    <contour>
      <point x="226" y="-187" type="curve" smooth="yes"/>
      <point x="350" y="-187"/>
      <point x="372" y="-128"/>
      <point x="404" y="5" type="curve" smooth="yes"/>
      <point x="418" y="67" type="line"/>
      <point x="129" y="67" type="line"/>
      <point x="195" y="162"/>
      <point x="420" y="387"/>
      <point x="502" y="462" type="curve"/>
      <point x="517" y="518" type="line"/>
      <point x="165" y="518" type="line"/>
      <point x="147" y="451" type="line"/>
      <point x="399" y="451" type="line"/>
      <point x="305" y="371"/>
      <point x="115" y="174"/>
      <point x="35" y="51" type="curve"/>
      <point x="22" y="0" type="line"/>
      <point x="325" y="0" type="line"/>
      <point x="321" y="-20" type="line" smooth="yes"/>
      <point x="308" y="-81"/>
      <point x="289" y="-122"/>
      <point x="228" y="-122" type="curve" smooth="yes"/>
      <point x="208" y="-122"/>
      <point x="194" y="-118"/>
      <point x="189" y="-116" type="curve"/>
      <point x="168" y="-175" type="line"/>
      <point x="175" y="-180"/>
      <point x="206" y="-187"/>
    </contour>
  </outline>
</glyph>
<glyph name="Ecedilla" format="2">
  <advance width="560"/>
  <unicode hex="0228"/>
  <outline>
    <contour>
      <point x="196" y="-189" type="curve" smooth="yes"/>
      <point x="264" y="-189"/>
      <point x="305" y="-158"/>
      <point x="305" y="-100" type="curve" smooth="yes"/>
      <point x="305" y="-67"/>
      <point x="292" y="-55"/>
      <point x="267" y="-41" type="curve"/>
      <point x="277" y="-28"/>
      <point x="287" y="-13"/>
      <point x="297" y="0" type="curve"/>
      <point x="424" y="0" type="line"/>
      <point x="441" y="67" type="line"/>
      <point x="113" y="67" type="line"/>
      <point x="176" y="329" type="line"/>
      <point x="444" y="329" type="line"/>
      <point x="461" y="396" type="line"/>
      <point x="192" y="396" type="line"/>
      <point x="247" y="626" type="line"/>
      <point x="550" y="626" type="line"/>
      <point x="567" y="693" type="line"/>
      <point x="186" y="693" type="line"/>
      <point x="18" y="0" type="line"/>
      <point x="241" y="0" type="line"/>
      <point x="225" y="-21"/>
      <point x="202" y="-55"/>
      <point x="191" y="-75" type="curve"/>
      <point x="200" y="-82"/>
      <point x="229" y="-88"/>
      <point x="229" y="-109" type="curve" smooth="yes"/>
      <point x="229" y="-131"/>
      <point x="211" y="-134"/>
      <point x="191" y="-134" type="curve" smooth="yes"/>
      <point x="165" y="-134"/>
      <point x="150" y="-128"/>
      <point x="140" y="-124" type="curve"/>
      <point x="121" y="-176" type="line"/>
      <point x="133" y="-183"/>
      <point x="156" y="-189"/>
    </contour>
  </outline>
</glyph>
<glyph name="Odieresismacron" format="2">
  <advance width="560"/>
  <unicode hex="022A"/>
  <outline>
    <contour>
      <point x="232" y="-15" type="curve" smooth="yes"/>
      <point x="470" y="-15"/>
      <point x="564" y="318"/>
      <point x="564" y="479" type="curve" smooth="yes"/>
      <point x="564" y="632"/>
      <point x="490" y="694"/>
      <point x="386" y="694" type="curve" smooth="yes"/>
      <point x="148" y="694"/>
      <point x="53" y="360"/>
      <point x="53" y="200" type="curve" smooth="yes"/>
      <point x="53" y="46"/>
      <point x="128" y="-15"/>
    </contour>
    <contour>
      <point x="241" y="53" type="curve" smooth="yes"/>
      <point x="177" y="53"/>
      <point x="132" y="93"/>
      <point x="132" y="206" type="curve" smooth="yes"/>
      <point x="132" y="382"/>
      <point x="224" y="626"/>
      <point x="376" y="626" type="curve" smooth="yes"/>
      <point x="442" y="626"/>
      <point x="485" y="585"/>
      <point x="485" y="473" type="curve" smooth="yes"/>
      <point x="485" y="297"/>
      <point x="396" y="53"/>
    </contour>
    <contour>
      <point x="285" y="734" type="curve" smooth="yes"/>
      <point x="312" y="734"/>
      <point x="344" y="757"/>
      <point x="344" y="792" type="curve" smooth="yes"/>
      <point x="344" y="820"/>
      <point x="322" y="838"/>
      <point x="297" y="838" type="curve" smooth="yes"/>
      <point x="269" y="838"/>
      <point x="240" y="816"/>
      <point x="240" y="779" type="curve" smooth="yes"/>
      <point x="240" y="752"/>
      <point x="261" y="734"/>
    </contour>
    <contour>
      <point x="494" y="734" type="curve" smooth="yes"/>
      <point x="521" y="734"/>
      <point x="553" y="757"/>
      <point x="553" y="792" type="curve" smooth="yes"/>
      <point x="553" y="820"/>
      <point x="531" y="838"/>
      <point x="505" y="838" type="curve" smooth="yes"/>
      <point x="477" y="838"/>
      <point x="450" y="816"/>
      <point x="450" y="779" type="curve" smooth="yes"/>
      <point x="450" y="752"/>
      <point x="468" y="734"/>
    </contour>
    <contour>
      <point x="293" y="870" type="line"/>
      <point x="545" y="870" type="line"/>
      <point x="558" y="927" type="line"/>
      <point x="306" y="927" type="line"/>
    </contour>
  </outline>
</glyph>
<glyph name="Odotaccentmacron" format="2">
  <advance width="560"/>
  <unicode hex="0230"/>
  <outline>
    <contour>
      <point x="232" y="-15" type="curve" smooth="yes"/>
      <point x="470" y="-15"/>
      <point x="564" y="318"/>
      <point x="564" y="479" type="curve" smooth="yes"/>
      <point x="564" y="632"/>
      <point x="490" y="694"/>
      <point x="386" y="694" type="curve" smooth="yes"/>
      <point x="148" y="694"/>
      <point x="53" y="360"/>
      <point x="53" y="200" type="curve" smooth="yes"/>
      <point x="53" y="46"/>
      <point x="128" y="-15"/>
    </contour>
    <contour>
      <point x="241" y="53" type="curve" smooth="yes"/>
      <point x="177" y="53"/>
      <point x="132" y="93"/>
      <point x="132" y="206" type="curve" smooth="yes"/>
      <point x="132" y="382"/>
      <point x="224" y="626"/>
      <point x="376" y="626" type="curve" smooth="yes"/>
      <point x="442" y="626"/>
      <point x="485" y="585"/>
      <point x="485" y="473" type="curve" smooth="yes"/>
      <point x="485" y="297"/>
      <point x="396" y="53"/>
    </contour>
    <contour>
      <point x="411" y="734" type="curve" smooth="yes"/>
      <point x="438" y="734"/>
      <point x="470" y="757"/>
      <point x="470" y="794" type="curve" smooth="yes"/>
      <point x="470" y="823"/>
      <point x="448" y="842"/>
      <point x="422" y="842" type="curve" smooth="yes"/>
      <point x="392" y="842"/>
      <point x="364" y="817"/>
      <point x="364" y="780" type="curve" smooth="yes"/>
      <point x="364" y="752"/>
      <point x="384" y="734"/>
    </contour>
    <contour>
      <point x="308" y="870" type="line"/>
      <point x="560" y="870" type="line"/>
      <point x="575" y="927" type="line"/>
      <point x="323" y="927" type="line"/>
    </contour>
  </outline>
</glyph>
<glyph name="lcurl" format="2">
  <advance width="560"/>
  <unicode hex="0234"/>
  <outline>
    <contour>
      <point x="278" y="-185" type="curve" smooth="yes"/>
      <point x="371" y="-185"/>
      <point x="436" y="-116"/>
      <point x="436" y="-25" type="curve" smooth="yes"/>
      <point x="436" y="33"/>
      <point x="410" y="84"/>
      <point x="335" y="84" type="curve" smooth="yes"/>
      <point x="309" y="84"/>
      <point x="274" y="76"/>
      <point x="245" y="54" type="curve"/>
      <point x="417" y="770" type="line"/>
      <point x="186" y="770" type="line"/>
      <point x="169" y="701" type="line"/>
      <point x="321" y="701" type="line"/>
      <point x="157" y="15" type="line" smooth="yes"/>
      <point x="153" y="4"/>
      <point x="145" y="-23"/>
      <point x="146" y="-33" type="curve"/>
      <point x="23" y="-151" type="line"/>
      <point x="60" y="-192" type="line"/>
      <point x="151" y="-105" type="line"/>
      <point x="165" y="-154"/>
      <point x="203" y="-185"/>
    </contour>
    <contour>
      <point x="278" y="-125" type="curve" smooth="yes"/>
      <point x="240" y="-125"/>
      <point x="218" y="-102"/>
      <point x="218" y="-65" type="curve" smooth="yes"/>
      <point x="218" y="-60"/>
      <point x="219" y="-51"/>
      <point x="225" y="-17" type="curve"/>
      <point x="255" y="9"/>
      <point x="280" y="27"/>
      <point x="318" y="27" type="curve" smooth="yes"/>
      <point x="357" y="27"/>
      <point x="375" y="7"/>
      <point x="375" y="-26" type="curve" smooth="yes"/>
      <point x="375" y="-83"/>
      <point x="331" y="-125"/>
    </contour>
  </outline>
</glyph>
<glyph name="jdotless" format="2">
  <advance width="560"/>
  <unicode hex="0237"/>
  <anchor x="173" y="-185" name="bottom"/>
  <anchor x="342" y="518" name="top"/>
  <outline>
    <contour>
      <point x="129" y="-187" type="curve" smooth="yes"/>
      <point x="253" y="-187"/>
      <point x="336" y="-135"/>
      <point x="369" y="1" type="curve" smooth="yes"/>
      <point x="493" y="518" type="line"/>
      <point x="206" y="518" type="line"/>
      <point x="191" y="451" type="line"/>
      <point x="400" y="451" type="line"/>
      <point x="291" y="3" type="line" smooth="yes"/>
      <point x="269" y="-90"/>
      <point x="230" y="-121"/>
      <point x="147" y="-121" type="curve" smooth="yes"/>
      <point x="110" y="-121"/>
      <point x="51" y="-106"/>
      <point x="21" y="-84" type="curve"/>
      <point x="-9" y="-150" type="line"/>
      <point x="36" y="-176"/>
      <point x="78" y="-187"/>
    </contour>
  </outline>
</glyph>
<glyph name="Cstroke" format="2">
  <advance width="560"/>
  <unicode hex="023B"/>
  <outline>
    <contour>
      <point x="143" y="-101" type="line"/>
      <point x="193" y="-3" type="line"/>
      <point x="215" y="-11"/>
      <point x="241" y="-15"/>
      <point x="268" y="-15" type="curve" smooth="yes"/>
      <point x="361" y="-15"/>
      <point x="432" y="14"/>
      <point x="447" y="25" type="curve"/>
      <point x="437" y="94" type="line"/>
      <point x="417" y="81"/>
      <point x="354" y="55"/>
      <point x="285" y="55" type="curve" smooth="yes"/>
      <point x="265" y="55"/>
      <point x="245" y="57"/>
      <point x="228" y="65" type="curve"/>
      <point x="518" y="628" type="line"/>
      <point x="546" y="620"/>
      <point x="567" y="608"/>
      <point x="581" y="598" type="curve"/>
      <point x="623" y="661" type="line"/>
      <point x="609" y="672"/>
      <point x="586" y="685"/>
      <point x="553" y="696" type="curve"/>
      <point x="580" y="747" type="line"/>
      <point x="518" y="773" type="line"/>
      <point x="485" y="707" type="line"/>
      <point x="474" y="708"/>
      <point x="464" y="709"/>
      <point x="454" y="709" type="curve" smooth="yes"/>
      <point x="220" y="709"/>
      <point x="62" y="465"/>
      <point x="62" y="225" type="curve" smooth="yes"/>
      <point x="62" y="139"/>
      <point x="90" y="72"/>
      <point x="138" y="30" type="curve"/>
      <point x="85" y="-74" type="line"/>
    </contour>
    <contour>
      <point x="176" y="105" type="line"/>
      <point x="153" y="138"/>
      <point x="141" y="185"/>
      <point x="141" y="240" type="curve" smooth="yes"/>
      <point x="141" y="441"/>
      <point x="262" y="638"/>
      <point x="450" y="638" type="curve"/>
    </contour>
  </outline>
</glyph>
<glyph name="Tdiagonalstroke" format="2">
  <advance width="560"/>
  <unicode hex="023E"/>
  <outline>
    <contour>
      <point x="33" y="-37" type="line"/>
      <point x="227" y="187" type="line"/>
      <point x="182" y="0" type="line"/>
      <point x="261" y="0" type="line"/>
      <point x="336" y="314" type="line"/>
      <point x="692" y="726" type="line"/>
      <point x="642" y="758" type="line"/>
      <point x="586" y="693" type="line"/>
      <point x="157" y="693" type="line"/>
      <point x="141" y="626" type="line"/>
      <point x="334" y="626" type="line"/>
      <point x="257" y="312" type="line"/>
      <point x="-16" y="-5" type="line"/>
    </contour>
    <contour>
      <point x="366" y="438" type="line"/>
      <point x="411" y="626" type="line"/>
      <point x="530" y="626" type="line"/>
    </contour>
  </outline>
</glyph>
<glyph name="zswashtail" format="2">
  <advance width="560"/>
  <unicode hex="0240"/>
  <outline>
    <contour>
      <point x="340" y="-185" type="curve" smooth="yes"/>
      <point x="354" y="-185"/>
      <point x="384" y="-183"/>
      <point x="399" y="-177" type="curve"/>
      <point x="407" y="-106" type="line"/>
      <point x="389" y="-111"/>
      <point x="371" y="-110"/>
      <point x="372" y="-110" type="curve" smooth="yes"/>
      <point x="300" y="-110"/>
      <point x="281" y="-70"/>
      <point x="247" y="-25" type="curve" smooth="yes"/>
      <point x="204" y="30"/>
      <point x="173" y="46"/>
      <point x="126" y="63" type="curve"/>
      <point x="197" y="167"/>
      <point x="427" y="388"/>
      <point x="510" y="462" type="curve"/>
      <point x="522" y="518" type="line"/>
      <point x="161" y="518" type="line"/>
      <point x="148" y="451" type="line"/>
      <point x="402" y="451" type="line"/>
      <point x="310" y="367"/>
      <point x="117" y="174"/>
      <point x="36" y="51" type="curve"/>
      <point x="25" y="0" type="line"/>
      <point x="49" y="0" type="line" smooth="yes"/>
      <point x="127" y="0"/>
      <point x="154" y="-36"/>
      <point x="192" y="-86" type="curve" smooth="yes"/>
      <point x="233" y="-137"/>
      <point x="253" y="-185"/>
    </contour>
  </outline>
</glyph>
<glyph name="estroke" format="2">
  <advance width="560"/>
  <unicode hex="0247"/>
  <anchor x="218" y="0" name="bottom"/>
  <anchor x="342" y="518" name="top"/>
  <outline>
    <contour>
      <point x="156" y="-91" type="line"/>
      <point x="193" y="-5" type="line"/>
      <point x="212" y="-10"/>
      <point x="236" y="-12"/>
      <point x="261" y="-12" type="curve" smooth="yes"/>
      <point x="373" y="-12"/>
      <point x="439" y="12"/>
      <point x="457" y="25" type="curve"/>
      <point x="451" y="93" type="line"/>
      <point x="439" y="83"/>
      <point x="344" y="53"/>
      <point x="279" y="53" type="curve" smooth="yes"/>
      <point x="258" y="53"/>
      <point x="238" y="55"/>
      <point x="221" y="57" type="curve"/>
      <point x="290" y="216" type="line"/>
      <point x="401" y="228"/>
      <point x="527" y="261"/>
      <point x="527" y="406" type="curve" smooth="yes"/>
      <point x="527" y="455"/>
      <point x="499" y="506"/>
      <point x="424" y="523" type="curve"/>
      <point x="463" y="611" type="line"/>
      <point x="402" y="624" type="line"/>
      <point x="362" y="530" type="line"/>
      <point x="171" y="528"/>
      <point x="52" y="360"/>
      <point x="52" y="168" type="curve" smooth="yes"/>
      <point x="52" y="112"/>
      <point x="70" y="49"/>
      <point x="136" y="15" type="curve"/>
      <point x="96" y="-77" type="line"/>
    </contour>
    <contour>
      <point x="165" y="80" type="line"/>
      <point x="137" y="103"/>
      <point x="125" y="142"/>
      <point x="129" y="206" type="curve"/>
      <point x="158" y="206"/>
      <point x="190" y="207"/>
      <point x="220" y="209" type="curve"/>
    </contour>
    <contour>
      <point x="143" y="266" type="curve"/>
      <point x="166" y="362"/>
      <point x="231" y="451"/>
      <point x="332" y="462" type="curve"/>
      <point x="248" y="267" type="line"/>
      <point x="215" y="265"/>
      <point x="179" y="266"/>
    </contour>
    <contour>
      <point x="316" y="275" type="curve"/>
      <point x="396" y="458" type="line"/>
      <point x="434" y="448"/>
      <point x="444" y="425"/>
      <point x="444" y="398" type="curve" smooth="yes"/>
      <point x="444" y="324"/>
      <point x="399" y="291"/>
    </contour>
  </outline>
</glyph>
<glyph name="Jstroke" format="2">
  <advance width="560"/>
  <unicode hex="0248"/>
  <anchor x="218" y="0" name="bottom"/>
  <anchor x="382" y="685" name="top"/>
  <outline>
    <contour>
      <point x="191" y="-15" type="curve" smooth="yes"/>
      <point x="371" y="-15"/>
      <point x="414" y="95"/>
      <point x="444" y="220" type="curve" smooth="yes"/>
      <point x="469" y="328" type="line"/>
      <point x="549" y="328" type="line"/>
      <point x="564" y="392" type="line"/>
      <point x="485" y="392" type="line"/>
      <point x="557" y="693" type="line"/>
      <point x="233" y="693" type="line"/>
      <point x="217" y="626" type="line"/>
      <point x="464" y="626" type="line"/>
      <point x="407" y="392" type="line"/>
      <point x="268" y="392" type="line"/>
      <point x="252" y="328" type="line"/>
      <point x="391" y="328" type="line"/>
      <point x="367" y="230" type="line" smooth="yes"/>
      <point x="339" y="108"/>
      <point x="289" y="53"/>
      <point x="194" y="53" type="curve" smooth="yes"/>
      <point x="122" y="53"/>
      <point x="77" y="91"/>
      <point x="58" y="110" type="curve"/>
      <point x="17" y="45" type="line"/>
      <point x="34" y="25"/>
      <point x="97" y="-15"/>
    </contour>
  </outline>
</glyph>
<glyph name="apostrophemod" format="2">
  <advance width="560"/>
  <unicode hex="02BC"/>
  <outline>
    <contour>
      <point x="314" y="570" type="line"/>
      <point x="355" y="608"/>
      <point x="412" y="700"/>
      <point x="428" y="776" type="curve"/>
      <point x="344" y="776" type="line"/>
      <point x="334" y="715"/>
      <point x="304" y="650"/>
      <point x="264" y="589" type="curve"/>
    </contour>
  </outline>
</glyph>
<glyph name="ogonek" format="2">
  <advance width="560"/>
  <unicode hex="02DB"/>
  <outline>
    <contour>
      <point x="203" y="-186" type="curve" smooth="yes"/>
      <point x="221" y="-186"/>
      <point x="237" y="-183"/>
      <point x="249" y="-176" type="curve"/>
      <point x="256" y="-120" type="line"/>
      <point x="243" y="-124"/>
      <point x="232" y="-126"/>
      <point x="221" y="-126" type="curve" smooth="yes"/>
      <point x="191" y="-126"/>
      <point x="180" y="-116"/>
      <point x="180" y="-102" type="curve" smooth="yes"/>
      <point x="180" y="-62"/>
      <point x="247" y="-23"/>
      <point x="289" y="6" type="curve"/>
      <point x="205" y="6" type="line"/>
      <point x="194" y="-2"/>
      <point x="106" y="-62"/>
      <point x="106" y="-122" type="curve" smooth="yes"/>
      <point x="106" y="-161"/>
      <point x="131" y="-186"/>
    </contour>
  </outline>
</glyph>
<glyph name="tilde" format="2">
  <advance width="560"/>
  <unicode hex="02DC"/>
  <outline>
    <contour>
      <point x="240" y="617" type="line"/>
      <point x="252" y="637"/>
      <point x="271" y="667"/>
      <point x="301" y="667" type="curve" smooth="yes"/>
      <point x="317" y="667"/>
      <point x="333" y="660"/>
      <point x="354" y="648" type="curve" smooth="yes"/>
      <point x="373" y="637"/>
      <point x="392" y="627"/>
      <point x="419" y="627" type="curve" smooth="yes"/>
      <point x="477" y="627"/>
      <point x="509" y="656"/>
      <point x="535" y="706" type="curve"/>
      <point x="494" y="732" type="line"/>
      <point x="482" y="713"/>
      <point x="463" y="681"/>
      <point x="432" y="681" type="curve" smooth="yes"/>
      <point x="417" y="681"/>
      <point x="402" y="689"/>
      <point x="382" y="699" type="curve" smooth="yes"/>
      <point x="362" y="711"/>
      <point x="343" y="723"/>
      <point x="315" y="723" type="curve" smooth="yes"/>
      <point x="256" y="723"/>
      <point x="224" y="692"/>
      <point x="199" y="642" type="curve"/>
    </contour>
  </outline>
</glyph>
<glyph name="breveinvertedcomb" format="2">
  <unicode hex="0311"/>
  <anchor x="340" y="518" name="_top"/>
  <outline>
    <contour>
      <point x="231" y="616" type="curve"/>
      <point x="281" y="616" type="line"/>
      <point x="288" y="641"/>
      <point x="306" y="691"/>
      <point x="371" y="691" type="curve" smooth="yes"/>
      <point x="413" y="691"/>
      <point x="438" y="667"/>
      <point x="438" y="626" type="curve" smooth="yes"/>
      <point x="438" y="621"/>
      <point x="438" y="618"/>
      <point x="437" y="616" type="curve"/>
      <point x="482" y="616" type="line"/>
      <point x="484" y="626"/>
      <point x="485" y="636"/>
      <point x="485" y="646" type="curve" smooth="yes"/>
      <point x="485" y="693"/>
      <point x="462" y="747"/>
      <point x="378" y="747" type="curve" smooth="yes"/>
      <point x="292" y="747"/>
      <point x="244" y="697"/>
    </contour>
  </outline>
</glyph>
<glyph name="commaturnedabovecomb" format="2">
  <unicode hex="0312"/>
  <anchor x="363" y="518" name="_top"/>
  <anchor x="425" y="777" name="top"/>
  <outline>
    <contour>
      <point x="318" y="612" type="curve"/>
      <point x="397" y="612" type="line"/>
      <point x="415" y="692"/>
      <point x="436" y="717"/>
      <point x="485" y="738" type="curve"/>
      <point x="459" y="777" type="line"/>
      <point x="387" y="765"/>
      <point x="327" y="708"/>
    </contour>
  </outline>
</glyph>
<glyph name="macronbelowcomb" format="2">
  <unicode hex="0331"/>
  <anchor x="238" y="0" name="_bottom"/>
  <anchor x="208" y="-125" name="bottom"/>
  <outline>
    <contour>
      <point x="75" y="-125" type="line"/>
      <point x="342" y="-125" type="line"/>
      <point x="357" y="-62" type="line"/>
      <point x="90" y="-62" type="line"/>
    </contour>
  </outline>
</glyph>
<glyph name="Theta" format="2">
  <advance width="560"/>
  <unicode hex="0398"/>
  <outline>
    <contour>
      <point x="232" y="-15" type="curve" smooth="yes"/>
      <point x="470" y="-15"/>
      <point x="564" y="325"/>
      <point x="564" y="486" type="curve" smooth="yes"/>
      <point x="564" y="646"/>
      <point x="490" y="709"/>
      <point x="386" y="709" type="curve" smooth="yes"/>
      <point x="147" y="709"/>
      <point x="52" y="371"/>
      <point x="52" y="208" type="curve" smooth="yes"/>
      <point x="52" y="49"/>
      <point x="128" y="-15"/>
    </contour>
    <contour>
      <point x="241" y="53" type="curve" smooth="yes"/>
      <point x="177" y="53"/>
      <point x="134" y="93"/>
      <point x="134" y="212" type="curve" smooth="yes"/>
      <point x="134" y="389"/>
      <point x="224" y="641"/>
      <point x="376" y="641" type="curve" smooth="yes"/>
      <point x="440" y="641"/>
      <point x="482" y="600"/>
      <point x="482" y="483" type="curve" smooth="yes"/>
      <point x="482" y="305"/>
      <point x="394" y="53"/>
    </contour>
    <contour>
      <point x="220" y="314" type="line"/>
      <point x="380" y="314" type="line"/>
      <point x="396" y="384" type="line"/>
      <point x="236" y="384" type="line"/>
    </contour>
  </outline>
</glyph>
<glyph name="Sigma" format="2">
  <advance width="560"/>
  <unicode hex="03A3"/>
  <outline>
    <contour>
      <point x="-22" y="0" type="line"/>
      <point x="431" y="0" type="line"/>
      <point x="448" y="67" type="line"/>
      <point x="79" y="67" type="line"/>
      <point x="178" y="176"/>
      <point x="264" y="253"/>
      <point x="373" y="355" type="curve"/>
      <point x="316" y="459"/>
      <point x="266" y="544"/>
      <point x="234" y="626" type="curve"/>
      <point x="582" y="626" type="line"/>
      <point x="598" y="693" type="line"/>
      <point x="158" y="693" type="line"/>
      <point x="146" y="645" type="line"/>
      <point x="154" y="616"/>
      <point x="214" y="491"/>
      <point x="284" y="363" type="curve"/>
      <point x="181" y="266"/>
      <point x="55" y="148"/>
      <point x="-9" y="60" type="curve"/>
    </contour>
  </outline>
</glyph>
<glyph name="Psi" format="2">
  <advance width="560"/>
  <unicode hex="03A8"/>
  <outline>
    <contour>
      <point x="174" y="0" type="line"/>
      <point x="252" y="0" type="line"/>
      <point x="297" y="182" type="line"/>
      <point x="458" y="179"/>
      <point x="514" y="308"/>
      <point x="554" y="475" type="curve" smooth="yes"/>
      <point x="607" y="693" type="line"/>
      <point x="528" y="693" type="line"/>
      <point x="474" y="470" type="line" smooth="yes"/>
      <point x="438" y="316"/>
      <point x="393" y="251"/>
      <point x="314" y="253" type="curve"/>
      <point x="380" y="532" type="line"/>
      <point x="300" y="532" type="line"/>
      <point x="235" y="252" type="line"/>
      <point x="154" y="248"/>
      <point x="135" y="294"/>
      <point x="177" y="470" type="curve" smooth="yes"/>
      <point x="231" y="693" type="line"/>
      <point x="153" y="693" type="line"/>
      <point x="98" y="461" type="line" smooth="yes"/>
      <point x="52" y="278"/>
      <point x="91" y="174"/>
      <point x="217" y="181" type="curve"/>
    </contour>
  </outline>
</glyph>
<glyph name="delta" format="2">
  <advance width="560"/>
  <unicode hex="03B4"/>
  <outline>
    <contour>
      <point x="237" y="-12" type="curve" smooth="yes"/>
      <point x="440" y="-12"/>
      <point x="511" y="152"/>
      <point x="511" y="298" type="curve" smooth="yes"/>
      <point x="511" y="424"/>
      <point x="417" y="487"/>
      <point x="351" y="545" type="curve" smooth="yes"/>
      <point x="324" y="570"/>
      <point x="299" y="587"/>
      <point x="299" y="633" type="curve" smooth="yes"/>
      <point x="299" y="700"/>
      <point x="370" y="710"/>
      <point x="415" y="710" type="curve" smooth="yes"/>
      <point x="476" y="710"/>
      <point x="530" y="682"/>
      <point x="541" y="673" type="curve"/>
      <point x="575" y="735" type="line"/>
      <point x="550" y="751"/>
      <point x="504" y="776"/>
      <point x="432" y="776" type="curve" smooth="yes"/>
      <point x="286" y="776"/>
      <point x="223" y="710"/>
      <point x="223" y="622" type="curve" smooth="yes"/>
      <point x="223" y="562"/>
      <point x="252" y="523"/>
      <point x="286" y="494" type="curve"/>
      <point x="120" y="433"/>
      <point x="65" y="295"/>
      <point x="65" y="182" type="curve" smooth="yes"/>
      <point x="65" y="79"/>
      <point x="111" y="-12"/>
    </contour>
    <contour>
      <point x="248" y="55" type="curve" smooth="yes"/>
      <point x="170" y="55"/>
      <point x="144" y="124"/>
      <point x="144" y="184" type="curve" smooth="yes"/>
      <point x="144" y="286"/>
      <point x="199" y="402"/>
      <point x="343" y="453" type="curve"/>
      <point x="387" y="415"/>
      <point x="435" y="379"/>
      <point x="435" y="295" type="curve" smooth="yes"/>
      <point x="435" y="193"/>
      <point x="371" y="55"/>
    </contour>
  </outline>
</glyph>
<glyph name="lambda" format="2">
  <advance width="560"/>
  <unicode hex="03BB"/>
  <outline>
    <contour>
      <point x="0" y="0" type="curve"/>
      <point x="79" y="0" type="line"/>
      <point x="133" y="141"/>
      <point x="230" y="297"/>
      <point x="346" y="442" type="curve"/>
      <point x="378" y="226"/>
      <point x="379" y="104"/>
      <point x="383" y="0" type="curve"/>
      <point x="457" y="0" type="line"/>
      <point x="449" y="176"/>
      <point x="433" y="392"/>
      <point x="377" y="659" type="curve" smooth="yes"/>
      <point x="361" y="738"/>
      <point x="322" y="776"/>
      <point x="233" y="776" type="curve" smooth="yes"/>
      <point x="212" y="776"/>
      <point x="189" y="775"/>
      <point x="171" y="768" type="curve"/>
      <point x="167" y="704" type="line"/>
      <point x="184" y="712"/>
      <point x="205" y="714"/>
      <point x="223" y="714" type="curve" smooth="yes"/>
      <point x="300" y="714"/>
      <point x="307" y="666"/>
      <point x="331" y="528" type="curve"/>
      <point x="189" y="356"/>
      <point x="65" y="168"/>
    </contour>
  </outline>
</glyph>
<glyph name="xi" format="2">
  <advance width="560"/>
  <unicode hex="03BE"/>
  <outline>
    <contour>
      <point x="336" y="-190" type="line"/>
      <point x="389" y="-149"/>
      <point x="420" y="-85"/>
      <point x="420" y="-41" type="curve" smooth="yes"/>
      <point x="420" y="27"/>
      <point x="383" y="53"/>
      <point x="285" y="78" type="curve" smooth="yes"/>
      <point x="172" y="106"/>
      <point x="148" y="119"/>
      <point x="148" y="191" type="curve" smooth="yes"/>
      <point x="148" y="326"/>
      <point x="303" y="382"/>
      <point x="409" y="382" type="curve" smooth="yes"/>
      <point x="464" y="382" type="line"/>
      <point x="480" y="450" type="line"/>
      <point x="401" y="450" type="line" smooth="yes"/>
      <point x="315" y="450"/>
      <point x="263" y="480"/>
      <point x="263" y="546" type="curve" smooth="yes"/>
      <point x="263" y="656"/>
      <point x="357" y="709"/>
      <point x="448" y="709" type="curve" smooth="yes"/>
      <point x="507" y="709"/>
      <point x="538" y="693"/>
      <point x="555" y="688" type="curve"/>
      <point x="584" y="755" type="line"/>
      <point x="573" y="761"/>
      <point x="535" y="776"/>
      <point x="453" y="776" type="curve" smooth="yes"/>
      <point x="335" y="776"/>
      <point x="184" y="707"/>
      <point x="184" y="533" type="curve" smooth="yes"/>
      <point x="184" y="470"/>
      <point x="223" y="434"/>
      <point x="263" y="418" type="curve"/>
      <point x="161" y="383"/>
      <point x="71" y="313"/>
      <point x="71" y="184" type="curve" smooth="yes"/>
      <point x="71" y="107"/>
      <point x="88" y="49"/>
      <point x="231" y="19" type="curve" smooth="yes"/>
      <point x="307" y="3"/>
      <point x="343" y="-8"/>
      <point x="343" y="-40" type="curve" smooth="yes"/>
      <point x="343" y="-97"/>
      <point x="301" y="-139"/>
      <point x="279" y="-157" type="curve"/>
    </contour>
  </outline>
</glyph>
<glyph name="Tshe-cy" format="2">
  <advance width="560"/>
  <unicode hex="040B"/>
  <outline>
    <contour>
      <point x="62" y="0" type="line"/>
      <point x="140" y="0" type="line"/>
      <point x="227" y="351" type="line"/>
      <point x="259" y="361"/>
      <point x="301" y="369"/>
      <point x="332" y="369" type="curve" smooth="yes"/>
      <point x="453" y="369"/>
      <point x="419" y="252"/>
      <point x="405" y="189" type="curve" smooth="yes"/>
      <point x="359" y="0" type="line"/>
      <point x="438" y="0" type="line"/>
      <point x="484" y="187" type="line" smooth="yes"/>
      <point x="514" y="307"/>
      <point x="515" y="436"/>
      <point x="355" y="436" type="curve" smooth="yes"/>
      <point x="320" y="436"/>
      <point x="280" y="429"/>
      <point x="241" y="418" type="curve"/>
      <point x="291" y="626" type="line"/>
      <point x="480" y="626" type="line"/>
      <point x="497" y="693" type="line"/>
      <point x="132" y="693" type="line"/>
      <point x="116" y="626" type="line"/>
      <point x="212" y="626" type="line"/>
    </contour>
  </outline>
</glyph>
<glyph name="Zhe-cy" format="2">
  <advance width="560"/>
  <unicode hex="0416"/>
  <anchor x="478" y="0" name="bottomright"/>
  <anchor x="382" y="685" name="top"/>
  <outline>
    <contour>
      <point x="-51" y="0" type="curve"/>
      <point x="33" y="0" type="line"/>
      <point x="100" y="119"/>
      <point x="188" y="271"/>
      <point x="268" y="339" type="curve"/>
      <point x="187" y="0" type="line"/>
      <point x="261" y="0" type="line"/>
      <point x="341" y="338" type="line"/>
      <point x="390" y="267"/>
      <point x="407" y="117"/>
      <point x="414" y="0" type="curve"/>
      <point x="491" y="0" type="line"/>
      <point x="488" y="127"/>
      <point x="451" y="283"/>
      <point x="407" y="366" type="curve"/>
      <point x="484" y="468"/>
      <point x="556" y="555"/>
      <point x="652" y="693" type="curve"/>
      <point x="566" y="693" type="line"/>
      <point x="491" y="580"/>
      <point x="421" y="474"/>
      <point x="355" y="391" type="curve"/>
      <point x="427" y="693" type="line"/>
      <point x="353" y="693" type="line"/>
      <point x="279" y="387" type="line"/>
      <point x="252" y="475"/>
      <point x="231" y="579"/>
      <point x="213" y="693" type="curve"/>
      <point x="133" y="693" type="line"/>
      <point x="162" y="552"/>
      <point x="191" y="474"/>
      <point x="219" y="376" type="curve"/>
      <point x="137" y="298"/>
      <point x="16" y="126"/>
    </contour>
  </outline>
</glyph>
<glyph name="Ze-cy" format="2">
  <advance width="560"/>
  <unicode hex="0417"/>
  <anchor x="218" y="0" name="bottom"/>
  <anchor x="382" y="685" name="top"/>
  <outline>
    <contour>
      <point x="204" y="-12" type="curve" smooth="yes"/>
      <point x="326" y="-12"/>
      <point x="496" y="39"/>
      <point x="496" y="229" type="curve" smooth="yes"/>
      <point x="496" y="305"/>
      <point x="441" y="350"/>
      <point x="390" y="368" type="curve"/>
      <point x="492" y="405"/>
      <point x="546" y="486"/>
      <point x="546" y="562" type="curve" smooth="yes"/>
      <point x="546" y="657"/>
      <point x="460" y="705"/>
      <point x="357" y="705" type="curve" smooth="yes"/>
      <point x="276" y="705"/>
      <point x="200" y="679"/>
      <point x="155" y="658" type="curve"/>
      <point x="163" y="596" type="line"/>
      <point x="198" y="615"/>
      <point x="256" y="638"/>
      <point x="342" y="638" type="curve" smooth="yes"/>
      <point x="416" y="638"/>
      <point x="462" y="603"/>
      <point x="462" y="553" type="curve" smooth="yes"/>
      <point x="462" y="428"/>
      <point x="318" y="402"/>
      <point x="225" y="402" type="curve" smooth="yes"/>
      <point x="184" y="402" type="line"/>
      <point x="167" y="335" type="line"/>
      <point x="209" y="335" type="line" smooth="yes"/>
      <point x="324" y="335"/>
      <point x="414" y="309"/>
      <point x="414" y="221" type="curve" smooth="yes"/>
      <point x="414" y="97"/>
      <point x="304" y="53"/>
      <point x="203" y="53" type="curve" smooth="yes"/>
      <point x="137" y="53"/>
      <point x="79" y="68"/>
      <point x="33" y="100" type="curve"/>
      <point x="-6" y="37" type="line"/>
      <point x="68" y="-7"/>
      <point x="130" y="-12"/>
    </contour>
  </outline>
</glyph>
<glyph name="El-cy" format="2">
  <advance width="560"/>
  <unicode hex="041B"/>
  <outline>
    <contour>
      <point x="-19" y="-8" type="line"/>
      <point x="91" y="1"/>
      <point x="156" y="93"/>
      <point x="214" y="212" type="curve" smooth="yes"/>
      <point x="270" y="324"/>
      <point x="302" y="439"/>
      <point x="336" y="585" type="curve"/>
      <point x="345" y="626" type="line"/>
      <point x="504" y="626" type="line"/>
      <point x="355" y="0" type="line"/>
      <point x="434" y="0" type="line"/>
      <point x="600" y="693" type="line"/>
      <point x="277" y="693" type="line"/>
      <point x="266" y="634" type="line"/>
      <point x="229" y="462"/>
      <point x="186" y="315"/>
      <point x="136" y="220" type="curve" smooth="yes"/>
      <point x="81" y="111"/>
      <point x="37" y="69"/>
      <point x="-28" y="57" type="curve"/>
    </contour>
  </outline>
</glyph>
<glyph name="Shcha-cy" format="2">
  <advance width="560"/>
  <unicode hex="0429"/>
  <outline>
    <contour>
      <point x="334" y="-185" type="line"/>
      <point x="416" y="-185" type="line"/>
      <point x="477" y="68" type="line"/>
      <point x="431" y="68" type="line"/>
      <point x="582" y="693" type="line"/>
      <point x="505" y="693" type="line"/>
      <point x="354" y="68" type="line"/>
      <point x="263" y="68" type="line"/>
      <point x="352" y="430" type="line"/>
      <point x="274" y="430" type="line"/>
      <point x="185" y="68" type="line"/>
      <point x="94" y="68" type="line"/>
      <point x="245" y="693" type="line"/>
      <point x="168" y="693" type="line"/>
      <point x="3" y="0" type="line"/>
      <point x="377" y="0" type="line"/>
    </contour>
  </outline>
</glyph>
<glyph name="Hardsign-cy" format="2">
  <advance width="560"/>
  <unicode hex="042A"/>
  <anchor x="382" y="685" name="top"/>
  <outline>
    <contour>
      <point x="214" y="-6" type="curve" smooth="yes"/>
      <point x="440" y="-6"/>
      <point x="510" y="127"/>
      <point x="510" y="271" type="curve" smooth="yes"/>
      <point x="510" y="404"/>
      <point x="426" y="441"/>
      <point x="319" y="441" type="curve" smooth="yes"/>
      <point x="299" y="441"/>
      <point x="278" y="441"/>
      <point x="257" y="438" type="curve"/>
      <point x="319" y="693" type="line"/>
      <point x="130" y="693" type="line"/>
      <point x="113" y="626" type="line"/>
      <point x="223" y="626" type="line"/>
      <point x="75" y="9" type="line"/>
      <point x="122" y="0"/>
      <point x="169" y="-6"/>
    </contour>
    <contour>
      <point x="226" y="59" type="curve" smooth="yes"/>
      <point x="205" y="59"/>
      <point x="187" y="60"/>
      <point x="167" y="64" type="curve"/>
      <point x="240" y="368" type="line"/>
      <point x="254" y="370"/>
      <point x="282" y="373"/>
      <point x="304" y="373" type="curve" smooth="yes"/>
      <point x="390" y="373"/>
      <point x="426" y="336"/>
      <point x="426" y="259" type="curve" smooth="yes"/>
      <point x="426" y="131"/>
      <point x="365" y="59"/>
    </contour>
  </outline>
</glyph>
<glyph name="Softsign-cy" format="2">
  <advance width="560"/>
  <unicode hex="042C"/>
  <outline>
    <contour>
      <point x="178" y="-6" type="curve" smooth="yes"/>
      <point x="401" y="-6"/>
      <point x="530" y="84"/>
      <point x="530" y="264" type="curve" smooth="yes"/>
      <point x="530" y="369"/>
      <point x="449" y="435"/>
      <point x="273" y="435" type="curve" smooth="yes"/>
      <point x="245" y="435"/>
      <point x="218" y="435"/>
      <point x="189" y="432" type="curve"/>
      <point x="253" y="693" type="line"/>
      <point x="175" y="693" type="line"/>
      <point x="11" y="9" type="line"/>
      <point x="57" y="-3"/>
      <point x="121" y="-6"/>
    </contour>
    <contour>
      <point x="205" y="59" type="curve" smooth="yes"/>
      <point x="156" y="59"/>
      <point x="125" y="60"/>
      <point x="100" y="64" type="curve"/>
      <point x="173" y="367" type="line"/>
      <point x="188" y="368"/>
      <point x="217" y="370"/>
      <point x="232" y="370" type="curve" smooth="yes"/>
      <point x="353" y="370"/>
      <point x="448" y="354"/>
      <point x="448" y="252" type="curve" smooth="yes"/>
      <point x="448" y="109"/>
      <point x="320" y="59"/>
    </contour>
  </outline>
</glyph>
<glyph name="Yu-cy" format="2">
  <advance width="560"/>
  <unicode hex="042E"/>
  <anchor x="382" y="685" name="top"/>
  <outline>
    <contour>
      <point x="312" y="-12" type="curve" smooth="yes"/>
      <point x="502" y="-12"/>
      <point x="584" y="332"/>
      <point x="584" y="533" type="curve" smooth="yes"/>
      <point x="584" y="675"/>
      <point x="532" y="709"/>
      <point x="473" y="709" type="curve" smooth="yes"/>
      <point x="352" y="709"/>
      <point x="270" y="566"/>
      <point x="229" y="398" type="curve"/>
      <point x="168" y="398" type="line"/>
      <point x="240" y="693" type="line"/>
      <point x="157" y="693" type="line"/>
      <point x="-8" y="0" type="line"/>
      <point x="75" y="0" type="line"/>
      <point x="152" y="326" type="line"/>
      <point x="216" y="326" type="line"/>
      <point x="206" y="267"/>
      <point x="200" y="211"/>
      <point x="200" y="164" type="curve" smooth="yes"/>
      <point x="200" y="21"/>
      <point x="252" y="-12"/>
    </contour>
    <contour>
      <point x="327" y="57" type="curve" smooth="yes"/>
      <point x="298" y="57"/>
      <point x="281" y="85"/>
      <point x="281" y="145" type="curve" smooth="yes"/>
      <point x="281" y="349"/>
      <point x="366" y="639"/>
      <point x="460" y="639" type="curve" smooth="yes"/>
      <point x="486" y="639"/>
      <point x="503" y="611"/>
      <point x="503" y="551" type="curve" smooth="yes"/>
      <point x="503" y="347"/>
      <point x="421" y="57"/>
    </contour>
  </outline>
</glyph>
<glyph name="ge-cy" format="2">
  <advance width="560"/>
  <unicode hex="0433"/>
  <anchor x="478" y="0" name="bottomright"/>
  <anchor x="342" y="518" name="top"/>
  <outline>
    <contour>
      <point x="256" y="-12" type="curve" smooth="yes"/>
      <point x="331" y="-12"/>
      <point x="403" y="9"/>
      <point x="421" y="19" type="curve"/>
      <point x="417" y="87" type="line"/>
      <point x="409" y="82"/>
      <point x="344" y="54"/>
      <point x="257" y="54" type="curve" smooth="yes"/>
      <point x="176" y="54"/>
      <point x="127" y="72"/>
      <point x="127" y="119" type="curve" smooth="yes"/>
      <point x="127" y="188"/>
      <point x="210" y="210"/>
      <point x="266" y="225" type="curve" smooth="yes"/>
      <point x="378" y="260"/>
      <point x="493" y="292"/>
      <point x="493" y="411" type="curve" smooth="yes"/>
      <point x="493" y="490"/>
      <point x="418" y="531"/>
      <point x="314" y="531" type="curve" smooth="yes"/>
      <point x="238" y="531"/>
      <point x="171" y="512"/>
      <point x="149" y="501" type="curve"/>
      <point x="152" y="431" type="line"/>
      <point x="171" y="439"/>
      <point x="235" y="464"/>
      <point x="311" y="464" type="curve" smooth="yes"/>
      <point x="358" y="464"/>
      <point x="418" y="453"/>
      <point x="418" y="402" type="curve" smooth="yes"/>
      <point x="418" y="341"/>
      <point x="351" y="322"/>
      <point x="259" y="295" type="curve" smooth="yes"/>
      <point x="152" y="265"/>
      <point x="48" y="223"/>
      <point x="48" y="111" type="curve" smooth="yes"/>
      <point x="48" y="23"/>
      <point x="126" y="-12"/>
    </contour>
  </outline>
</glyph>
<glyph name="ze-cy" format="2">
  <advance width="560"/>
  <unicode hex="0437"/>
  <anchor x="218" y="0" name="bottom"/>
  <anchor x="342" y="518" name="top"/>
  <outline>
    <contour>
      <point x="205" y="-11" type="curve" smooth="yes"/>
      <point x="438" y="-11"/>
      <point x="478" y="100"/>
      <point x="478" y="163" type="curve" smooth="yes"/>
      <point x="478" y="218"/>
      <point x="459" y="240"/>
      <point x="411" y="267" type="curve"/>
      <point x="487" y="293"/>
      <point x="517" y="359"/>
      <point x="517" y="412" type="curve" smooth="yes"/>
      <point x="517" y="473"/>
      <point x="475" y="531"/>
      <point x="342" y="531" type="curve" smooth="yes"/>
      <point x="284" y="531"/>
      <point x="226" y="521"/>
      <point x="169" y="505" type="curve"/>
      <point x="169" y="429" type="line"/>
      <point x="217" y="450"/>
      <point x="289" y="462"/>
      <point x="321" y="462" type="curve" smooth="yes"/>
      <point x="410" y="462"/>
      <point x="440" y="432"/>
      <point x="440" y="394" type="curve" smooth="yes"/>
      <point x="440" y="346"/>
      <point x="386" y="305"/>
      <point x="301" y="305" type="curve" smooth="yes"/>
      <point x="196" y="305" type="line"/>
      <point x="180" y="239" type="line"/>
      <point x="279" y="239" type="line" smooth="yes"/>
      <point x="364" y="239"/>
      <point x="400" y="204"/>
      <point x="400" y="163" type="curve" smooth="yes"/>
      <point x="400" y="108"/>
      <point x="357" y="58"/>
      <point x="240" y="58" type="curve" smooth="yes"/>
      <point x="152" y="58"/>
      <point x="87" y="80"/>
      <point x="72" y="85" type="curve"/>
      <point x="39" y="16" type="line"/>
      <point x="90" y="-4"/>
      <point x="147" y="-11"/>
    </contour>
  </outline>
</glyph>
<glyph name="ka-cy" format="2">
  <advance width="560"/>
  <unicode hex="043A"/>
  <anchor x="478" y="0" name="bottomright"/>
  <anchor x="342" y="518" name="top"/>
  <outline>
    <contour>
      <point x="32" y="0" type="line"/>
      <point x="109" y="0" type="line"/>
      <point x="173" y="262" type="line"/>
      <point x="253" y="204"/>
      <point x="325" y="118"/>
      <point x="372" y="0" type="curve"/>
      <point x="468" y="0" type="line"/>
      <point x="429" y="107"/>
      <point x="336" y="221"/>
      <point x="258" y="281" type="curve"/>
      <point x="335" y="334"/>
      <point x="502" y="453"/>
      <point x="561" y="518" type="curve"/>
      <point x="466" y="518" type="line"/>
      <point x="397" y="457"/>
      <point x="282" y="374"/>
      <point x="182" y="303" type="curve"/>
      <point x="235" y="518" type="line"/>
      <point x="155" y="518" type="line"/>
    </contour>
  </outline>
</glyph>
<glyph name="em-cy" format="2">
  <advance width="560"/>
  <unicode hex="043C"/>
  <outline>
    <contour>
      <point x="-18" y="0" type="curve"/>
      <point x="61" y="0" type="line"/>
      <point x="95" y="114"/>
      <point x="122" y="248"/>
      <point x="171" y="386" type="curve"/>
      <point x="184" y="300"/>
      <point x="193" y="244"/>
      <point x="208" y="109" type="curve"/>
      <point x="300" y="109" type="line"/>
      <point x="380" y="244"/>
      <point x="420" y="307"/>
      <point x="472" y="386" type="curve"/>
      <point x="455" y="261"/>
      <point x="422" y="114"/>
      <point x="398" y="0" type="curve"/>
      <point x="477" y="0" type="line"/>
      <point x="510" y="159"/>
      <point x="547" y="367"/>
      <point x="565" y="518" type="curve"/>
      <point x="482" y="518" type="line"/>
      <point x="434" y="444"/>
      <point x="363" y="330"/>
      <point x="269" y="176" type="curve"/>
      <point x="250" y="324"/>
      <point x="234" y="444"/>
      <point x="221" y="518" type="curve"/>
      <point x="144" y="518" type="line"/>
      <point x="86" y="355"/>
      <point x="23" y="162"/>
    </contour>
  </outline>
</glyph>
<glyph name="tse-cy" format="2">
  <advance width="560"/>
  <unicode hex="0446"/>
  <outline>
    <contour>
      <point x="346" y="-142" type="line"/>
      <point x="423" y="-142" type="line"/>
      <point x="475" y="78" type="line"/>
      <point x="391" y="88"/>
      <point x="407" y="135"/>
      <point x="423" y="201" type="curve" smooth="yes"/>
      <point x="499" y="518" type="line"/>
      <point x="420" y="518" type="line"/>
      <point x="342" y="194" type="line" smooth="yes"/>
      <point x="336" y="169"/>
      <point x="333" y="143"/>
      <point x="331" y="117" type="curve"/>
      <point x="307" y="82"/>
      <point x="266" y="55"/>
      <point x="216" y="55" type="curve" smooth="yes"/>
      <point x="143" y="55"/>
      <point x="127" y="105"/>
      <point x="127" y="156" type="curve" smooth="yes"/>
      <point x="127" y="201"/>
      <point x="142" y="247"/>
      <point x="148" y="273" type="curve" smooth="yes"/>
      <point x="207" y="518" type="line"/>
      <point x="128" y="518" type="line"/>
      <point x="63" y="250" type="line" smooth="yes"/>
      <point x="56" y="219"/>
      <point x="48" y="187"/>
      <point x="48" y="152" type="curve" smooth="yes"/>
      <point x="48" y="63"/>
      <point x="87" y="-11"/>
      <point x="202" y="-11" type="curve" smooth="yes"/>
      <point x="285" y="-11"/>
      <point x="334" y="31"/>
      <point x="350" y="52" type="curve"/>
      <point x="356" y="32"/>
      <point x="368" y="16"/>
      <point x="381" y="9" type="curve"/>
    </contour>
  </outline>
</glyph>
<glyph name="softsign-cy" format="2">
  <advance width="560"/>
  <unicode hex="044C"/>
  <outline>
    <contour>
      <point x="230" y="-11" type="curve" smooth="yes"/>
      <point x="361" y="-11"/>
      <point x="493" y="34"/>
      <point x="493" y="193" type="curve" smooth="yes"/>
      <point x="493" y="289"/>
      <point x="423" y="329"/>
      <point x="302" y="329" type="curve" smooth="yes"/>
      <point x="265" y="329"/>
      <point x="225" y="323"/>
      <point x="198" y="316" type="curve"/>
      <point x="248" y="518" type="line"/>
      <point x="168" y="518" type="line"/>
      <point x="48" y="15" type="line"/>
      <point x="92" y="-4"/>
      <point x="158" y="-11"/>
    </contour>
    <contour>
      <point x="234" y="53" type="curve" smooth="yes"/>
      <point x="176" y="53"/>
      <point x="157" y="57"/>
      <point x="137" y="59" type="curve"/>
      <point x="182" y="256" type="line"/>
      <point x="211" y="261"/>
      <point x="243" y="265"/>
      <point x="284" y="265" type="curve" smooth="yes"/>
      <point x="380" y="265"/>
      <point x="417" y="237"/>
      <point x="417" y="185" type="curve" smooth="yes"/>
      <point x="417" y="95"/>
      <point x="343" y="53"/>
    </contour>
  </outline>
</glyph>
<glyph name="yu-cy" format="2">
  <advance width="560"/>
  <unicode hex="044E"/>
  <anchor x="342" y="518" name="top"/>
  <outline>
    <contour>
      <point x="341" y="-12" type="curve" smooth="yes"/>
      <point x="499" y="-12"/>
      <point x="546" y="249"/>
      <point x="546" y="361" type="curve" smooth="yes"/>
      <point x="546" y="499"/>
      <point x="483" y="530"/>
      <point x="430" y="530" type="curve" smooth="yes"/>
      <point x="319" y="530"/>
      <point x="262" y="405"/>
      <point x="239" y="291" type="curve"/>
      <point x="158" y="291" type="line"/>
      <point x="213" y="518" type="line"/>
      <point x="129" y="518" type="line"/>
      <point x="6" y="0" type="line"/>
      <point x="90" y="0" type="line"/>
      <point x="141" y="219" type="line"/>
      <point x="227" y="219" type="line"/>
      <point x="224" y="195"/>
      <point x="223" y="174"/>
      <point x="223" y="157" type="curve" smooth="yes"/>
      <point x="223" y="17"/>
      <point x="287" y="-12"/>
    </contour>
    <contour>
      <point x="353" y="58" type="curve" smooth="yes"/>
      <point x="318" y="58"/>
      <point x="304" y="90"/>
      <point x="304" y="140" type="curve" smooth="yes"/>
      <point x="304" y="249"/>
      <point x="342" y="459"/>
      <point x="417" y="459" type="curve" smooth="yes"/>
      <point x="454" y="459"/>
      <point x="465" y="428"/>
      <point x="465" y="376" type="curve" smooth="yes"/>
      <point x="465" y="267"/>
      <point x="429" y="58"/>
    </contour>
  </outline>
</glyph>
<glyph name="nje-cy" format="2">
  <advance width="560"/>
  <unicode hex="045A"/>
  <outline>
    <contour>
      <point x="334" y="-12" type="curve" smooth="yes"/>
      <point x="466" y="-12"/>
      <point x="518" y="113"/>
      <point x="518" y="206" type="curve" smooth="yes"/>
      <point x="518" y="273"/>
      <point x="502" y="332"/>
      <point x="433" y="332" type="curve" smooth="yes"/>
      <point x="417" y="332"/>
      <point x="398" y="326"/>
      <point x="375" y="316" type="curve"/>
      <point x="424" y="518" type="line"/>
      <point x="347" y="518" type="line"/>
      <point x="295" y="306" type="line"/>
      <point x="158" y="306" type="line"/>
      <point x="208" y="518" type="line"/>
      <point x="132" y="518" type="line"/>
      <point x="8" y="0" type="line"/>
      <point x="83" y="0" type="line"/>
      <point x="141" y="240" type="line"/>
      <point x="279" y="240" type="line"/>
      <point x="225" y="17" type="line"/>
      <point x="263" y="-4"/>
      <point x="296" y="-12"/>
    </contour>
    <contour>
      <point x="356" y="58" type="curve" smooth="yes"/>
      <point x="333" y="58"/>
      <point x="323" y="62"/>
      <point x="315" y="65" type="curve"/>
      <point x="358" y="252" type="line"/>
      <point x="374" y="258"/>
      <point x="389" y="262"/>
      <point x="399" y="262" type="curve" smooth="yes"/>
      <point x="440" y="262"/>
      <point x="442" y="241"/>
      <point x="442" y="198" type="curve" smooth="yes"/>
      <point x="442" y="125"/>
      <point x="408" y="58"/>
    </contour>
  </outline>
</glyph>
<glyph name="Yat-cy" format="2">
  <advance width="560"/>
  <unicode hex="0462"/>
  <outline>
    <contour>
      <point x="214" y="-6" type="curve" smooth="yes"/>
      <point x="441" y="-6"/>
      <point x="510" y="129"/>
      <point x="510" y="273" type="curve" smooth="yes"/>
      <point x="510" y="395"/>
      <point x="423" y="425"/>
      <point x="318" y="425" type="curve" smooth="yes"/>
      <point x="295" y="425"/>
      <point x="275" y="425"/>
      <point x="254" y="425" type="curve"/>
      <point x="293" y="583" type="line"/>
      <point x="473" y="583" type="line"/>
      <point x="488" y="651" type="line"/>
      <point x="309" y="651" type="line"/>
      <point x="330" y="738" type="line"/>
      <point x="252" y="738" type="line"/>
      <point x="230" y="651" type="line"/>
      <point x="136" y="651" type="line"/>
      <point x="121" y="583" type="line"/>
      <point x="213" y="583" type="line"/>
      <point x="76" y="9" type="line"/>
      <point x="122" y="0"/>
      <point x="170" y="-6"/>
    </contour>
    <contour>
      <point x="227" y="59" type="curve" smooth="yes"/>
      <point x="206" y="59"/>
      <point x="188" y="60"/>
      <point x="167" y="64" type="curve"/>
      <point x="238" y="360" type="line"/>
      <point x="258" y="360"/>
      <point x="279" y="360"/>
      <point x="301" y="360" type="curve" smooth="yes"/>
      <point x="389" y="360"/>
      <point x="426" y="338"/>
      <point x="426" y="261" type="curve" smooth="yes"/>
      <point x="426" y="132"/>
      <point x="365" y="59"/>
    </contour>
  </outline>
</glyph>
<glyph name="yat-cy" format="2">
  <advance width="560"/>
  <unicode hex="0463"/>
  <outline>
    <contour>
      <point x="341" y="-12" type="curve" smooth="yes"/>
      <point x="479" y="-12"/>
      <point x="540" y="85"/>
      <point x="540" y="178" type="curve" smooth="yes"/>
      <point x="540" y="281"/>
      <point x="482" y="332"/>
      <point x="413" y="332" type="curve" smooth="yes"/>
      <point x="391" y="332"/>
      <point x="368" y="327"/>
      <point x="343" y="318" type="curve"/>
      <point x="349" y="347"/>
      <point x="352" y="371"/>
      <point x="352" y="393" type="curve" smooth="yes"/>
      <point x="352" y="511"/>
      <point x="292" y="531"/>
      <point x="227" y="531" type="curve" smooth="yes"/>
      <point x="186" y="531"/>
      <point x="140" y="519"/>
      <point x="93" y="507" type="curve"/>
      <point x="-30" y="0" type="line"/>
      <point x="51" y="0" type="line"/>
      <point x="161" y="455" type="line"/>
      <point x="178" y="461"/>
      <point x="194" y="462"/>
      <point x="210" y="462" type="curve" smooth="yes"/>
      <point x="246" y="462"/>
      <point x="276" y="447"/>
      <point x="276" y="399" type="curve" smooth="yes"/>
      <point x="276" y="367"/>
      <point x="265" y="323"/>
      <point x="252" y="269" type="curve" smooth="yes"/>
      <point x="190" y="17" type="line"/>
      <point x="235" y="-4"/>
      <point x="281" y="-12"/>
    </contour>
    <contour>
      <point x="347" y="58" type="curve" smooth="yes"/>
      <point x="312" y="58"/>
      <point x="295" y="62"/>
      <point x="282" y="65" type="curve"/>
      <point x="328" y="252" type="line"/>
      <point x="349" y="258"/>
      <point x="370" y="264"/>
      <point x="389" y="264" type="curve" smooth="yes"/>
      <point x="425" y="264"/>
      <point x="456" y="245"/>
      <point x="456" y="177" type="curve" smooth="yes"/>
      <point x="456" y="112"/>
      <point x="421" y="58"/>
    </contour>
  </outline>
</glyph>
<glyph name="Fita-cy" format="2">
  <advance width="560"/>
  <unicode hex="0472"/>
  <outline>
    <contour>
      <point x="225" y="-15" type="curve" smooth="yes"/>
      <point x="464" y="-15"/>
      <point x="558" y="325"/>
      <point x="558" y="486" type="curve" smooth="yes"/>
      <point x="558" y="646"/>
      <point x="485" y="709"/>
      <point x="379" y="709" type="curve" smooth="yes"/>
      <point x="141" y="709"/>
      <point x="46" y="371"/>
      <point x="46" y="208" type="curve" smooth="yes"/>
      <point x="46" y="49"/>
      <point x="122" y="-15"/>
    </contour>
    <contour>
      <point x="235" y="53" type="curve" smooth="yes"/>
      <point x="170" y="53"/>
      <point x="126" y="95"/>
      <point x="126" y="214" type="curve" smooth="yes"/>
      <point x="126" y="247"/>
      <point x="129" y="283"/>
      <point x="135" y="318" type="curve"/>
      <point x="148" y="333"/>
      <point x="170" y="349"/>
      <point x="189" y="349" type="curve" smooth="yes"/>
      <point x="286" y="349"/>
      <point x="307" y="265"/>
      <point x="408" y="265" type="curve" smooth="yes"/>
      <point x="420" y="265"/>
      <point x="434" y="266"/>
      <point x="443" y="271" type="curve"/>
      <point x="404" y="152"/>
      <point x="332" y="53"/>
    </contour>
    <contour>
      <point x="435" y="330" type="curve" smooth="yes"/>
      <point x="338" y="330"/>
      <point x="312" y="414"/>
      <point x="214" y="414" type="curve" smooth="yes"/>
      <point x="190" y="414"/>
      <point x="168" y="406"/>
      <point x="152" y="394" type="curve"/>
      <point x="190" y="524"/>
      <point x="264" y="641"/>
      <point x="370" y="641" type="curve" smooth="yes"/>
      <point x="436" y="641"/>
      <point x="478" y="599"/>
      <point x="478" y="481" type="curve" smooth="yes"/>
      <point x="478" y="435"/>
      <point x="473" y="387"/>
      <point x="462" y="338" type="curve"/>
      <point x="453" y="334"/>
      <point x="442" y="330"/>
    </contour>
  </outline>
</glyph>
<glyph name="fita-cy" format="2">
  <advance width="560"/>
  <unicode hex="0473"/>
  <outline>
    <contour>
      <point x="225" y="-12" type="curve" smooth="yes"/>
      <point x="446" y="-12"/>
      <point x="524" y="205"/>
      <point x="524" y="354" type="curve" smooth="yes"/>
      <point x="524" y="461"/>
      <point x="460" y="531"/>
      <point x="350" y="531" type="curve" smooth="yes"/>
      <point x="130" y="531"/>
      <point x="53" y="313"/>
      <point x="53" y="165" type="curve" smooth="yes"/>
      <point x="53" y="54"/>
      <point x="121" y="-12"/>
    </contour>
    <contour>
      <point x="237" y="54" type="curve" smooth="yes"/>
      <point x="165" y="54"/>
      <point x="133" y="98"/>
      <point x="133" y="165" type="curve" smooth="yes"/>
      <point x="133" y="180"/>
      <point x="133" y="203"/>
      <point x="135" y="224" type="curve"/>
      <point x="154" y="244"/>
      <point x="191" y="265"/>
      <point x="221" y="265" type="curve" smooth="yes"/>
      <point x="275" y="265"/>
      <point x="299" y="211"/>
      <point x="354" y="211" type="curve" smooth="yes"/>
      <point x="383" y="211"/>
      <point x="407" y="220"/>
      <point x="428" y="233" type="curve"/>
      <point x="394" y="137"/>
      <point x="330" y="54"/>
    </contour>
    <contour>
      <point x="367" y="268" type="curve" smooth="yes"/>
      <point x="310" y="268"/>
      <point x="287" y="323"/>
      <point x="231" y="323" type="curve" smooth="yes"/>
      <point x="196" y="323"/>
      <point x="172" y="307"/>
      <point x="152" y="290" type="curve"/>
      <point x="183" y="383"/>
      <point x="248" y="464"/>
      <point x="339" y="464" type="curve" smooth="yes"/>
      <point x="413" y="464"/>
      <point x="443" y="420"/>
      <point x="443" y="354" type="curve" smooth="yes"/>
      <point x="443" y="335"/>
      <point x="444" y="317"/>
      <point x="440" y="299" type="curve"/>
      <point x="421" y="282"/>
      <point x="393" y="268"/>
    </contour>
  </outline>
</glyph>
<glyph name="izhitsa-cy" format="2">
  <advance width="560"/>
  <unicode hex="0475"/>
  <anchor x="342" y="518" name="top"/>
  <outline>
    <contour>
      <point x="147" y="0" type="curve"/>
      <point x="239" y="0" type="line"/>
      <point x="312" y="141"/>
      <point x="378" y="269"/>
      <point x="446" y="397" type="curve"/>
      <point x="471" y="438"/>
      <point x="483" y="468"/>
      <point x="524" y="468" type="curve" smooth="yes"/>
      <point x="540" y="468"/>
      <point x="553" y="463"/>
      <point x="560" y="456" type="curve"/>
      <point x="585" y="514" type="line"/>
      <point x="566" y="526"/>
      <point x="542" y="531"/>
      <point x="520" y="531" type="curve" smooth="yes"/>
      <point x="436" y="531"/>
      <point x="411" y="493"/>
      <point x="373" y="418" type="curve" smooth="yes"/>
      <point x="320" y="311"/>
      <point x="260" y="193"/>
      <point x="210" y="87" type="curve"/>
      <point x="184" y="200"/>
      <point x="182" y="380"/>
      <point x="177" y="518" type="curve"/>
      <point x="94" y="518" type="line"/>
      <point x="99" y="332"/>
      <point x="114" y="139"/>
    </contour>
  </outline>
</glyph>
<glyph name="Iishorttail-cy" format="2">
  <advance width="560"/>
  <unicode hex="048A"/>
  <outline>
    <contour>
      <point x="302" y="-191" type="line"/>
      <point x="384" y="-139"/>
      <point x="460" y="-39"/>
      <point x="471" y="62" type="curve"/>
      <point x="421" y="62" type="line"/>
      <point x="571" y="693" type="line"/>
      <point x="485" y="693" type="line"/>
      <point x="304" y="444"/>
      <point x="253" y="370"/>
      <point x="107" y="125" type="curve"/>
      <point x="247" y="693" type="line"/>
      <point x="175" y="693" type="line"/>
      <point x="8" y="0" type="line"/>
      <point x="91" y="0" type="line"/>
      <point x="256" y="274"/>
      <point x="368" y="434"/>
      <point x="474" y="588" type="curve"/>
      <point x="335" y="0" type="line"/>
      <point x="369" y="0" type="line"/>
      <point x="355" y="-46"/>
      <point x="307" y="-105"/>
      <point x="248" y="-148" type="curve"/>
    </contour>
    <contour>
      <point x="377" y="762" type="curve" smooth="yes"/>
      <point x="456" y="762"/>
      <point x="512" y="802"/>
      <point x="543" y="873" type="curve"/>
      <point x="485" y="893" type="line"/>
      <point x="468" y="853"/>
      <point x="431" y="820"/>
      <point x="385" y="820" type="curve" smooth="yes"/>
      <point x="323" y="820"/>
      <point x="318" y="851"/>
      <point x="312" y="891" type="curve"/>
      <point x="249" y="875" type="line"/>
      <point x="255" y="798"/>
      <point x="299" y="762"/>
    </contour>
  </outline>
</glyph>
<glyph name="Semisoftsign-cy" format="2">
  <advance width="560"/>
  <unicode hex="048C"/>
  <outline>
    <contour>
      <point x="194" y="-6" type="curve" smooth="yes"/>
      <point x="416" y="-6"/>
      <point x="486" y="129"/>
      <point x="486" y="273" type="curve" smooth="yes"/>
      <point x="486" y="406"/>
      <point x="405" y="445"/>
      <point x="300" y="445" type="curve" smooth="yes"/>
      <point x="280" y="445"/>
      <point x="259" y="445"/>
      <point x="240" y="442" type="curve"/>
      <point x="264" y="550" type="line"/>
      <point x="398" y="550" type="line"/>
      <point x="414" y="616" type="line"/>
      <point x="280" y="616" type="line"/>
      <point x="299" y="693" type="line"/>
      <point x="220" y="693" type="line"/>
      <point x="201" y="616" type="line"/>
      <point x="117" y="616" type="line"/>
      <point x="101" y="550" type="line"/>
      <point x="185" y="550" type="line"/>
      <point x="56" y="9" type="line"/>
      <point x="102" y="0"/>
      <point x="149" y="-6"/>
    </contour>
    <contour>
      <point x="206" y="59" type="curve" smooth="yes"/>
      <point x="185" y="59"/>
      <point x="168" y="60"/>
      <point x="147" y="64" type="curve"/>
      <point x="222" y="372" type="line"/>
      <point x="235" y="374"/>
      <point x="263" y="376"/>
      <point x="283" y="376" type="curve" smooth="yes"/>
      <point x="368" y="376"/>
      <point x="402" y="338"/>
      <point x="402" y="261" type="curve" smooth="yes"/>
      <point x="402" y="132"/>
      <point x="342" y="59"/>
    </contour>
  </outline>
</glyph>
<glyph name="ertick-cy" format="2">
  <advance width="560"/>
  <unicode hex="048F"/>
  <outline>
    <contour>
      <point x="-15" y="-185" type="line"/>
      <point x="64" y="-185" type="line"/>
      <point x="107" y="-3" type="line"/>
      <point x="120" y="-8"/>
      <point x="141" y="-8"/>
      <point x="151" y="-8" type="curve" smooth="yes"/>
      <point x="205" y="-8"/>
      <point x="251" y="0"/>
      <point x="292" y="14" type="curve"/>
      <point x="326" y="-91" type="line"/>
      <point x="382" y="-58" type="line"/>
      <point x="350" y="40" type="line"/>
      <point x="459" y="105"/>
      <point x="512" y="226"/>
      <point x="512" y="350" type="curve" smooth="yes"/>
      <point x="512" y="454"/>
      <point x="453" y="532"/>
      <point x="325" y="532" type="curve" smooth="yes"/>
      <point x="269" y="532"/>
      <point x="201" y="519"/>
      <point x="148" y="497" type="curve"/>
    </contour>
    <contour>
      <point x="174" y="62" type="curve" smooth="yes"/>
      <point x="156" y="62"/>
      <point x="139" y="62"/>
      <point x="124" y="64" type="curve"/>
      <point x="216" y="448" type="line"/>
      <point x="235" y="454"/>
      <point x="267" y="463"/>
      <point x="301" y="463" type="curve" smooth="yes"/>
      <point x="403" y="463"/>
      <point x="429" y="405"/>
      <point x="429" y="344" type="curve" smooth="yes"/>
      <point x="429" y="249"/>
      <point x="398" y="164"/>
      <point x="326" y="109" type="curve"/>
      <point x="294" y="209" type="line"/>
      <point x="239" y="176" type="line"/>
      <point x="271" y="79" type="line"/>
      <point x="239" y="67"/>
      <point x="208" y="62"/>
    </contour>
  </outline>
</glyph>
<glyph name="Geupturn-cy" format="2">
  <advance width="560"/>
  <unicode hex="0490"/>
  <outline>
    <contour>
      <point x="-21" y="0" type="line"/>
      <point x="306" y="0" type="line"/>
      <point x="323" y="67" type="line"/>
      <point x="173" y="67" type="line"/>
      <point x="308" y="626" type="line"/>
      <point x="573" y="626" type="line"/>
      <point x="622" y="825" type="line"/>
      <point x="546" y="825" type="line"/>
      <point x="514" y="693" type="line"/>
      <point x="245" y="693" type="line"/>
      <point x="95" y="67" type="line"/>
      <point x="-4" y="67" type="line"/>
    </contour>
  </outline>
</glyph>
<glyph name="Zhedescender-cy" format="2">
  <advance width="560"/>
  <unicode hex="0496"/>
  <outline>
    <contour>
      <point x="374" y="-185" type="line"/>
      <point x="461" y="-185" type="line"/>
      <point x="520" y="68" type="line"/>
      <point x="466" y="68" type="line"/>
      <point x="459" y="184"/>
      <point x="439" y="297"/>
      <point x="407" y="366" type="curve"/>
      <point x="484" y="468"/>
      <point x="556" y="555"/>
      <point x="652" y="693" type="curve"/>
      <point x="566" y="693" type="line"/>
      <point x="491" y="580"/>
      <point x="421" y="474"/>
      <point x="355" y="391" type="curve"/>
      <point x="427" y="693" type="line"/>
      <point x="353" y="693" type="line"/>
      <point x="279" y="387" type="line"/>
      <point x="252" y="475"/>
      <point x="231" y="579"/>
      <point x="213" y="693" type="curve"/>
      <point x="133" y="693" type="line"/>
      <point x="162" y="552"/>
      <point x="191" y="474"/>
      <point x="219" y="376" type="curve"/>
      <point x="137" y="298"/>
      <point x="16" y="126"/>
      <point x="-51" y="0" type="curve"/>
      <point x="33" y="0" type="line"/>
      <point x="100" y="119"/>
      <point x="188" y="271"/>
      <point x="268" y="339" type="curve"/>
      <point x="187" y="0" type="line"/>
      <point x="261" y="0" type="line"/>
      <point x="341" y="338" type="line"/>
      <point x="390" y="231"/>
      <point x="384" y="136"/>
      <point x="389" y="0" type="curve"/>
      <point x="418" y="0" type="line"/>
    </contour>
  </outline>
</glyph>
<glyph name="zhedescender-cy" format="2">
  <advance width="560"/>
  <unicode hex="0497"/>
  <outline>
    <contour>
      <point x="409" y="-144" type="line"/>
      <point x="495" y="-144" type="line"/>
      <point x="551" y="75" type="line"/>
      <point x="528" y="67"/>
      <point x="511" y="63"/>
      <point x="490" y="63" type="curve" smooth="yes"/>
      <point x="434" y="63"/>
      <point x="423" y="115"/>
      <point x="423" y="173" type="curve" smooth="yes"/>
      <point x="423" y="235"/>
      <point x="449" y="464"/>
      <point x="563" y="464" type="curve" smooth="yes"/>
      <point x="566" y="464"/>
      <point x="571" y="463"/>
      <point x="574" y="462" type="curve"/>
      <point x="585" y="520" type="line"/>
      <point x="578" y="522"/>
      <point x="572" y="527"/>
      <point x="546" y="527" type="curve" smooth="yes"/>
      <point x="468" y="527"/>
      <point x="413" y="452"/>
      <point x="376" y="296" type="curve"/>
      <point x="321" y="296" type="line"/>
      <point x="375" y="518" type="line"/>
      <point x="308" y="518" type="line"/>
      <point x="256" y="296" type="line"/>
      <point x="190" y="296" type="line"/>
      <point x="192" y="314"/>
      <point x="195" y="342"/>
      <point x="195" y="356" type="curve" smooth="yes"/>
      <point x="195" y="453"/>
      <point x="178" y="527"/>
      <point x="83" y="527" type="curve" smooth="yes"/>
      <point x="78" y="527"/>
      <point x="70" y="526"/>
      <point x="65" y="525" type="curve"/>
      <point x="60" y="463" type="line"/>
      <point x="65" y="464"/>
      <point x="70" y="464"/>
      <point x="74" y="464" type="curve" smooth="yes"/>
      <point x="137" y="464"/>
      <point x="132" y="399"/>
      <point x="132" y="335" type="curve" smooth="yes"/>
      <point x="132" y="262"/>
      <point x="105" y="52"/>
      <point x="-7" y="52" type="curve" smooth="yes"/>
      <point x="-15" y="52"/>
      <point x="-23" y="52"/>
      <point x="-31" y="56" type="curve"/>
      <point x="-43" y="-5" type="line"/>
      <point x="-35" y="-8"/>
      <point x="-21" y="-10"/>
      <point x="2" y="-10" type="curve" smooth="yes"/>
      <point x="96" y="-10"/>
      <point x="152" y="89"/>
      <point x="182" y="237" type="curve"/>
      <point x="239" y="237" type="line"/>
      <point x="182" y="0" type="line"/>
      <point x="250" y="0" type="line"/>
      <point x="307" y="237" type="line"/>
      <point x="367" y="237" type="line"/>
      <point x="366" y="215"/>
      <point x="360" y="178"/>
      <point x="360" y="160" type="curve" smooth="yes"/>
      <point x="360" y="73"/>
      <point x="386" y="13"/>
      <point x="451" y="2" type="curve"/>
    </contour>
  </outline>
</glyph>
<glyph name="Zedescender-cy" format="2">
  <advance width="560"/>
  <unicode hex="0498"/>
  <outline>
    <contour>
      <point x="156" y="-189" type="curve" smooth="yes"/>
      <point x="226" y="-189"/>
      <point x="265" y="-158"/>
      <point x="265" y="-100" type="curve" smooth="yes"/>
      <point x="265" y="-67"/>
      <point x="252" y="-55"/>
      <point x="227" y="-41" type="curve"/>
      <point x="232" y="-32"/>
      <point x="240" y="-21"/>
      <point x="249" y="-10" type="curve"/>
      <point x="362" y="1"/>
      <point x="496" y="59"/>
      <point x="496" y="229" type="curve" smooth="yes"/>
      <point x="496" y="305"/>
      <point x="441" y="350"/>
      <point x="390" y="368" type="curve"/>
      <point x="492" y="405"/>
      <point x="546" y="486"/>
      <point x="546" y="562" type="curve" smooth="yes"/>
      <point x="546" y="657"/>
      <point x="460" y="705"/>
      <point x="357" y="705" type="curve" smooth="yes"/>
      <point x="276" y="705"/>
      <point x="200" y="679"/>
      <point x="155" y="658" type="curve"/>
      <point x="163" y="596" type="line"/>
      <point x="198" y="615"/>
      <point x="256" y="638"/>
      <point x="342" y="638" type="curve" smooth="yes"/>
      <point x="416" y="638"/>
      <point x="462" y="603"/>
      <point x="462" y="553" type="curve" smooth="yes"/>
      <point x="462" y="428"/>
      <point x="318" y="402"/>
      <point x="225" y="402" type="curve" smooth="yes"/>
      <point x="184" y="402" type="line"/>
      <point x="167" y="335" type="line"/>
      <point x="209" y="335" type="line" smooth="yes"/>
      <point x="324" y="335"/>
      <point x="414" y="309"/>
      <point x="414" y="221" type="curve" smooth="yes"/>
      <point x="414" y="97"/>
      <point x="304" y="53"/>
      <point x="203" y="53" type="curve" smooth="yes"/>
      <point x="137" y="53"/>
      <point x="79" y="68"/>
      <point x="33" y="100" type="curve"/>
      <point x="-6" y="37" type="line"/>
      <point x="64" y="-4"/>
      <point x="123" y="-12"/>
      <point x="192" y="-13" type="curve"/>
      <point x="176" y="-33"/>
      <point x="160" y="-60"/>
      <point x="151" y="-75" type="curve"/>
      <point x="152" y="-77" type="line" smooth="yes"/>
      <point x="180" y="-90"/>
      <point x="188" y="-92"/>
      <point x="188" y="-109" type="curve" smooth="yes"/>
      <point x="188" y="-131"/>
      <point x="171" y="-134"/>
      <point x="151" y="-134" type="curve" smooth="yes"/>
      <point x="125" y="-134"/>
      <point x="110" y="-128"/>
      <point x="100" y="-124" type="curve"/>
      <point x="79" y="-176" type="line"/>
      <point x="93" y="-183"/>
      <point x="116" y="-189"/>
    </contour>
  </outline>
</glyph>
<glyph name="zedescender-cy" format="2">
  <advance width="560"/>
  <unicode hex="0499"/>
  <outline>
    <contour>
      <point x="175" y="-189" type="curve" smooth="yes"/>
      <point x="244" y="-189"/>
      <point x="285" y="-158"/>
      <point x="285" y="-100" type="curve" smooth="yes"/>
      <point x="285" y="-67"/>
      <point x="272" y="-55"/>
      <point x="246" y="-41" type="curve"/>
      <point x="254" y="-30"/>
      <point x="262" y="-18"/>
      <point x="270" y="-7" type="curve"/>
      <point x="444" y="11"/>
      <point x="478" y="105"/>
      <point x="478" y="163" type="curve" smooth="yes"/>
      <point x="478" y="218"/>
      <point x="459" y="240"/>
      <point x="411" y="267" type="curve"/>
      <point x="487" y="293"/>
      <point x="517" y="359"/>
      <point x="517" y="412" type="curve" smooth="yes"/>
      <point x="517" y="473"/>
      <point x="475" y="531"/>
      <point x="342" y="531" type="curve" smooth="yes"/>
      <point x="284" y="531"/>
      <point x="226" y="521"/>
      <point x="169" y="505" type="curve"/>
      <point x="169" y="429" type="line"/>
      <point x="217" y="450"/>
      <point x="289" y="462"/>
      <point x="321" y="462" type="curve" smooth="yes"/>
      <point x="410" y="462"/>
      <point x="440" y="432"/>
      <point x="440" y="394" type="curve" smooth="yes"/>
      <point x="440" y="346"/>
      <point x="386" y="305"/>
      <point x="301" y="305" type="curve" smooth="yes"/>
      <point x="196" y="305" type="line"/>
      <point x="180" y="239" type="line"/>
      <point x="279" y="239" type="line" smooth="yes"/>
      <point x="364" y="239"/>
      <point x="400" y="204"/>
      <point x="400" y="163" type="curve" smooth="yes"/>
      <point x="400" y="108"/>
      <point x="357" y="58"/>
      <point x="240" y="58" type="curve" smooth="yes"/>
      <point x="152" y="58"/>
      <point x="87" y="80"/>
      <point x="72" y="85" type="curve"/>
      <point x="39" y="16" type="line"/>
      <point x="91" y="-4"/>
      <point x="153" y="-13"/>
      <point x="213" y="-12" type="curve"/>
      <point x="195" y="-33"/>
      <point x="180" y="-58"/>
      <point x="170" y="-75" type="curve"/>
      <point x="172" y="-77" type="line" smooth="yes"/>
      <point x="198" y="-90"/>
      <point x="209" y="-92"/>
      <point x="209" y="-109" type="curve" smooth="yes"/>
      <point x="209" y="-131"/>
      <point x="190" y="-134"/>
      <point x="171" y="-134" type="curve" smooth="yes"/>
      <point x="146" y="-134"/>
      <point x="129" y="-128"/>
      <point x="121" y="-124" type="curve"/>
      <point x="99" y="-176" type="line"/>
      <point x="112" y="-183"/>
      <point x="134" y="-189"/>
    </contour>
  </outline>
</glyph>
<glyph name="Kastroke-cy" format="2">
  <advance width="560"/>
  <unicode hex="049E"/>
  <outline>
    <contour>
      <point x="24" y="0" type="line"/>
      <point x="105" y="0" type="line"/>
      <point x="185" y="337" type="line"/>
      <point x="278" y="264"/>
      <point x="351" y="165"/>
      <point x="404" y="0" type="curve"/>
      <point x="493" y="0" type="line"/>
      <point x="449" y="143"/>
      <point x="359" y="272"/>
      <point x="273" y="361" type="curve"/>
      <point x="400" y="468"/>
      <point x="496" y="557"/>
      <point x="614" y="693" type="curve"/>
      <point x="511" y="693" type="line"/>
      <point x="415" y="578"/>
      <point x="330" y="506"/>
      <point x="197" y="387" type="curve"/>
      <point x="233" y="537" type="line"/>
      <point x="291" y="537" type="line"/>
      <point x="306" y="602" type="line"/>
      <point x="248" y="602" type="line"/>
      <point x="267" y="680" type="line"/>
      <point x="187" y="680" type="line"/>
      <point x="168" y="602" type="line"/>
      <point x="83" y="602" type="line"/>
      <point x="68" y="537" type="line"/>
      <point x="152" y="537" type="line"/>
    </contour>
  </outline>
</glyph>
<glyph name="kastroke-cy" format="2">
  <advance width="560"/>
  <unicode hex="049F"/>
  <outline>
    <contour>
      <point x="32" y="0" type="line"/>
      <point x="110" y="0" type="line"/>
      <point x="169" y="246" type="line"/>
      <point x="255" y="199"/>
      <point x="324" y="118"/>
      <point x="372" y="0" type="curve"/>
      <point x="468" y="0" type="line"/>
      <point x="429" y="107"/>
      <point x="322" y="228"/>
      <point x="257" y="265" type="curve"/>
      <point x="350" y="326"/>
      <point x="488" y="434"/>
      <point x="564" y="518" type="curve"/>
      <point x="462" y="518" type="line"/>
      <point x="411" y="459"/>
      <point x="315" y="373"/>
      <point x="180" y="289" type="curve"/>
      <point x="206" y="399" type="line"/>
      <point x="268" y="399" type="line"/>
      <point x="282" y="462" type="line"/>
      <point x="222" y="462" type="line"/>
      <point x="242" y="540" type="line"/>
      <point x="158" y="540" type="line"/>
      <point x="141" y="462" type="line"/>
      <point x="54" y="462" type="line"/>
      <point x="39" y="399" type="line"/>
      <point x="127" y="399" type="line"/>
    </contour>
  </outline>
</glyph>
<glyph name="kabashkir-cy" format="2">
  <advance width="560"/>
  <unicode hex="04A1"/>
  <outline>
    <contour>
      <point x="74" y="0" type="line"/>
      <point x="155" y="0" type="line"/>
      <point x="218" y="262" type="line"/>
      <point x="278" y="204"/>
      <point x="334" y="118"/>
      <point x="370" y="0" type="curve"/>
      <point x="466" y="0" type="line"/>
      <point x="427" y="107"/>
      <point x="370" y="221"/>
      <point x="293" y="281" type="curve"/>
      <point x="369" y="334"/>
      <point x="501" y="453"/>
      <point x="560" y="518" type="curve"/>
      <point x="464" y="518" type="line"/>
      <point x="408" y="457"/>
      <point x="313" y="374"/>
      <point x="232" y="304" type="curve"/>
      <point x="286" y="518" type="line"/>
      <point x="97" y="518" type="line"/>
      <point x="83" y="460" type="line"/>
      <point x="189" y="460" type="line"/>
    </contour>
  </outline>
</glyph>
<glyph name="enge-cy" format="2">
  <advance width="560"/>
  <unicode hex="04A5"/>
  <outline>
    <contour>
      <point x="10" y="0" type="line"/>
      <point x="88" y="0" type="line"/>
      <point x="145" y="237" type="line"/>
      <point x="353" y="237" type="line"/>
      <point x="297" y="0" type="line"/>
      <point x="375" y="0" type="line"/>
      <point x="486" y="460" type="line"/>
      <point x="583" y="460" type="line"/>
      <point x="595" y="518" type="line"/>
      <point x="421" y="518" type="line"/>
      <point x="370" y="304" type="line"/>
      <point x="161" y="304" type="line"/>
      <point x="212" y="518" type="line"/>
      <point x="134" y="518" type="line"/>
    </contour>
  </outline>
</glyph>
<glyph name="Pemiddlehook-cy" format="2">
  <advance width="560"/>
  <unicode hex="04A6"/>
  <outline>
    <contour>
      <point x="234" y="-186" type="line"/>
      <point x="416" y="-189"/>
      <point x="516" y="44"/>
      <point x="516" y="252" type="curve" smooth="yes"/>
      <point x="516" y="402"/>
      <point x="451" y="432"/>
      <point x="393" y="432" type="curve" smooth="yes"/>
      <point x="376" y="432"/>
      <point x="361" y="430"/>
      <point x="343" y="427" type="curve"/>
      <point x="408" y="693" type="line"/>
      <point x="162" y="693" type="line"/>
      <point x="-5" y="0" type="line"/>
      <point x="70" y="0" type="line"/>
      <point x="220" y="623" type="line"/>
      <point x="318" y="623" type="line"/>
      <point x="168" y="0" type="line"/>
      <point x="241" y="0" type="line"/>
      <point x="328" y="363" type="line"/>
      <point x="341" y="367"/>
      <point x="353" y="369"/>
      <point x="364" y="369" type="curve" smooth="yes"/>
      <point x="406" y="369"/>
      <point x="435" y="357"/>
      <point x="435" y="262" type="curve" smooth="yes"/>
      <point x="435" y="58"/>
      <point x="354" y="-99"/>
      <point x="248" y="-116" type="curve"/>
    </contour>
  </outline>
</glyph>
<glyph name="pemiddlehook-cy" format="2">
  <advance width="560"/>
  <unicode hex="04A7"/>
  <outline>
    <contour>
      <point x="289" y="-186" type="curve" smooth="yes"/>
      <point x="438" y="-186"/>
      <point x="522" y="11"/>
      <point x="522" y="154" type="curve" smooth="yes"/>
      <point x="522" y="262"/>
      <point x="481" y="314"/>
      <point x="416" y="314" type="curve" smooth="yes"/>
      <point x="396" y="314"/>
      <point x="373" y="310"/>
      <point x="349" y="298" type="curve"/>
      <point x="357" y="326"/>
      <point x="364" y="359"/>
      <point x="364" y="392" type="curve" smooth="yes"/>
      <point x="364" y="508"/>
      <point x="303" y="529"/>
      <point x="244" y="529" type="curve" smooth="yes"/>
      <point x="205" y="529"/>
      <point x="154" y="517"/>
      <point x="108" y="504" type="curve"/>
      <point x="-14" y="0" type="line"/>
      <point x="68" y="0" type="line"/>
      <point x="177" y="455" type="line"/>
      <point x="193" y="461"/>
      <point x="212" y="462"/>
      <point x="227" y="462" type="curve" smooth="yes"/>
      <point x="258" y="462"/>
      <point x="287" y="449"/>
      <point x="287" y="400" type="curve" smooth="yes"/>
      <point x="287" y="367"/>
      <point x="276" y="322"/>
      <point x="262" y="263" type="curve" smooth="yes"/>
      <point x="196" y="0" type="line"/>
      <point x="278" y="0" type="line"/>
      <point x="335" y="236" type="line"/>
      <point x="353" y="245"/>
      <point x="369" y="250"/>
      <point x="384" y="250" type="curve" smooth="yes"/>
      <point x="418" y="250"/>
      <point x="441" y="241"/>
      <point x="441" y="171" type="curve" smooth="yes"/>
      <point x="441" y="67"/>
      <point x="408" y="-121"/>
      <point x="275" y="-121" type="curve" smooth="yes"/>
      <point x="267" y="-121"/>
      <point x="257" y="-120"/>
      <point x="248" y="-118" type="curve"/>
      <point x="230" y="-178" type="line"/>
      <point x="250" y="-184"/>
      <point x="270" y="-186"/>
    </contour>
  </outline>
</glyph>
<glyph name="Tedescender-cy" format="2">
  <advance width="560"/>
  <unicode hex="04AC"/>
  <outline>
    <contour>
      <point x="169" y="-185" type="line"/>
      <point x="246" y="-185" type="line"/>
      <point x="307" y="67" type="line"/>
      <point x="269" y="67" type="line"/>
      <point x="405" y="626" type="line"/>
      <point x="597" y="626" type="line"/>
      <point x="614" y="693" type="line"/>
      <point x="152" y="693" type="line"/>
      <point x="136" y="626" type="line"/>
      <point x="328" y="626" type="line"/>
      <point x="176" y="0" type="line"/>
      <point x="214" y="0" type="line"/>
    </contour>
  </outline>
</glyph>
